<?xml version="1.0" encoding="UTF-8"?>
<svg width="741.429" height="662.857" xmlns="http://www.w3.org/2000/svg">
 <title>70;s Dancing Sihlouettes</title>

 <metadata id="metadata3117">image/svg+xml</metadata>
 <g>
  <title>Layer 1</title>
  <g id="layer1">
   <path d="m534.942688,115.843468c-1.010193,0 -8.597717,15.790489 -8.597717,17.896523c0,1.053055 0.600525,3.742569 1.317444,5.985168c0.71698,2.242599 1.313477,5.02739 1.318481,6.170792c0.00708,1.814301 -1.870728,12.384857 -2.291504,12.89267c-0.085388,0.103195 -1.230103,-0.292694 -2.510437,-0.890915l-2.321655,-1.105103l-6.025024,3.683624c-3.314819,2.019592 -6.093323,3.578537 -6.181702,3.469498c-0.089355,-0.110031 -1.01123,-1.639481 -2.040466,-3.407623c-2.906128,-4.996918 -8.631927,-10.15303 -14.591644,-13.077332c-22.664185,-11.118668 -49.508698,2.911545 -51.651642,26.982788c-1.213043,13.613693 6.699829,26.93367 19.643646,33.029831c5.839203,2.749451 8.19101,4.940979 8.222137,7.612808c0.043152,3.7789 -0.643646,4.156128 -5.993896,3.284805c-2.63797,-0.430237 -6.550232,-0.978348 -8.692108,-1.227859l-3.891174,-0.460709l3.389069,3.653168c3.549805,3.807449 4.053833,4.849625 2.416046,4.849625c-0.537262,0 -3.765656,0.881104 -7.217987,1.9646c-5.338226,1.676758 -6.509094,2.278931 -7.593567,4.02153c-0.710968,1.142456 -1.254242,3.202332 -1.255219,4.665955c-0.002014,2.288757 -0.34848,2.894867 -2.635956,4.696381c-1.44397,1.137527 -2.604797,2.502884 -2.604797,3.039246c0,0.543167 -0.52121,0.923325 -1.160828,0.859482c-2.085693,-0.208191 -2.687195,0.028503 -3.075775,1.166977c-0.210907,0.61882 -1.603729,1.667938 -3.074799,2.332947c-3.558777,1.606094 -11.285919,7.66687 -15.282501,12.00174c-4.074921,4.421326 -8.336639,10.918274 -9.885071,15.072418c-1.125702,3.023529 -5.297028,12.465393 -8.284424,18.694153c-0.73407,1.532379 -1.702148,2.869293 -2.133881,2.978302c-1.714142,0.431244 -13.457947,7.934052 -13.022125,8.318115c0.256073,0.225952 3.388123,1.463623 6.965973,2.763214c3.57785,1.299591 7.057281,2.661011 7.720062,3.007843c1.629761,0.85553 1.585571,4.750366 -0.094391,8.38092c-1.681,3.629639 -1.730194,7.112854 -0.094391,8.563721c0.688843,0.610992 1.638763,1.953827 2.071594,2.978333c0.432831,1.023499 1.29538,2.007782 1.945099,2.210144c0.649689,0.201416 1.363647,0.793762 1.569519,1.319275c0.570374,1.457733 3.164154,2.240601 4.330017,1.289734c0.541168,-0.442047 1.635742,-0.973419 2.448151,-1.166962c1.263245,-0.300629 1.506256,-0.089417 1.506256,1.442993c0,1.593292 1.559448,3.81723 2.227264,3.162018c0.74408,-0.729828 3.012543,-7.310272 3.012543,-8.748352c0,-2.726898 -1.384796,-6.355438 -3.138062,-8.319122c-0.901825,-1.010773 -2.038483,-2.80545 -2.541565,-3.959656c-0.833466,-1.912476 -0.789276,-2.239594 0.439819,-3.868225c1.243134,-1.648315 3.902191,-12.045959 3.922302,-15.34845c0.005035,-0.769196 1.039307,-2.773071 2.321655,-4.42038c2.332703,-2.995056 3.579834,-5.336823 4.676422,-8.963501c0.320313,-1.060852 0.871613,-1.972412 1.223114,-1.995026c1.719116,-0.113922 4.97464,-2.771057 5.93161,-4.850586c0.674805,-1.466522 2.461212,-3.312317 4.863251,-4.972412c2.09964,-1.450867 5.84729,-4.875183 8.316528,-7.612823c6.049133,-6.708099 8.686127,-9.209045 9.696289,-9.209045c0.540222,0 0.990082,1.252411 1.224091,3.468506c0.200775,1.907623 1.338562,5.593231 2.541565,8.196289l2.196136,4.75827l0,10.590149l0,10.620636l-2.321655,4.174774c-4.165314,7.606964 -12.279053,24.702881 -15.125854,31.863831c-1.540436,3.877167 -3.225433,7.715973 -3.765625,8.533234c-0.875732,1.326111 -0.86261,1.579529 0.063232,2.487183c0.944916,0.926331 0.890656,1.173859 -0.376556,2.854553c-1.013245,1.343781 -1.186951,2.061829 -0.658752,2.578552c0.464966,0.45578 0.517181,1.302521 0.156677,2.39389c-0.308289,0.934143 -0.888702,3.885956 -1.286377,6.539124c-0.397644,2.652252 -1.117676,5.982239 -1.600647,7.397766c-0.483002,1.414429 -1.365662,5.617767 -1.977203,9.331848c-0.803375,4.882019 -1.63681,7.545044 -2.949249,9.669739c-0.999146,1.615906 -1.969208,3.78183 -2.197144,4.819183c-0.632629,2.881989 -13.813385,28.529846 -14.560486,28.333435c-0.360504,-0.095337 -0.845551,-3.029388 -1.066467,-6.539185c-0.220886,-3.508789 -0.631653,-7.387848 -0.910767,-8.625549c-0.460876,-2.052002 -12.898621,-32.403198 -16.976532,-41.409851c-0.940918,-2.078522 -1.726166,-4.052948 -1.726166,-4.359467c0,-0.305481 1.620728,-1.591278 3.608978,-2.88501l3.640137,-2.363403l-3.48349,-3.592255c-5.956757,-6.160004 -11.927612,-14.89856 -22.028534,-32.293091l-4.70755,-8.104004l0,-5.12561c0,-8.171753 2.926086,-14.769897 11.45459,-25.939606c7.431885,-9.733612 11.789948,-21.311935 10.198364,-27.104584c-0.391632,-1.426285 -1.548431,-3.937088 -2.573669,-5.587326c-2.63092,-4.238632 -3.984589,-8.553894 -3.984589,-12.862259c0,-7.672699 4.982758,-13.510574 17.91748,-21.057587c19.526093,-11.391693 30.392303,-19.806046 31.569183,-24.404221c0.556274,-2.174805 -1.904907,-6.513626 -5.240784,-9.209061c-1.29541,-1.046143 -7.127625,-4.423309 -12.959869,-7.520493c-17.921509,-9.518478 -25.904633,-14.698166 -34.173004,-22.224533c-6.357483,-5.786728 -6.862488,-6.025406 -11.078003,-4.850586c-1.887848,0.52652 -4.423431,1.20726 -5.679626,1.504868c-3.437317,0.812378 -4.417389,2.954758 -3.389069,7.458618c0.448883,1.967545 1.430939,4.333908 2.165009,5.24942c2.4823,3.092255 7.950012,4.9655 16.914276,5.83287c4.218506,0.4077 4.228516,0.415543 17.385223,10.099014c17.21756,12.672668 17.415405,12.854385 17.415405,14.028244c0,2.209198 -3.41626,4.410522 -24.319092,15.594009c-13.159668,7.040115 -20.688019,10.744385 -21.840759,10.744385c-1.017242,0 -1.726166,-2.725861 -1.726166,-6.539154c0,-2.409592 0.048187,-2.490112 2.070618,-2.332977c1.653839,0.129684 2.283478,-0.142441 2.981384,-1.411575c1.037262,-1.887009 0.623566,-6.742508 -0.878662,-10.25322c-0.623627,-1.456787 -0.832428,-3.131561 -0.564362,-4.543137c0.843475,-4.442963 0.42572,-12.483078 -0.878632,-16.576324c-3.249542,-10.196259 -8.744354,-14.656906 -19.268066,-15.624466c-8.381866,-0.771072 -11.116211,0.135574 -16.00351,5.310333c-5.47171,5.79361 -7.773285,11.032227 -9.759552,22.194061c-0.896729,5.037231 -1.949158,10.375061 -2.35379,11.849487c-0.856567,3.117828 -5.599304,13.414291 -6.181671,13.414291c-0.217957,0 -4.461548,-2.813339 -9.414124,-6.262177c-4.952606,-3.448837 -11.564056,-8.001801 -14.717163,-10.099014c-3.153137,-2.09819 -5.742859,-4.05397 -5.742859,-4.328979c0,-0.850708 9.647064,-11.060699 13.995148,-14.825867c14.246216,-12.335709 25.721893,-18.027145 35.836914,-17.743271c7.337494,0.206284 9.467316,-1.033386 11.83017,-6.876114c2.067566,-5.111847 1.778381,-6.108902 -1.757294,-6.108902c-1.23819,0 -4.328033,-0.872284 -6.872559,-1.933167c-7.8125,-3.259277 -10.091003,-2.66597 -15.501434,4.082428c-3.091827,3.856537 -3.56781,4.155106 -19.455841,12.186417c-15.633942,7.903595 -25.613464,13.599976 -27.301453,15.594009c-1.364685,1.612961 -2.187134,1.050125 -4.895325,-3.345734c-3.689423,-5.990021 -4.470612,-6.708099 -6.903687,-6.231689c-1.602753,0.314346 -2.389954,0.056961 -3.796783,-1.258331c-2.584824,-2.41745 -11.16951,-6.206177 -15.093765,-6.66098c-2.999466,-0.348694 -3.709457,-0.19252 -6.02504,1.381104c-2.40097,1.630661 -2.930206,1.749512 -6.52713,1.350662c-4.736725,-0.525497 -5.936661,-0.009827 -9.728409,4.174789c-2.361877,2.606049 -3.371063,3.196426 -6.369492,3.806412c-6.226868,1.267197 -8.507401,4.520523 -5.83725,8.257233c1.592621,2.228821 0.691849,4.108917 -2.792603,5.955643c-4.060883,2.151245 -4.517776,3.577576 -2.479309,7.335831c1.890854,3.486191 1.99028,5.260208 0.50209,8.319092c-0.942947,1.93811 -0.966049,2.633575 -0.251038,4.973373c0.456848,1.49408 1.754242,3.566772 2.886993,4.60405c1.948044,1.783844 2.26442,1.859497 6.150558,1.503906c2.260376,-0.206299 4.111084,-0.231842 4.111084,-0.030457c0,0.201401 -0.724014,0.920441 -1.600647,1.596252c-4.475632,3.451767 -3.305725,12.800354 1.600647,12.800354c1.976227,0 3.988556,-1.980316 3.891159,-3.836868c-0.045227,-0.861496 -0.122513,-0.845795 -0.439804,0c-0.198822,0.530426 -0.79837,1.468521 -1.348633,2.087372c-3.477463,3.912537 -7.654846,-3.325089 -4.92746,-8.533249c1.524292,-2.910553 2.940201,-2.879089 3.797775,0.09137c0.749084,2.598221 2.689148,5.065689 4.016693,5.065689c2.45018,0 2.888947,7.460617 0.721008,12.40155l-1.066437,2.424332l-3.796783,-1.872253c-7.548401,-3.701309 -13.264114,-4.0009 -16.192322,-0.829056c-1.616714,1.75145 -2.216217,9.234619 -2.730316,34.012115l-0.470978,22.040863l-8.409943,0c-9.403061,0 -17.287827,-0.904724 -21.087631,-2.394867c-1.395798,-0.54715 -2.679138,-0.879181 -2.855865,-0.705292c-0.176727,0.172913 0.73407,3.148285 2.008347,6.599121c1.274307,3.450806 2.291504,6.707092 2.291504,7.213989c0,0.746552 -3.555771,2.793671 -4.864182,2.793671c-0.18277,0 -0.762207,-0.816315 -1.286377,-1.811371c-1.571503,-2.978302 -7.090439,-8.620636 -9.351852,-9.546967c-2.130829,-0.872314 -8.095657,-0.583496 -8.095657,0.399811c0,0.264282 1.61171,1.139465 3.608017,1.933136c6.657669,2.648285 9.294632,6.599121 6.213837,9.331848c-1.287369,1.142456 -1.390793,1.142456 -3.263565,-0.214142c-2.286514,-1.657166 -2.855896,-1.727844 -3.954453,-0.430237c-1.643814,1.942993 2.29454,4.647278 10.73262,7.367218c4.295837,1.38504 6.081238,1.45575 10.103973,0.307465c1.324509,-0.378204 1.479141,-0.193481 1.475128,1.749481c-0.004028,2.391907 -1.524323,5.708191 -2.981384,6.507782c-1.845688,1.012726 -0.908783,1.631592 1.506256,0.982239c11.653442,-3.133545 40.817596,-17.257019 43.148331,-20.904327c0.725983,-1.136475 1.476105,-2.074554 1.695038,-2.087372c0.841507,-0.053009 9.225342,7.943939 10.135132,9.668793c1.510239,2.862427 1.192947,3.944916 -2.72937,9.669769c-6.420715,9.370178 -8.539505,11.056732 -21.025391,16.392609c-19.122452,8.170746 -29.164185,13.431 -36.62117,19.215729c-2.525482,1.959686 -6.568314,5.030426 -8.974274,6.815216c-3.07077,2.276978 -4.678436,3.977356 -5.39743,5.739594c-1.270294,3.110931 -4.782883,19.771667 -7.939026,37.634857c-2.818695,15.950623 -5.488785,28.550446 -6.33934,29.898285c-0.693893,1.101105 -0.520126,-1.054962 1.475159,-18.816956l1.349579,-12.033173l-1.444,-5.648224c-3.497528,-13.913361 -7.438904,-23.484924 -17.509735,-42.514954c-11.60321,-21.925903 -15.284531,-30.293152 -15.282509,-34.779297c0,-0.90863 0.737076,-2.510742 1.631783,-3.530396c2.395943,-2.731781 2.655014,-5.26709 0.973038,-9.730682c-0.79229,-2.102112 -2.098717,-6.003815 -2.919144,-8.657013c-3.547821,-11.481049 -5.875397,-45.186676 -3.35733,-48.56192c0.86097,-1.15419 0.939293,-1.131592 3.044052,0.33696c1.374695,0.959671 1.894867,1.258331 1.913925,0.951828c0.586456,0.703369 1.591637,1.442993 1.286354,1.258331c-1.322487,-0.800568 1.365692,3.509781 5.680618,9.117691c2.361801,3.068741 4.85817,6.675705 5.554085,8.011642c0.694878,1.335907 1.954102,2.884064 2.761475,3.438049c1.753288,1.203339 2.120811,1.236755 3.985558,0.276031c2.94323,-1.516663 8.352699,-6.30632 21.181007,-18.724625l9.257462,-8.96347l2.950256,2.025497c5.285965,3.652222 11.02684,2.996048 14.560501,-1.688553l1.223099,-1.626709l-3.169174,-3.162018c-1.735214,-1.726883 -3.014511,-3.209198 -2.855865,-3.315262c0.158646,-0.106125 2.814713,-1.42926 5.931641,-2.946884c3.115967,-1.517654 7.258179,-4.180649 9.194244,-5.893799c3.211304,-2.841812 3.460358,-3.211121 2.698181,-4.450806c-0.59549,-0.968597 -0.634613,-1.732758 -0.156647,-2.609009c1.162857,-2.1306 0.786285,-3.857483 -0.973038,-4.512665c-1.314453,-0.490189 -1.63179,-1.067734 -1.63179,-2.854584c0,-2.803482 -2.01033,-4.437012 -4.36113,-3.560837c-1.457016,0.543274 -1.569519,0.447922 -1.569519,-1.626678c0,-1.845734 -0.247025,-2.299576 -1.631775,-2.640427c-0.447845,-0.110016 -0.932861,-0.158157 -1.41185,-0.153229c-4.628235,0.04718 -10.449448,5.25235 -12.364395,11.449677c-0.686844,2.225891 -2.107758,4.930161 -3.325806,6.292633l-2.165024,2.425293l-2.417038,-2.332977l-2.384903,-2.30249l-3.514603,1.873215l-3.545746,1.841827l1.286346,3.376175c0.711945,1.835938 1.318497,3.832916 1.318497,4.45079c0,1.281891 -9.01947,8.474319 -13.681854,10.928085c-7.140694,3.760284 -9.254456,2.804474 -13.650749,-6.292618c-1.567482,-3.243561 -2.855858,-6.211075 -2.855858,-6.568649c0,-0.358521 -0.675812,-2.000931 -1.286354,-2.487152c-0.237953,-0.188629 -0.885666,-0.500992 -1.600647,-0.828094c0.190796,-0.288818 0.390633,-0.579529 0.596474,-0.859528c0.194809,-0.140488 0.776237,0.151276 1.255219,0.459747c-0.132538,0.283875 -0.226929,0.54126 -0.21991,0.675812c0.021118,0.353607 0.189819,0.241669 0.376564,-0.215118c0.044189,-0.108047 0.109467,-0.173889 0.157669,-0.24559c0.102417,0.077591 0.19883,0.161102 0.251045,0.215134c0.020073,-0.092331 0.118469,-0.256378 0.218895,-0.430237c0.170723,0.043228 0.357506,0.178772 0.627609,0.39978c1.039322,0.844757 5.224716,0.272125 5.899513,-0.798615c0.581429,-0.921387 -0.834457,-2.178757 -3.891167,-3.407593c-0.953949,-0.383102 -1.545395,-0.549118 -1.819542,-0.552063c-0.802345,-0.715073 -2.634941,-1.960632 -4.298874,-3.591293c-1.471107,-1.441956 -3.524651,-4.188492 -4.550919,-6.108902c-1.404831,-2.630585 -2.288506,-3.603043 -3.640129,-3.868301c-1.770325,-0.346771 -7.058632,-5.307358 -6.871941,-6.445862c0.053017,-0.323151 1.718048,-0.506851 3.702888,-0.430222l3.608894,0.122787l2.164978,-3.560852c2.150932,-3.540207 2.951286,-4.157089 3.734543,-2.915482c1.10257,1.747528 2.144897,0.311401 3.169144,-4.359421c0.602509,-2.749481 1.098587,-5.72876 1.098587,-6.600052c0,-0.871353 0.764168,-3.077545 1.694023,-4.880096c1.386772,-2.685608 2.431122,-3.666885 5.837273,-5.587326c4.432426,-2.498962 6.037086,-4.301453 7.782349,-8.687439c1.592606,-4.002884 1.380737,-8.266022 -0.565369,-12.094086c-3.830894,-7.53717 -8.373795,-10.740479 -19.33033,-13.506638c-5.787018,-1.461624 -7.650787,-1.673805 -12.426216,-1.350647c-7.043091,0.47641 -14.224236,2.437103 -19.738335,5.372192c-5.660027,3.011765 -8.180107,5.479279 -10.700653,10.497849c-1.860947,3.705261 -2.109077,4.770065 -2.102547,9.639282c0.00882,6.548035 1.852081,10.97821 5.55439,13.38385c1.596016,1.036316 2.9132,2.848679 4.424576,6.047043c1.184822,2.506821 2.165306,4.958679 2.165306,5.433105c0,1.197418 -2.470467,2.59227 -5.334663,3.008774c-2.076561,0.301575 -2.782166,0.009827 -5.209152,-2.026489l-2.824226,-2.332947l-6.276081,0.184647c-5.844418,0.17189 -6.543091,0.045212 -10.418324,-1.780884c-2.287891,-1.078583 -4.257591,-1.9646 -4.361908,-1.9646c-0.104225,0 -0.579926,0.886017 -1.035522,1.9646c-0.765877,1.812378 -0.673973,2.118805 1.035522,3.868286c1.017136,1.040268 1.723164,1.960693 1.569019,2.087387c-0.154053,0.125732 -1.781509,1.065811 -3.608715,2.055954c-2.954475,1.602112 -3.536392,2.292694 -5.366081,6.354507c-1.1315,2.512695 -2.986622,7.061783 -4.110802,10.068558c-1.124149,3.006805 -2.349148,6.17572 -2.730127,7.06076c-0.949839,2.2043 -3.828409,10.411392 -3.828409,10.928085c0,0.229874 3.743156,-1.446884 8.284428,-3.715042c4.541275,-2.26712 8.377403,-3.960602 8.566883,-3.774994c0.278961,0.273117 -6.363632,30.722412 -11.42247,52.368362c-1.073338,4.592255 -1.904703,5.529419 -3.389084,3.77597c-0.554581,-0.655182 -0.570944,-1.770111 -0.03141,-4.236633c0.399946,-1.828094 0.583019,-3.665955 0.407976,-4.112915c-0.175106,-0.447906 -1.66169,-1.529449 -3.326323,-2.394806l-3.01252,-1.564819l-2.479082,2.792664c-1.66172,1.89093 -2.86481,2.730804 -3.734237,2.578552c-1.156785,-0.202362 -1.451712,0.551025 -2.761476,7.490051c-0.80112,4.245514 -1.633222,9.654968 -1.882825,12.033173c-0.452135,4.30835 -0.465006,4.329987 1.788652,6.539124c2.186393,2.142426 6.049737,3.503876 7.939273,2.792694c0.46516,-0.174835 1.221384,-1.812347 1.694542,-3.621765c0.473097,-1.809326 1.135334,-3.28476 1.474848,-3.28476c0.339516,0 2.09881,0.736694 3.891171,1.626678c3.697863,1.836884 3.692131,1.851624 2.510433,9.639282c-0.406782,2.681671 -0.594973,5.035339 -0.407915,5.217987c0.186995,0.183716 3.239168,0.737671 6.77817,1.259308c3.539028,0.52063 6.536991,1.05304 6.652645,1.165985c0.115685,0.113983 -0.244793,1.037323 -0.784542,2.056946c-4.334816,8.190399 -1.949997,28.000458 6.527126,54.302521c1.197174,3.71405 2.319542,8.208069 2.510429,9.976227c0.190979,1.769196 1.297783,6.974365 2.447674,11.573425c2.683636,10.731598 2.818996,16.026215 0.502087,20.904358c-1.866276,3.92923 -4.086288,6.329926 -9.570992,10.314178c-4.277851,3.106964 -9.714748,9.01358 -18.796896,20.413147l-6.30743,7.888885l2.039696,6.907501c3.740948,12.672607 4.418354,14.557648 12.301119,34.042511l5.020866,12.371124l4.612949,-0.368378c7.233978,-0.555054 7.562645,-0.657227 7.562645,-2.79364c0,-4.330109 7.838974,-30.013275 14.937065,-48.899841c9.103317,-24.222595 12.706306,-33.706604 15.062592,-39.569l2.604637,-6.415405l-2.416351,-31.525909c-2.145424,-28.025085 -2.413536,-33.840271 -1.537582,-31.524963c0.133827,0.353577 1.986038,3.683563 4.14222,7.397675c2.156143,3.714081 5.691925,10.12854 7.8451,14.243347c3.75618,7.17865 21.448715,39.621063 23.472115,43.03656c1.06543,1.798553 1.050385,1.851624 -17.76088,32.447296c-9.827866,15.983948 -14.831352,28.12323 -21.150398,51.355591c-1.623169,5.967438 -2.868729,10.912354 -2.761475,10.988983c0.801216,0.572693 53.128372,3.43219 59.560097,3.254364c6.428696,-0.177826 6.303177,-0.11499 5.020874,-1.503845c-1.070465,-1.15918 -0.939911,-1.227966 3.514603,-1.658173l4.613129,-0.460693l0,-2.240662c0,-9.289581 6.208817,-14.080231 9.633057,-7.428101c0.790268,1.534332 1.638794,4.347656 1.882813,6.262146l0.43985,3.498993l5.491791,0c5.474777,0 5.522949,-0.007965 5.522949,-1.657227c0,-1.625732 -1.094543,-15.016327 -1.600616,-19.707855l-0.251038,-2.363373l7.813431,0.368317l7.813477,0.398834l0,-1.47345c0,-0.810455 -0.604492,-4.825012 -1.317444,-8.933014c-0.712997,-4.106995 -2.603851,-16.092102 -4.236633,-26.613434l-2.981384,-19.12439l0,-18.63324l0,-18.663727l4.958618,-3.069672c9.711349,-6.009735 36.133133,-23.059479 41.484406,-26.7677c2.99144,-2.072632 5.576157,-3.632538 5.742859,-3.468475c0.166718,0.163055 -1.94313,4.324097 -4.706573,9.239502c-13.542297,24.086029 -18.200623,33.433624 -20.492157,41.103363c-1.3918,4.658966 -1.34259,3.518646 -3.796783,70.848297l-0.376572,11.020447l4.926514,0.459747c2.713242,0.24942 6.281097,0.344727 7.939972,0.215179c1.658875,-0.129761 3.012512,-0.073822 3.012512,0.122711c0,0.197449 -2.184052,1.007843 -4.864197,1.780945c-2.680145,0.772095 -5.700699,2.091278 -6.715927,2.946899c-1.690048,1.425201 -1.849701,1.976288 -2.070587,6.753296c-0.132568,2.866333 -0.077347,5.868195 0.125519,6.66098l0.345398,1.442993l13.493118,-0.184662l13.494064,-0.183716l0,-3.34668c0.03511,-8.1698 6.06015,-13.230591 9.288589,-7.796539c0.648697,1.091339 1.363647,3.38797 1.568542,5.126648c0.76416,6.481232 0.334396,6.077515 6.213806,6.077515l5.208649,0l0,-1.841827c0,-1.010803 -0.320358,-5.7052 -0.721985,-10.406464c-0.653717,-7.664856 -0.634659,-8.596069 0.314285,-9.11676c0.952942,-0.522552 0.980026,-0.744629 0.094391,-2.425262c-1.250183,-2.368347 -1.269318,-4.794586 -0.03212,-5.801514c0.530167,-0.430206 2.351761,-1.109955 4.048813,-1.534332c1.696014,-0.424347 3.408142,-1.256409 3.765656,-1.81131c0.977097,-1.518646 -0.740082,-5.906647 -7.845596,-20.290405c-11.509872,-23.301208 -14.264297,-31.072083 -14.152817,-39.814575c0.172729,-13.420166 5.601288,-26.823669 16.568863,-40.856842c16.019592,-20.49765 18.066071,-23.721527 19.957977,-31.587769c3.364929,-13.986969 -2.017426,-25.471039 -16.192337,-34.441406c-2.053574,-1.300537 -4.036789,-2.987213 -4.39325,-3.745514c-0.928909,-1.975403 0.879623,-9.926117 3.326813,-14.672607c1.621735,-3.146301 1.913956,-4.357483 1.600647,-6.600067c-0.278137,-1.989227 -0.166718,-2.731781 0.438828,-2.731781c1.213074,0 5.287018,4.366333 12.583344,13.506622c3.53064,4.421356 7.65976,9.335785 9.19519,10.92807c1.534332,1.591309 6.857483,8.672699 11.83017,15.747253c4.971649,7.074554 9.634033,13.652985 10.355042,14.611694c1.278259,1.699402 1.314423,1.907623 0.283142,8.04306c-1.550446,9.218903 -1.746277,11.139313 -1.914917,21.303162c-0.1698,10.262115 -0.322388,9.859314 4.70755,11.388763l2.290497,0.706299l0.407715,13.782654c0.218933,7.574463 0.727997,16.240356 1.1297,19.247192c0.402679,3.006836 0.809326,9.084229 0.910767,13.506622l0.187775,8.042084l-2.196136,-0.215118c-2.090698,-0.199432 -2.185089,-0.134644 -1.851685,1.596252c0.19281,0.999939 0.871613,12.478149 1.506256,25.478882l-0.188751,54.179718l5.680573,1.934113c3.472443,0 8.197021,-31.272491 7.719086,-31.741028c0.141602,0.072662 0.943878,0.617737 1.067444,0.49115c0.14856,-0.153229 0.889679,-5.481323 1.662903,-11.84848c0.772186,-6.36734 1.542419,-12.575439 1.694061,-13.814056c1.356567,-11.020447 1.847626,-20.881805 2.919098,-58.108948c0.303253,-10.546051 0.706909,-19.324738 0.90979,-19.523193c0.201843,-0.198456 5.031891,0.146271 10.731598,0.767181c7.455994,0.813324 12.614441,1.004822 18.358276,0.706238l7.970154,-0.398804l4.958588,6.906555c2.723358,3.806427 7.275208,9.9133 10.135132,13.568481c5.493774,7.018555 8.591675,12.7453 10.261627,19.062531c1.393738,5.27002 1.318481,6.139374 -0.502075,6.139374c-1.476166,0 -1.485168,0.08548 -1.004181,4.328033c0.271149,2.38797 0.510071,8.270874 0.533234,13.045868c0.038116,7.799438 -0.276184,10.21106 -3.012543,23.975006c-2.973389,14.955444 -3.106903,15.406342 -5.585205,18.478973c-1.39679,1.73175 -2.541565,3.437134 -2.541565,3.776031c0,0.337921 0.721985,1.165009 1.59967,1.841736c1.363617,1.05011 1.675903,2.009827 2.13385,6.630554c0.518158,5.217987 0.582397,5.427246 2.259399,5.617767c1.706055,0.192566 1.753265,0.276031 1.412842,3.959717c-0.311279,3.356476 -0.209839,3.828888 1.035309,4.481232c0.766144,0.401703 2.921143,0.782898 4.800964,0.859467c3.394104,0.139465 3.42923,0.130615 4.989716,-2.608948l1.568542,-2.762268l1.726166,1.687622c2.754425,2.700317 11.687561,6.583405 17.510773,7.612823c6.580322,1.164001 10.285706,1.232758 12.426636,0.276917c2.874908,-1.28476 2.150909,-3.480164 -2.228271,-6.630463c-2.394958,-1.723938 -3.138031,-2.633575 -3.138031,-3.960663c0,-1.025604 -0.626617,-2.217102 -1.506256,-2.915436c-1.926025,-1.529449 -1.429962,-1.956787 1.380737,-1.166992c4.078949,1.147278 3.891174,1.681671 3.891174,-11.265961l0,-11.910309l3.294678,-12.370117c1.800476,-6.805359 4.288818,-16.122467 5.554108,-20.720673c1.266235,-4.599121 2.290527,-9.671783 2.291504,-11.265961c0.000977,-1.59433 0.339417,-3.921417 0.721008,-5.157074c0.382568,-1.23584 0.947906,-3.825134 1.255219,-5.771057c0.404633,-2.556946 1.596588,-5.221924 4.330994,-9.638275c2.07962,-3.36145 5.031891,-8.726837 6.558258,-11.910461c2.542542,-5.301422 3.525635,-8.047913 5.491791,-15.502594c0.381592,-1.445984 2.2453,-5.185638 4.17337,-8.318146c2.699188,-4.386963 4.348022,-6.27298 7.123596,-8.19632l3.608978,-2.486206l6.558258,6.630524c23.304871,23.545746 28.58075,28.692017 32.478973,31.770569l4.330017,3.438049l-1.191956,4.512695c-1.796478,6.706146 -2.816772,19.443542 -2.417053,30.175201c0.397644,10.641296 -0.403717,16.81604 -4.486664,34.073029c-1.284393,5.426147 -2.17804,10.025269 -1.977203,10.222809c0.200775,0.196381 2.72937,0.117889 5.648468,-0.215118c2.919098,-0.332977 5.435577,-0.470551 5.554108,-0.276062c0.118408,0.193542 0.397644,3.176788 0.658752,6.630524c0.431702,5.689484 0.616516,6.319153 1.882813,6.599152c4.2276,0.936096 7.284302,1.522522 7.374634,1.412506c0.057251,-0.068787 0.899719,-1.642426 1.851685,-3.499939c2.590759,-5.055878 4.293823,-4.639374 7.593567,1.934174c2.122803,4.227783 3.784729,5.29953 10.167236,6.569611c15.726379,3.12854 22.315735,-4.978302 8.158936,-10.038116c-3.84198,-1.373352 -6.309265,-3.558899 -8.377869,-7.429169c-1.051331,-1.966644 -1.126648,-1.938019 2.384949,-2.393829c1.740234,-0.22702 3.668213,-0.759369 4.2677,-1.197449c0.983093,-0.720032 0.986084,-1.073639 0.125549,-3.498901c-0.52417,-1.476471 -1.270264,-4.645386 -1.66394,-7.060852c-0.392578,-2.414459 -2.437134,-12.342529 -4.549866,-22.071198c-5.042969,-23.220612 -5.647461,-26.33844 -7.249146,-36.989502c-1.758301,-11.700165 -2.75647,-15.057678 -6.243958,-20.689209c-1.584595,-2.557892 -4.24762,-7.60202 -5.899536,-11.205078c-1.651794,-3.602051 -4.398254,-9.20813 -6.088257,-12.432007c-1.689026,-3.223877 -3.153137,-6.037201 -3.26355,-6.262146c-0.110474,-0.224945 0.622559,-0.703339 1.631775,-1.074646c1.009155,-0.370331 4.205444,-1.576569 7.092468,-2.669922l5.239746,-1.996002l2.479309,2.763184c1.360657,1.512787 3.714478,5.219971 5.240784,8.226776c1.526367,3.006836 2.878967,5.581421 2.981384,5.74054c0.10144,0.159149 1.171875,-0.714111 2.416016,-1.934143c1.420959,-1.39386 3.504578,-4.902588 5.554138,-9.485046c3.106873,-6.946808 4.275757,-8.871185 8.222107,-13.292511l1.72522,-1.933167l-0.313354,2.240631c-0.85144,5.852539 -1.830566,18.66568 -1.631775,21.51828c0.193848,2.795624 0.491089,3.344788 2.321655,4.389923c1.146851,0.654205 4.078979,1.527374 6.496033,1.964569l4.362122,0.797638l6.809265,17.006561c3.744568,9.359283 6.809326,17.60672 6.809326,18.325775c0,3.362396 -4.533875,18.802216 -11.735779,39.905945c-4.340027,12.717834 -8.233215,24.607574 -8.629883,26.429718c-0.692871,3.183594 -0.62854,3.490082 1.662964,7.950745c2.973328,5.787689 7.548401,10.649048 11.831116,12.616608c4.749817,2.181671 10.973633,2.109985 15.752502,-0.184601c4.627258,-2.220001 13.428772,-9.145325 16.035583,-12.615723c3.076843,-4.098114 3.187256,-5.3349 0.722046,-7.827911c-2.555603,-2.584442 -4.632263,-8.64624 -7.312378,-21.395447c-3.115906,-14.827789 -2.526489,-23.716705 2.322632,-36.345154c2.704224,-7.044037 2.684204,-9.185516 0.125488,-21.396423c-2.751404,-13.130432 -4.827026,-27.108521 -4.142212,-27.780426c0.56842,-0.557007 13.004089,-2.115845 13.713013,-1.719025c0.25708,0.14444 2.108826,3.102112 4.142212,6.538208c2.034485,3.436035 6.144531,10.304321 9.131958,15.25708c9.319702,15.450592 9.119934,14.872009 8.692139,23.114502c-0.283203,5.468445 -1.058411,9.755249 -3.389099,18.694153c-5.816162,22.306061 -7.678894,35.33728 -8.566589,59.644257l-0.314331,8.840637l1.695068,0c1.523315,0 1.668884,-0.194489 1.286316,-1.688538c-0.236938,-0.925323 -0.555298,-2.60611 -0.721985,-3.714111c-0.246033,-1.640472 0.005005,-1.369385 1.349609,1.41156c1.54541,3.195343 1.776367,3.411591 3.765625,3.223907c2.075684,-0.196533 2.127869,-0.299591 2.322632,-3.622711c0.173767,-2.981323 0.437866,-3.471527 1.914001,-4.021545c0.92688,-0.344849 2.643005,-0.463684 3.827881,-0.245483c1.746277,0.321228 2.195129,0.193512 2.448181,-0.767212c0.216919,-0.827148 0.354492,-0.67392 0.407715,0.521576c0.046204,1.031342 0.701965,2.176758 1.695007,2.885925c0.907776,0.648438 2.664124,3.072693 3.85907,5.372223c2.04248,3.927216 2.310608,4.197357 4.644287,4.388916c1.861755,0.15329 2.874939,-0.177826 4.048828,-1.25827c1.556519,-1.433167 2.287537,-0.889984 0.784241,0.583466c-0.612488,0.600159 0.63562,0.797638 5.585205,0.797638c5.489807,0 6.525146,-0.179749 7.65686,-1.288788c2.53656,-2.486145 0.72699,-8.012573 -2.792603,-8.502808c-0.935913,-0.130737 -1.529358,-0.702301 -1.662964,-1.627655c-0.195801,-1.349701 0.030212,-1.442017 3.389099,-1.442017c5.595276,0 5.724792,-0.167023 4.204468,-4.083435c-1.807495,-4.657135 -5.539001,-18.214874 -7.029175,-25.508362c-1.557495,-7.623566 -2.356812,-15.050781 -3.640137,-33.459991c-1.195923,-17.166779 -2.691162,-31.341278 -3.671265,-34.994446c-1.415833,-5.277924 -12.738892,-28.611511 -21.244263,-43.773285c-1.190918,-2.122742 -2.385925,-5.32309 -2.635986,-7.091187c-0.81134,-5.732697 -5.389404,-22.302124 -8.755371,-31.618256c-5.381348,-14.89267 -8.710205,-29.813812 -9.696289,-43.558167l-0.376587,-5.218903l3.891174,5.801422c6.818359,10.169769 13.962036,18.135193 24.162415,26.952332c10.566956,9.133484 16.293762,16.106812 24.257813,29.468994c2.477356,4.156128 4.84314,7.550964 5.239807,7.550964c0.396667,0 1.17688,-0.918488 1.726135,-2.056c0.928833,-1.923309 1.022278,-0.742584 1.380737,16.576324l0.407715,18.601807l2.919128,11.603973c4.194397,16.60376 4.668457,20.975037 4.016663,36.498291c-0.301208,7.157074 -0.464844,25.591827 -0.376526,40.98053l0.156616,27.995575l5.648499,2.393799c3.116943,1.32608 6.056152,2.425323 6.5271,2.425323c1.223083,0 1.0755,0.911499 -0.721985,4.389923c-2.333679,4.514587 -3.848999,10.212006 -3.420227,12.800385c0.761169,4.59906 5.218689,7.244385 12.237854,7.244385c5.34021,0 8.592712,-1.112976 10.167297,-3.468506c0.9599,-1.436127 1.043274,-2.519653 0.53418,-8.258179c-0.322327,-3.631531 -0.477966,-9.002747 -0.345459,-11.940826c0.22699,-5.047089 0.322388,-5.392792 1.914001,-5.986084l1.695007,-0.613983l-0.439819,-6.568634c-0.914795,-13.867157 -3.684326,-40.886292 -4.644287,-45.33902c-0.552307,-2.562836 -1.437988,-7.942932 -1.977234,-11.97226c-0.889648,-6.654114 -0.899719,-7.603943 0.063293,-10.375031c0.818359,-2.355652 1.000183,-4.524445 0.721985,-9.486053c-0.263062,-4.667999 -0.108459,-7.123718 0.564331,-8.993958c1.25824,-3.496094 1.174866,-5.550964 -0.376526,-8.533234c-1.437988,-2.765228 -1.757324,-9.949707 -0.68988,-16.054749c0.309326,-1.769073 0.942932,-8.251251 1.411865,-14.396576l0.878662,-11.173645l1.851685,2.148285c2.918091,3.380066 7.419861,13.040039 9.696289,20.812958c2.37384,8.105927 3.867981,12.268005 6.08728,16.422119l0,-225.498718c-0.552307,-0.203323 -1.100647,-0.010803 -1.882813,0.398819c-0.930847,0.488205 -4.101013,3.220947 -7.060364,6.078445c-7.485046,7.22583 -10.405212,13.273834 -8.284424,17.158844c0.663818,1.216064 7.931885,5.063721 9.570801,5.065689c0.825439,0 0.73999,6.032303 -0.125549,10.773895l-0.469971,2.732727l2.070618,0c1.227173,0 1.932983,0.267242 1.695068,0.644394c-0.222961,0.353622 -1.35968,0.643433 -2.510437,0.644409c-5.795105,0.006897 -8.515381,4.540192 -11.956665,19.922012c-2.359802,10.55188 -5.30603,18.233459 -10.167236,26.368866c-0.950989,1.592346 -4.048828,6.957657 -6.871582,11.910416c-2.823669,4.952728 -7.18689,12.304291 -9.697266,16.361145c-6.693848,10.819031 -6.963989,12.784637 -1.59967,12.064575l2.949219,-0.430206l-0.313293,3.039215c-0.163635,1.667023 -0.379578,3.377136 -0.502075,3.77594c-0.335388,1.081543 -9.31366,1.671936 -13.462952,0.890015c-1.984253,-0.374268 -5.215637,-1.48822 -7.185852,-2.45578c-3.937378,-1.934113 -11.430481,-8.754242 -15.626953,-14.273804c-3.8349,-5.044098 -10.486572,-15.913223 -14.560486,-23.790298c-4.675476,-9.039093 -8.919067,-15.279678 -11.23468,-16.453537c-1.221069,-0.618851 -4.835083,-1.119827 -10.104004,-1.381104c-4.514771,-0.22496 -8.222168,-0.64537 -8.222168,-0.951859c0,-0.306473 1.508301,-2.451782 3.357971,-4.75824c1.849731,-2.306458 3.218384,-4.340805 3.04364,-4.51268c-0.174744,-0.170929 -4.546936,1.554993 -9.727417,3.837814c-5.181519,2.281876 -9.615967,4.04216 -9.853943,3.897781c-0.237976,-0.143402 -0.369507,-1.848694 -0.313354,-3.774994c0.086365,-3.00679 0.344482,-3.702255 1.914001,-4.911499c1.797485,-1.386993 1.874756,-1.362411 4.047791,-0.215118c1.80249,0.950897 2.512451,1.000946 3.860046,0.398834c3.941345,-1.760284 5.214661,-9.471298 2.479309,-15.010544l-1.412842,-2.854568l1.914917,-4.482224c1.050415,-2.460648 2.533569,-7.207108 3.325867,-10.529251c1.413879,-5.93013 1.438965,-6.122711 0.31427,-10.928101c-1.444946,-6.17276 -3.512573,-9.98114 -8.127747,-14.980057c-4.644348,-5.029358 -9.559692,-8.125549 -13.650757,-8.62558c-1.722107,-0.21019 -5.059998,-0.923386 -7.405762,-1.565781c-2.345764,-0.641464 -6.714905,-1.352646 -9.696289,-1.564804c-4.757751,-0.338882 -6.025024,-0.166031 -10.481567,1.319214c-3.697388,1.232819 -5.850281,2.418411 -7.907837,4.359451c-2.950256,2.782867 -7.843567,9.79744 -11.013794,15.839584c-1.40686,2.680695 -1.924988,3.227844 -2.13385,2.271088c-0.592468,-2.714096 0.463928,-11.807266 1.819519,-15.77771c1.326538,-3.883026 1.411926,-5.820114 0.376587,-8.441879c-0.280151,-0.708252 0.025146,-1.146332 0.941895,-1.381119c0.740112,-0.189575 1.546448,-0.854599 1.788452,-1.473465c0.703918,-1.797623 -0.982056,-6.89473 -2.792603,-8.472321c-1.798462,-1.566742 -4.779846,-1.927261 -6.025024,-0.706268c-1.597656,1.565781 -1.52832,-0.165001 0.187744,-5.217995c1.68103,-4.948792 1.777405,-7.091217 0.376587,-7.091217zm-419.80658,101.0541c-0.015045,0.066772 -0.01606,0.121811 0.031136,0.122772c0.059235,0.001038 0.036133,-0.05304 -0.031136,-0.122772zm395.644165,-50.680771c0.017029,-0.016663 0.076294,-0.008804 0.156647,0c1.206024,0.135559 9.025543,3.03923 9.727448,3.653152c0.30426,0.265259 0.109436,1.161087 -0.438843,1.995056c-1.272278,1.932175 -2.623901,5.450806 -4.330994,11.23555c-0.750183,2.544189 -2.528564,6.278885 -3.984558,8.37999c-1.442047,2.079544 -3.235504,5.589294 -3.985565,7.796539c-0.750122,2.207245 -1.622772,4.163971 -1.946075,4.359421c-0.322388,0.195526 -0.901825,1.515717 -1.286346,2.916458c-0.384674,1.399765 -0.962006,2.547119 -1.286346,2.547119c-0.324341,0 -1.565552,0.993088 -2.761475,2.210159c-1.38382,1.408646 -3.078857,2.366348 -4.644318,2.640427c-2.814667,0.492142 -3.26355,-0.089417 -0.784271,-1.012756c1.834656,-0.684631 3.800842,-4.464539 3.169189,-6.078476c-0.253052,-0.646378 0.985046,-2.500946 3.514618,-5.310318c2.149902,-2.388947 4.674438,-5.553909 5.61731,-7.029327c4.161285,-6.518524 5.794098,-16.522308 3.953461,-24.281464c-0.49411,-2.085403 -0.813446,-3.900726 -0.68988,-4.02153zm26.265137,13.936859c0.234985,0 0.604492,1.4617 0.847534,3.253387c0.242004,1.791687 0.821411,3.626648 1.286316,4.082428c0.464966,0.455795 1.304443,1.880127 1.851746,3.162033c1.366699,3.206207 6.306213,8.239517 10.982605,11.17366c3.170166,1.989182 3.81488,2.699341 3.483459,3.745499c-0.724976,2.286789 -1.102539,8.549973 -0.658691,10.866211c0.55127,2.88501 3.332886,6.169815 5.239746,6.169815c3.243469,0 5.648499,-4.429169 5.648499,-10.405518l0,-3.83783l2.730347,2.272049c1.512268,1.268158 4.345093,2.810394 6.276062,3.407608l3.514587,1.073669l-0.21991,4.236633l-0.156616,4.205231l-13.148621,0.706284c-7.217041,0.394913 -13.257141,0.751465 -13.430847,0.797638c-0.172729,0.047119 2.147888,1.596222 5.146423,3.438034l5.460632,3.377136l-2.259338,0.767212c-6.475891,2.197388 -11.675537,6.164917 -14.027344,10.712967c-1.308411,2.531387 -1.813477,4.802444 -2.259338,10.068573c-0.591492,6.993973 -3.165161,36.302811 -4.895386,55.684586c-1.336548,14.976166 -1.294373,14.81601 -4.39325,18.110657c-3.598938,3.827026 -7.097473,5.750397 -13.305298,7.306366c-2.826721,0.708221 -5.269897,1.409546 -5.428528,1.565735c-0.15863,0.155243 0.83844,0.732849 2.196106,1.288818c1.357666,0.555939 2.322632,1.105103 2.166016,1.258331c-0.157654,0.154205 -2.794617,0.820221 -5.868408,1.473419l-5.586182,1.197418l-5.930664,-6.139343c-8.414001,-8.701202 -8.143829,-8.039154 -5.08313,-12.953613c15.002319,-24.096802 22.856018,-47.852692 21.683105,-65.538025c-0.221924,-3.360458 -1.249207,-11.153046 -2.290527,-17.343506c-1.815491,-10.795486 -1.847595,-11.320007 -0.753113,-12.862244c0.628601,-0.88504 1.740295,-2.790695 2.479309,-4.205231c0.738037,-1.415451 2.352783,-3.673782 3.609009,-5.003815c1.69104,-1.792709 2.580688,-3.580521 3.420166,-6.937973c0.62262,-2.492081 2.083679,-6.472366 3.263611,-8.840698c1.179871,-2.367325 2.37384,-5.591278 2.635925,-7.182587c0.262085,-1.59227 0.881653,-3.679688 1.380737,-4.635483c0.498108,-0.954773 0.90979,-2.865356 0.90979,-4.235672c0,-1.774002 0.425781,-2.903671 1.506287,-3.898758c0.835449,-0.76915 1.742188,-1.381104 1.977173,-1.381104zm-171.839081,9.914368c0.93689,-0.183701 2.162994,5.540161 1.443024,8.349533c-0.433838,1.696426 -2.551636,2.309402 -3.389099,0.9823c-0.364563,-0.578552 0.311218,-4.441925 1.475128,-8.563705c0.139557,-0.495041 0.297241,-0.73378 0.470947,-0.768127zm-96.431732,3.223877c0.531189,-0.069717 2.008331,1.006882 4.110107,3.007813c5.425476,5.162949 9.239319,7.916382 21.182007,15.348434l10.574951,6.569626l-1.1297,1.719009c-6.942902,10.538147 -18.662567,20.628342 -31.097229,26.798187l-3.609009,1.779892l2.290527,0.951859c1.254242,0.507889 5.412506,1.440994 9.257477,2.087387c3.84494,0.646362 9.987488,2.190521 13.650696,3.438049c13.130554,4.472382 35.839935,12.88385 36.212524,13.414276c0.633606,0.901733 -0.576447,7.830872 -2.03949,11.664825c-0.757172,1.982269 -2.533539,5.313263 -3.954437,7.398621c-1.419952,2.084473 -2.96936,4.070709 -3.420197,4.42038c-1.678986,1.302521 -12.269012,-1.555969 -21.871918,-5.925232c-8.226196,-3.742554 -13.174744,-7.191376 -18.23175,-12.708008c-8.913025,-9.722839 -12.535126,-15.595001 -15.156982,-24.434692c-0.821411,-2.770111 -2.224274,-6.083389 -3.075775,-7.336777c-2.454224,-3.615814 -7.892883,-7.04216 -14.717194,-9.27002c-3.763687,-1.229858 -6.181702,-2.35257 -6.181702,-2.885971c0,-0.481339 1.252151,-1.838882 2.761475,-3.007813c1.508224,-1.169907 4.066895,-3.339798 5.679611,-4.850586c1.916962,-1.794693 3.315781,-2.62178 4.047836,-2.39389c0.616501,0.191559 1.622696,0.135559 2.228271,-0.092331c2.76651,-1.041229 4.036804,-8.168777 1.977203,-11.050873c-0.928894,-1.299576 -0.910767,-1.750443 0,-4.819153c1.124695,-3.792633 2.598816,-5.429153 6.934845,-7.551926c1.623688,-0.794693 3.162109,-1.784851 3.420197,-2.179688c0.03717,-0.05603 0.081299,-0.081558 0.157654,-0.0914zm333.291016,1.350693c0.491089,-0.025558 0.937927,0.66301 1.788452,2.547104c1.624695,3.600098 1.476135,8.834824 -0.313293,11.511551c-1.273315,1.904709 -4.341064,2.287766 -5.680603,0.706284c-0.661743,-0.781937 -0.538269,-1.548111 0.53418,-4.02153c0.728088,-1.679764 1.507324,-4.545105 1.757324,-6.384949c0.250061,-1.838882 0.869629,-3.69838 1.380737,-4.1129c0.189819,-0.155151 0.369568,-0.237717 0.533203,-0.24556zm-44.716797,10.590164c0.130493,0 1.456055,0.581497 2.949219,1.288773c1.494263,0.708252 3.018555,1.289749 3.357971,1.289749c0.880676,0 1.411865,1.651276 1.411865,4.389893c0,3.338837 -1.047302,6.501862 -2.730347,8.257217c-1.745239,1.821213 -1.915955,1.816284 -3.95343,0.245575c-2.929138,-2.258301 -4.062866,-8.925171 -2.228271,-13.230576c0.523193,-1.226929 1.061462,-2.240631 1.192993,-2.240631zm-299.965546,2.455734c0.579437,0.03244 1.247131,2.336914 1.255219,4.696396c0.006989,2.040253 -0.414764,3.470474 -1.349609,4.635452c-1.340622,1.670898 -2.851913,2.198425 -3.483505,1.197433c-0.279175,-0.44397 2.636002,-9.541092 3.326859,-10.376022c0.077271,-0.094315 0.167664,-0.158173 0.251038,-0.153259zm-141.11747,5.095215c0.027122,0 0.039169,0.001968 0.062241,0c0.066284,0.155212 0.080353,0.312363 0.063286,0.49115c-0.32637,-0.240662 -0.316322,-0.49115 -0.125526,-0.49115zm-12.018936,24.742157c-0.073303,0.314362 -0.115501,0.574661 -0.156662,0.797668c-0.024086,-0.346786 0.010025,-0.636581 0.156662,-0.797668zm456.804344,25.04866c0.046204,-0.015717 0.078308,-0.00885 0.125488,0c0.173767,0.03241 0.364563,0.221985 0.565369,0.552063c0.32135,0.531403 2.417053,3.271057 4.675415,6.07843c8.584656,10.671722 14.242249,20.043854 14.87384,24.741211c0.754089,5.608948 -10.293762,27.024048 -18.545105,35.976715c-2.239258,2.429291 -4.381165,3.359467 -5.115234,2.179718c-2.85791,-4.590271 -2.377869,-27.443481 1.286316,-58.845642c0.86969,-7.453705 1.449036,-10.452667 2.133911,-10.682495zm-46.254272,82.8815c1.148865,-0.048126 2.369873,0.100189 2.635986,0.521637c0.189819,0.302521 -0.33136,1.169891 -1.161804,1.934113c-1.462158,1.346771 -1.542419,1.364471 -2.603882,0.215118c-0.602478,-0.653198 -1.098511,-1.519623 -1.098511,-1.934113c0,-0.43222 1.07843,-0.688599 2.22821,-0.736755zm-348.385773,115.665771c0.012085,-0.010712 0.018082,-0.007843 0.031143,0c0.036163,0.019684 0.084335,0.090332 0.125519,0.245575c0.165695,0.618866 0.165695,1.652283 0,2.271088c-0.164688,0.619843 -0.313278,0.102203 -0.313278,-1.135529c0,-0.812439 0.070297,-1.309387 0.156616,-1.381134zm-34.424026,3.959686l2.792587,0c4.918442,0.017639 5.162476,1.110962 0.909775,4.328033c-2.944199,2.227783 -3.702362,1.866364 -3.702362,-1.872284l0,-2.45575zm170.050674,31.52597l1.380737,3.376129c0.774231,1.857574 1.724152,3.577515 2.101776,3.83783c0.37851,0.259338 2.072571,0.454803 3.765625,0.459747l3.075775,0.031403l1.913971,-3.868286l1.882813,-3.836823l-5.742859,1.934113l-8.377838,-1.934113z" transform="rotate(0.0903135)" fill="black" id="path7293"/>
  </g>
 </g>
</svg>