<?xml version="1.0" encoding="UTF-8"?>
<!DOCTYPE svg PUBLIC "-//W3C//DTD SVG 1.1//EN" "http://www.w3.org/Graphics/SVG/1.1/DTD/svg11.dtd">
<!-- Creator: CorelDRAW -->
<svg xmlns="http://www.w3.org/2000/svg" xml:space="preserve" width="210mm" height="297mm" style="shape-rendering:geometricPrecision; text-rendering:geometricPrecision; image-rendering:optimizeQuality; fill-rule:evenodd; clip-rule:evenodd" viewBox="0 0 210 297" xmlns:xlink="http://www.w3.org/1999/xlink">
 <defs>
  <style type="text/css">
   <![CDATA[
    .fil62 {fill:#010105}
    .fil3 {fill:#020202}
    .fil14 {fill:#039EC6}
    .fil15 {fill:#050505}
    .fil18 {fill:#050707}
    .fil4 {fill:#075252}
    .fil20 {fill:#09758D}
    .fil60 {fill:#0A0102}
    .fil25 {fill:#0A0A0A}
    .fil28 {fill:#0A8996}
    .fil24 {fill:#0E9247}
    .fil29 {fill:#100E11}
    .fil57 {fill:#150306}
    .fil2 {fill:#1778B8}
    .fil30 {fill:#28AB52}
    .fil55 {fill:#290D12}
    .fil53 {fill:#31112A}
    .fil59 {fill:#352C2E}
    .fil13 {fill:#3965A6}
    .fil54 {fill:#4A1831}
    .fil58 {fill:#4E2836}
    .fil56 {fill:#542B4C}
    .fil42 {fill:#6294AA}
    .fil0 {fill:#695623}
    .fil36 {fill:#6A4F65}
    .fil17 {fill:#6CAFD9}
    .fil61 {fill:#6D324F}
    .fil49 {fill:#6D4793}
    .fil47 {fill:#75459B}
    .fil46 {fill:#963D97}
    .fil40 {fill:#987157}
    .fil43 {fill:#9D5EA6}
    .fil26 {fill:#AC5926}
    .fil45 {fill:#BAD433}
    .fil16 {fill:#BB3C97}
    .fil33 {fill:#BBD538}
    .fil51 {fill:#C2752F}
    .fil39 {fill:#C47834}
    .fil37 {fill:#C8C8C8}
    .fil41 {fill:#CFDBE4}
    .fil27 {fill:#D26C28}
    .fil31 {fill:#D6E09C}
    .fil38 {fill:#D8D8D8}
    .fil23 {fill:#D9E468}
    .fil21 {fill:#D9E475}
    .fil34 {fill:#E26C52}
    .fil44 {fill:#E8E8E8}
    .fil50 {fill:#EAB724}
    .fil12 {fill:#EB752B}
    .fil52 {fill:#EC74AB}
    .fil1 {fill:#ECB71D}
    .fil11 {fill:#ED4C2B}
    .fil9 {fill:#ED9150}
    .fil22 {fill:#F38429}
    .fil32 {fill:#F3B812}
    .fil19 {fill:#F57E21}
    .fil5 {fill:#F5B393}
    .fil6 {fill:#F8EBF1}
    .fil8 {fill:#FBCEB3}
    .fil7 {fill:#FBE5C9}
    .fil35 {fill:#FBF5D8}
    .fil10 {fill:#FBFCFB}
    .fil48 {fill:#FDCB06}
   ]]>
  </style>
 </defs>
 <g id="        _x0020_1">
  <metadata id="CorelCorpID_0Corel-Layer"/>
  <g id="_337175360">
   <path id="_64811456" class="fil0" d="M43.6574 140.582c-0.7412,0.6442 -5.986,3.4745 -7.4267,4.3949 -1.1279,0.7206 -6.9458,4.0029 -8.0137,3.3253l-0.2754 0.7172 -6.2386 0.4891 -1.1531 0.3029 -1.9833 1.8684c0,5.5777 -3.429,5.9263 -4.1014,8.444 1.6221,-0.4331 3.1998,-4.1014 4.5839,-4.1014 0.7818,0 1.4476,1.0485 1.4476,1.9301 0,2.3225 -0.965,3.4501 -0.965,5.0664l0 1.4476c0,0.5408 0.1909,0.5296 0.4825,0.965 0,3.8622 0.6975,6.8588 1.5886,9.9917 0.3902,1.3724 2.0303,8.57 2.0303,9.5501l0 0.2412c0,3.5707 -3.8602,4.6239 -3.8602,6.7552 0,1.6397 2.6539,2.9499 2.6539,7.7203l0 1.93 0.4824 0 0 -5.0664c0,-0.3948 0.1445,-0.7237 0.4826,-0.7237 4.6683,0 4.3994,7.2377 7.9615,7.2377l5.0664 0c1.5621,0 2.6191,-0.6132 2.6538,-2.1713 -3.3443,0 -6.2006,-0.8706 -6.9051,-3.7102 -0.7062,-2.8464 -1.6291,-5.5726 -2.4964,-8.3602 -0.9147,-2.9404 -2.0856,-4.4351 -2.4274,-8.1879 -0.2839,-3.1166 -0.9578,-6.8014 -0.9578,-9.8989l0.1023 -0.6032 1.104 -1.0856c-1.3826,-2.0648 -1.8871,-0.9673 -1.9217,-4.8334 -0.0305,-3.3967 -0.7907,-2.3885 0.8754,-5.3807 2.3295,-4.1833 0.6043,-5.1951 5.8656,-7.8861 4.4854,-2.2941 16.9595,-4.8039 20.0302,-7.473 -1.3205,-2.0813 0.2875,-2.2686 -2.6538,-4.8252 -2.9077,0 -3.9427,1.4434 -6.0314,1.9301z"/>
   <path id="_64811312" class="fil1" d="M27.4931 72.3064c0.9817,-0.3778 0.2413,0.1167 0.2413,-1.2063l0 -0.4825c0,-0.829 1.108,-1.3815 1.6888,-1.6888 4.7038,-3.2685 8.9265,-4.6235 9.0259,-12.886l1.8307 2.0294c0.4066,-0.2826 0.4825,-0.0346 0.4825,-0.7238l0 -0.4825c0,-3.17 -2.801,-6.2727 -5.7902,-6.2727l-4.8251 0c-0.3209,0.7951 -2.082,0.7061 -3.2425,1.1001 -1.2181,0.4136 -2.1367,0.6798 -3.0324,1.3103 -1.2487,0.879 -3.6167,3.3062 -3.6167,5.3099l0 1.93c0,1.9713 2.4796,4.4835 3.3894,5.7784 0.6219,0.885 0.5505,2.0126 1.2752,3.3087 0.739,1.3222 1.0882,1.8391 1.8494,2.9758l0.7237 0z"/>
   <path id="_337175624" class="fil2" d="M18.3254 81.4741c2.321,1.2281 3.3776,0.7802 3.3776,4.5839l0.6993 -0.0514 3.1608 0.2927c1.7881,-1.2425 4.3865,-1.9603 7.2358,-2.1732 1.374,-0.1027 3.4497,-0.2468 4.58,-0.2452 2.3717,0.0032 2.5579,-0.4767 4.3993,-0.4592l0.6729 -1.7063 -1.2063 -0.965 0 1.4476c-0.541,0.126 -0.5546,0.2412 -1.2062,0.2412l-3.1364 0c-1.4047,0 -3.475,-0.9242 -5.3077,-0.9651 0,-4.5309 -1.5458,-4.6541 -2.1713,-6.9964l-1.6888 -0.7238c-2.9699,0 -4.4506,-0.0741 -6.4228,1.0561 -1.1429,0.655 -3.2275,2.6813 -3.2275,4.2516l0 0.965c0,0.5409 0.191,0.5296 0.5032,0.9778l-0.2619 0.4697zm19.3006 -3.6188l0 -1.6888c-0.8483,-1.2667 -1.9121,-2.733 -3.8602,-2.8951l3.8602 4.5839z"/>
   <path id="_64810952" class="fil2" d="M21.2205 112.838l1.2063 1.6888c2.8788,1.9278 5.9293,4.3426 10.8565,4.3426l4.1014 0c0.5409,0 0.5296,-0.1909 0.965,-0.4825l-1.4445 -2.1699 1.4445 -2.8965 0 -1.2063c-0.4354,0.2916 -0.4241,0.4825 -0.965,0.4825l-2.1713 0c-3.6337,0 -6.5129,-2.888 -8.6853,-4.3426l0.2413 -0.4825 -0.965 0c-0.5299,1.0013 -3.2354,2.5178 -4.5839,5.0664z"/>
   <path id="_337175096" class="fil3" d="M47.2762 136.24l4.1406 1.8391 -1.728 0.5734c2.9413,2.5566 1.3333,2.7439 2.6538,4.8252 1.3714,-0.3195 6.7552,-2.344 6.7552,-3.6189l0 -2.8951c0,-2.1243 -3.5504,-5.6944 -4.5839,-7.2377 -0.7533,0.3041 -3.2291,5.9475 -6.9964,6.0314l-0.2413 0.4826zm-24.8494 -21.7132l-1.2063 -1.6888 -0.7238 2.1713 0 2.8951 -1.9301 2.1713c-1.1181,1.6697 -4.5687,9.4442 -5.0664,11.5804 1.0328,0.2757 0.7238,0.3463 0.7238,1.6887 2.3212,1.5544 1.3351,0.4997 3.1374,0.7154l6.9954 0.9735c0.2348,1.0078 0.4467,2.4126 1.6888,2.4126l1.1228 -0.0522 0.566 -0.9129c3.4023,0 3.3791,-1.6888 6.514,-1.6888l0.965 0c1.2634,0 2.4875,1.6888 3.8601,1.6888 2.2047,0 8.045,-1.1723 9.4609,-1.8782 1.3984,-0.6972 4.7306,-4.6513 4.7732,-6.5658 -1.3782,-2.0582 -4.4264,-4.2652 -6.8365,-5.4676 -1.6096,-0.803 -2.569,-1.1654 -4.2919,-1.7394 -3.529,-1.1757 -1.9096,-1.1577 -3.8295,-2.4433 -0.4354,0.2916 -0.4241,0.4825 -0.965,0.4825l-4.1014 0c-4.9272,0 -7.9777,-2.4148 -10.8565,-4.3426zm-12.7867 -16.888c0.919,-1.9152 0.4857,-3.0524 2.4126,-4.3427l0.7238 0c0.1326,-0.1979 3.6976,-3.6247 4.0563,-3.9051 0.8663,-0.677 1.4478,-1.3517 2.2103,-1.8911 0.9364,-0.6626 1.8811,-0.7646 2.6599,-1.4415 0,-3.8037 -1.0566,-3.3558 -3.3776,-4.5839 -2.0213,3.0185 -11.5804,9.5451 -11.5804,13.7517l0 0.7238c0,0.7105 2.335,1.5392 2.8951,1.6888zm0.9651 0.2412l4.3426 0.2413 0.4825 0 9.409 -0.4825c0.4341,-0.3773 0.7238,-0.2884 0.7238,-0.9651l0 -0.965c0,-0.58 -0.3909,-0.7092 -0.7238,-1.2063 -3.3259,0 -9.7355,0.2772 -11.8216,-0.7237l-0.8901 -0.0677 -1.5224 4.169zm14.9579 -11.5803c1.1237,0.8233 4.6699,6.3368 4.8252,8.2027l-3.1364 0 0.9651 2.6539 3.7032 1.5171c-0.0844,2.5219 0.5765,1.7356 -0.7595,3.8392 -0.5279,0.8313 -0.7914,2.504 -1.7375,2.8464l0 0.4826 0.4825 0 -3.1363 1.93 -0.2413 0.4825c2.1724,1.4546 5.0516,4.3426 8.6853,4.3426l2.1713 0c0.5409,0 0.5296,-0.1909 0.965,-0.4825 1.4451,-3.0116 4.8252,-10.2381 4.8252,-14.2342l0.0618 -4.5887 -0.3031 -4.3378c0.6564,-0.9802 1.9301,-1.5107 1.9301,-2.8951l0 -1.2063c0,-1.5436 -1.3722,-2.5858 -2.4126,-3.1363l-0.6729 1.7063c-1.8414,-0.0175 -2.0276,0.4624 -4.3993,0.4592 -1.1303,-0.0016 -3.206,0.1425 -4.58,0.2452 -2.8493,0.2129 -5.4477,0.9307 -7.2358,2.1732zm3.8601 -17.3705l-0.7238 3.8601 -0.965 0.965 1.6888 0.7238c0.6255,2.3423 2.1713,2.4655 2.1713,6.9964 1.8327,0.0409 3.903,0.9651 5.3077,0.9651l3.1364 0c0.6516,0 0.6652,-0.1152 1.2062,-0.2412l0 -1.4476 -3.6188 -2.8951 -3.8602 -4.5839 -0.0132 -3.1027 1.9433 0.6901c0.35,-0.2343 3.341,-4.3396 3.7057,-4.9796 0.9567,-1.679 0.8782,-5.3309 0.8782,-7.807l-1.8307 -2.0294c-0.0994,8.2625 -4.3221,9.6175 -9.0259,12.886zm-7.7202 80.5799l6.2386 -0.4891 0.2754 -0.7172 2.895 -11.5804c-1.6207,0.0362 -1.3939,0.7239 -2.6538,0.7239l-0.9651 0c-0.1099,0.4115 -0.2802,0.965 -0.7237,0.965 -0.9996,0 -2.4126,-0.2125 -2.4126,-1.2063l0 -0.965 -2.6538 -0.7239 0 13.993z"/>
   <path id="_64810376" class="fil4" d="M13.5002 131.656l-0.2774 0.4704 0.76 0.7359 -0.2413 1.2063c0.3216,0.4801 1.4632,1.4474 2.1713,1.4474 0.1441,0 0.5005,-0.3329 0.7214,-0.4609l5.0688 0.4609 2.6538 0.7239 0 0.965c0,0.9938 1.413,1.2063 2.4126,1.2063 0.4435,0 0.6138,-0.5535 0.7237,-0.965l0.9651 0c1.2599,0 1.0331,-0.6877 2.6538,-0.7239 0.5522,-0.7537 2.1107,-0.965 3.3776,-0.965 1.9573,0 2.1654,1.6889 6.7552,1.6889l5.5617 -1.4682 0.4697 0.2619 0.2413 -0.4826c3.7673,-0.0839 6.2431,-5.7273 6.9964,-6.0314l-1.2063 -1.6888c-0.0426,1.9145 -3.3748,5.8686 -4.7732,6.5658 -1.4159,0.7059 -7.2562,1.8782 -9.4609,1.8782 -1.3726,0 -2.5967,-1.6888 -3.8601,-1.6888l-0.965 0c-3.1349,0 -3.1117,1.6888 -6.514,1.6888l-0.566 0.9129 -1.1228 0.0522c-1.2421,0 -1.454,-1.4048 -1.6888,-2.4126l-6.9954 -0.9735c-1.8023,-0.2157 -0.8162,0.839 -3.1374,-0.7154 0,-1.3424 0.309,-1.413 -0.7238,-1.6887z"/>
   <path id="_64810088" class="fil5" d="M24.8393 94.502c0.3329,0.4971 0.7238,0.6263 0.7238,1.2063l0 0.965c0,0.6767 -0.2897,0.5878 -0.7238,0.9651l0.2412 0.4825 1.2063 0c1.1829,0 1.1076,-0.6673 1.9302,-0.965l-0.9651 -2.6539 -2.4126 0z"/>
   <path id="_64809440" class="fil6" d="M27.4931 72.3064l1.2063 0.4825 0.7238 -3.8601c-0.5808,0.3073 -1.6888,0.8598 -1.6888,1.6888l0 0.4825c0,1.323 0.7404,0.8285 -0.2413,1.2063z"/>
   <g>
    <path id="_64811024" class="fil7" d="M12.0527 103.187l1.2063 0c-0.9555,0.8305 -2.1299,1.2769 -2.1714,3.1363l-0.2412 6.7552 1.1306 -5.5652c0.2961,0.1639 0.7995,0.4091 0.7995,0.7401 0,0.6019 -1.4765,4.6375 -1.6889,5.5489l-0.2412 1.6888 2.4148 -6.1266 0.239 0.0952c0.1595,0.6845 0.2413,0.4124 0.2413,0.965 0,0.5235 -2.49,5.0246 -2.8951,5.7902l0.4825 0 2.753 -4.2774 0.3833 -0.0652 0.2499 1.2041 -3.1449 3.3798 -0.4826 0.965 4.0252 -2.996 0.0763 2.031 -4.1015 1.4475 -0.2412 0.4825 4.5726 -0.7873 0.0113 1.7523 -4.5839 -0.4825 0 0.2412 4.5603 1.7484 0.0236 1.6293 -4.5839 -2.8951 0 0.4825c0.6389,0.3381 4.1014,3.3043 4.1014,3.8601 0,0.9086 -0.1588,0.4562 -0.2413,1.4476l-3.1363 -4.1014 -0.2413 0.2412c0.3065,0.5793 2.8951,4.6404 2.8951,4.8252 0,0.9086 -0.1588,0.4562 -0.2412,1.4475l-2.8952 -6.0314c-0.535,0.8617 2.1488,5.3339 1.9301,7.9615l-0.4825 0 -1.8353 -7.0223 1.1116 7.9873 -0.299 0.7849 1.264 1.3865 -0.965 0 2.1713 0 -0.76 -0.7359 0.2774 -0.4704c0.4977,-2.1362 3.9483,-9.9107 5.0664,-11.5804 0,-2.7708 -0.0261,-5.303 -0.233,-7.7285 -0.1805,-2.1171 -1.697,-5.4186 -1.697,-6.2644l0 -0.7238 -0.4825 0 -0.7238 -7.2377 -0.4825 0 0.3019 5.5466 -1.7751 -0.6565 -1.4219 0.1763z"/>
    <path id="_64810664" class="fil8" d="M9.6401 97.6384c-0.6522,2.7998 -0.2764,7.6307 -1.3803,9.9587 -1.0732,2.2631 -1.756,6.3235 -1.756,9.5831l0 1.4476c0,2.8667 0.5833,6.1795 1.1986,8.4516 0.2466,0.9107 1.0509,2.4009 1.5273,3.2978 0.7725,1.4542 2.1006,1.828 2.5818,2.4848l0.965 0 -1.264 -1.3865 0.299 -0.7849c-1.2448,-0.5024 -1.013,-4.1519 -1.2543,-5.7422 -0.2699,-1.7789 -0.9171,-3.564 -0.9171,-5.8382l0 -2.6537c0,-0.8936 0.3812,-4.1173 0.5789,-5.2114 0.2326,-1.2878 -0.133,-4.5172 0.8686,-4.9215 0.0415,-1.8594 1.2159,-2.3058 2.1714,-3.1363l-1.2063 0 -1.9239 0.9759 0.4764 -6.2836 1.5224 -4.169 0.8901 0.0677 -0.2412 -0.4826 -0.7238 0c-1.9269,1.2903 -1.4936,2.4275 -2.4126,4.3427z"/>
    <path id="_64810304" class="fil9" d="M11.8115 130.691l-1.1116 -7.9873 1.8353 7.0223 0.4825 0c0.2187,-2.6276 -2.4651,-7.0998 -1.9301,-7.9615l0.2413 -0.2413 0.2413 -0.2412 -0.7238 -1.2063 0 -0.4825 0 -0.4826 0 -0.2412 0 -0.4825 0.2412 -0.4825 0 -0.4825 0.4826 -0.965 -0.2413 -0.2413 -0.4825 0 0 -0.7238 0.2412 -1.6888 -0.2412 -0.7238 0.2412 -6.7552c-1.0016,0.4043 -0.636,3.6337 -0.8686,4.9215 -0.1977,1.0941 -0.5789,4.3178 -0.5789,5.2114l0 2.6537c0,2.2742 0.6472,4.0593 0.9171,5.8382 0.2413,1.5903 0.0095,5.2398 1.2543,5.7422z"/>
    <polygon id="_64810232" class="fil10" points="12.0527,103.187 13.4746,103.011 15.2497,103.667 14.9478,98.1209 10.6052,97.8796 10.1288,104.163 "/>
    <polygon id="_64810016" class="fil11" points="11.0876,117.421 11.0876,117.904 15.1891,116.457 15.1128,114.426 "/>
    <polygon id="_64809872" class="fil11" points="10.8464,118.387 10.8464,118.869 15.4303,119.352 15.419,117.599 "/>
    <path id="_64809800" class="fil11" d="M11.5702 121.282l3.1363 4.1014c0.0825,-0.9914 0.2413,-0.539 0.2413,-1.4476 0,-0.5558 -3.4625,-3.522 -4.1014,-3.8601l0.7238 1.2063z"/>
    <polygon id="_64809728" class="fil11" points="10.8464,119.593 15.4303,122.488 15.4067,120.859 10.8464,119.11 "/>
    <path id="_64809656" class="fil11" d="M10.8464 115.491l0 0.7238c0.4051,-0.7656 2.8951,-5.2667 2.8951,-5.7902 0,-0.5526 -0.0818,-0.2805 -0.2413,-0.965l-0.239 -0.0952 -2.4148 6.1266z"/>
    <path id="_64809584" class="fil12" d="M10.8464 113.079l0.2412 0.7238c0.2124,-0.9114 1.6889,-4.947 1.6889,-5.5489 0,-0.331 -0.5034,-0.5762 -0.7995,-0.7401l-1.1306 5.5652z"/>
    <polygon id="_64809512" class="fil11" points="11.3289,116.215 11.5702,116.457 14.7151,113.077 14.4652,111.873 14.0819,111.938 "/>
    <path id="_64809368" class="fil11" d="M11.3289 121.523l-0.2413 0.2413 2.8952 6.0314c0.0824,-0.9913 0.2412,-0.5389 0.2412,-1.4475 0,-0.1848 -2.5886,-4.2459 -2.8951,-4.8252z"/>
   </g>
  </g>
  <g id="_337176104">
   <path id="_64809200" class="fil13" d="M86.6029 95.9229c-0.1949,2.3416 -1.6408,4.386 -1.4476,7.479l0.2413 5.5489 -0.2413 0.965 0 2.6539c0,0.8192 0.2322,2.4996 -0.2412,2.895l0 1.4476 -0.2413 0.4825 -0.965 19.5418c1.1177,0.2604 3.0398,1.9374 5.0664,0.965l0 1.2063 0.2412 -1.4475 -0.2412 -4.8252c1.4077,-0.5681 0.6618,-3.5867 1.4475,-4.8251l1.4476 -8.6853 1.4476 -8.6853 0.2412 -0.7237 1.4475 -5.5489 1.2523 -3.1168 0.0868 -0.2845 3.2448 1.9538c4.3508,2.9134 7.9194,12.0231 10.5337,17.2107 1.5357,3.0473 3.2885,6.2402 4.5692,9.4238 1.5025,3.7348 3.4554,5.3324 4.439,9.554 2.6425,0 2.1988,-1.0039 3.8241,-1.4532l0.5185 -2.4069c-0.8709,-1.6459 -2.6839,-4.5051 -3.0835,-6.0843 -0.4427,-1.7497 -1.3846,-5.6818 -2.0137,-7.1541 -0.5345,-1.2509 -4.9897,-12.9889 -5.0356,-13.5412 -2.5749,-2.7144 -2.4826,1.1992 -3.428,-5.2572 -0.3238,-2.2115 -1.5538,-4.5733 -3.086,-5.5993l-0.038 0.2548 -17.3092 -2.5817c-0.5017,0.0842 -1.7345,0.6171 -2.6771,0.6381z"/>
   <path id="_64809128" class="fil3" d="M91.428 76.6223l-2.895 15.6817 9.6502 1.2063 6.7553 0.7238 0.4824 -0.9651 -1.3348 -7.4602c-0.2187,-2.4058 2.0586,-8.4906 2.0586,-12.3228 -0.2772,-0.8361 -0.9357,0.1606 -2.1637,0.49 -1.0728,0.2878 -1.7032,0.5143 -2.8489,0.77 -2.3145,0.5168 -3.8229,0.1714 -6.7485,0.1714 -0.5671,-0.4929 -1.3484,-0.4172 -2.1215,-0.818 -0.8893,-0.461 -1.309,-1.184 -1.5578,-1.096l0.7237 3.6189z"/>
   <path id="_64809056" class="fil14" d="M78.4001 117.636c-4.823,0 -4.5847,-1.1037 -4.5839,3.3776 0.0006,2.7502 -0.2412,4.8146 -0.2412,7.7203 0,4.8303 -0.1,10.8431 -0.4825,15.4405 0.4989,1.2358 3.9449,-0.0742 4.8488,-0.2176 1.3685,-0.2172 4.0789,-0.5263 5.0427,-0.9887l0.7238 -6.0315 0.965 -19.5418 -5.3094 0.2078 0.0017 1.7222 -0.965 0 0 -1.6888z"/>
   <path id="_64808984" class="fil15" d="M95.5294 56.8392c-0.977,1.124 -1.1247,2.0039 -3.1364,2.1713 -0.5533,0.7356 -0.9913,1.0481 -1.4475,2.4126 -0.4976,0.5726 -0.965,2.9933 -0.965,4.1014l0 0.965c0,0.4726 1.1534,1.7321 1.4475,2.1713l2.4126 1.6888c2.5702,-0.5988 5.1221,-1.3459 6.7552,-2.8951 1.4156,-1.2127 3.4752,-2.2305 4.9841,-4.1979 1.7185,-1.226 3.4901,-4.5085 1.7711,-8.1062 -1.3943,0 -5.5489,0.0669 -5.5489,-1.2063l-0.0536 -1.4555 0.2948 -2.1633c0.9724,0.2265 1.2056,0.7237 2.1713,0.7237l0.4826 0c0.5559,0 0.7237,-0.1678 0.7237,-0.7237l0 -0.9651c1.2943,-0.3455 2.6539,-3.1662 2.6539,-4.5839l0 -0.7237c0,-0.8317 -0.1785,-0.9342 -0.2413,-1.6888l0.5187 -0.0121 -0.2774 -0.4704 -0.4826 -0.2413c-1.1076,0.7504 -2.6741,0.965 -4.3426,0.965l-1.4475 0c-0.6516,0 -0.5729,-0.2463 -1.0274,-0.3992l-0.9027 -1.7721c-0.1377,1.1008 -0.5373,1.3985 -0.9983,3.1407l0.5158 4.5795c0.2142,1.6367 -1.0161,3.6961 -1.6398,4.6329 -1.3083,1.9651 -1.6083,3.3334 -2.2203,4.0524z"/>
   <path id="_64808912" class="fil15" d="M82.984 142.968c0,1.5849 -0.8528,7.2955 -1.1459,8.9869 -0.4965,2.8656 -0.9138,6.0468 -1.2437,8.889 -0.4864,4.19 -1.0244,4.4884 -2.773,7.3597 -1.1629,1.9094 -2.5359,4.4998 -4.2464,5.6453l0 0.4825 0.7238 0c4.0777,0 5.5083,-1.2139 7.4201,-3.4364 2.0365,-2.3675 3.3407,-3.1295 3.6777,-7.179 -0.7646,-1.1418 -1.6888,-1.3368 -1.6888,-3.3775l0 -1.9301c0,-5.6502 4.3426,-11.7408 4.3426,-16.1642l0.7065 -0.2862 0.0173 -2.8502 0 -1.2063c-2.0266,0.9724 -3.9487,-0.7046 -5.0664,-0.965l-0.7238 6.0315z"/>
   <path id="_64808840" class="fil15" d="M118.931 139.108c1.3014,5.5862 3.7036,10.5713 5.5792,15.6515 2.5009,6.7743 2.141,10.0153 2.141,19.0896l0.4825 1.6888 1.2063 0c1.4519,0 3.1363,-1.3318 3.1363,-2.8951 0,-3.0901 -1.5169,-8.5303 -2.1713,-11.3391 -1.7462,-3.3001 -1.7014,-9.2429 -2.9291,-13.2352 -0.5657,-1.8398 -0.6494,-4.9372 -1.1182,-6.8432 -0.5462,-2.2212 -1.5547,-4.1343 -1.9841,-5.9774l-0.5185 2.4069c-1.6253,0.4493 -1.1816,1.4532 -3.8241,1.4532z"/>
   <path id="_64808768" class="fil16" d="M107.351 55.1504c3.3806,7.0458 -7.9692,13.9083 -13.5104,15.1992 -0.8042,-0.5629 -1.6083,-1.1259 -2.4126,-1.6888 -0.2941,-0.4392 -1.4475,-1.6987 -1.4475,-2.1713 0,-0.3217 0,-0.6434 0,-0.965 0,-1.1081 0.4674,-3.5288 0.965,-4.1014 -0.0804,-0.7238 -0.1608,-1.4476 -0.2412,-2.1713 -0.7238,0 -1.4475,0 -2.1713,0 -1.9825,1.3275 -2.0663,4.2842 -2.4199,7.2304 -0.1492,1.2431 -0.3571,3.1138 -0.4679,4.3573 -0.1157,1.2987 -0.9724,3.8181 -0.9724,3.8528 0,0.1608 0,0.3216 0,0.4825 0,0.5409 0.1909,0.5295 0.4825,0.965 0,0.5629 0,1.1258 0,1.6888 0.0783,-0.1311 0.1566,-0.2621 0.2348,-0.3931 0.9672,0.0506 1.9344,0.1012 2.9016,0.1518 1.4445,-1.0583 0.9712,-3.5046 1.4475,-5.5489 0.3217,0.3216 0.6434,0.6433 0.9651,0.965 0.2488,-0.088 0.6685,0.635 1.5578,1.096 2.8479,1.4764 5.7038,1.3536 8.87,0.6466 1.1457,-0.2557 1.7761,-0.4822 2.8489,-0.77 1.2451,-0.334 1.964,-0.2134 2.7158,-1.2545 0.4594,-2.1577 0.9186,-4.3155 1.378,-6.4733 0.3338,-0.5261 0.2982,-1.93 0.965,-1.93 1.6034,0 5.6389,5.794 6.0314,7.4789 0.3216,0 0.6433,0 0.965,0 0.5801,0 0.7093,0.3909 1.2063,0.7239 1.3672,-0.6434 2.7343,-1.2868 4.1015,-1.9302 -0.284,-3.1235 -1.1247,-3.4604 -2.9402,-5.9864 -0.8353,-1.1621 -1.4401,-2.5259 -2.2227,-3.8087 -1.0309,-1.6901 -3.6093,-6.2073 -6.1831,-5.9413 -0.8823,0.0987 -1.7647,0.1974 -2.647,0.296z"/>
   <path id="_64808696" class="fil17" d="M86.6029 95.9229c0.9426,-0.021 2.1754,-0.5539 2.6771,-0.6381l17.3092 2.5817 0.038 -0.2548c1.5322,1.026 2.7622,3.3878 3.086,5.5993 0.9454,6.4564 0.8531,2.5428 3.428,5.2572l1.2063 -0.2412c0.1523,-0.2275 1.2063,-1.5493 1.2063,-1.6888 0,-1.5766 -0.4683,-2.7697 -1.2063,-3.6188 -2.7243,-1.8243 -3.9918,-3.5042 -4.3427,-7.7203 -0.6086,-0.7001 -1.9457,-2.4126 -3.1363,-2.4126 -0.467,0 -0.785,0.3282 -1.4476,0.4825l-0.4824 0.9651 0 0.4825 -1.4476 0c-1.3016,0 -4.5955,-0.7544 -5.3077,-1.2063l-9.6502 -1.2063 -1.9301 3.6189z"/>
   <path id="_64808624" class="fil15" d="M117.243 72.521c0.7414,1.4008 2.8952,3.2291 2.8952,4.8251l0 0.965c0,0.743 -5.0646,9.244 -5.7902,10.6153l1.93 1.6888c1.5069,-2.2503 8.2028,-9.9988 8.2028,-12.7866 0,-0.5433 -2.7439,-6.4959 -3.1363,-7.2378l-4.1015 1.9302z"/>
   <path id="_64808552" class="fil18" d="M85.1553 77.8286c-0.0915,4.1077 -1.8297,6.7915 -2.6042,9.9411 -0.6187,2.5158 -2.1624,7.6982 -2.2209,10.3245l0.0432 0.6058 1.4043 0.6005 0.2413 0c0.6017,-2.5827 2.5227,-7.5726 3.5465,-10.4465 0.8876,-2.4919 2.6594,-8.2713 2.7262,-11.2667l-2.9016 -0.1518 -0.2348 0.3931z"/>
   <polygon id="_64808480" class="fil19" points="91.6693,119.325 92.1518,124.874 97.7007,123.426 93.1169,110.64 "/>
   <path id="_64808408" class="fil20" d="M71.8862 129.699l-0.7238 11.8216c1.2961,0.3461 1.232,1.6491 1.9301,2.6539 0.3825,-4.5974 0.4825,-10.6102 0.4825,-15.4405 0,-2.9057 0.2418,-4.9701 0.2412,-7.7203 -0.0008,-4.4813 -0.2391,-3.3776 4.5839,-3.3776l0 -0.4825 -5.5489 0 -0.965 12.5454z"/>
   <path id="_64808336" class="fil21" d="M73.575 173.849l-2.8415 1.7745 -0.0536 0.6381c0.5825,0.1356 3.6525,0.7237 4.1014,0.7237l1.2062 0c1.7322,0 1.3915,-0.6902 2.8952,-0.7237 0.2406,-0.9012 2.1662,-2.3693 2.9298,-3.8254 0.5975,-1.1393 1.9397,-3.0377 3.3428,-3.4123l0 5.3076 0.4826 0 0 -1.6888c0,-1.4228 0.0855,-2.297 0.2523,-3.6078 0.1449,-1.1386 1.1952,-1.6978 1.1952,-2.4236l0 -0.2413c0,-1.2082 -0.9523,-2.1607 -1.6888,-2.6539 -0.337,4.0495 -1.6412,4.8115 -3.6777,7.179 -1.9118,2.2225 -3.3424,3.4364 -7.4201,3.4364l-0.7238 0 0 -0.4825z"/>
   <polygon id="_64808264" class="fil22" points="71.8862,129.699 72.8512,117.153 72.8512,115.947 69.1652,116.921 70.6799,129.699 "/>
   <path id="_64808192" class="fil23" d="M126.652 173.849l-0.5593 4.8154c2.1538,0.4936 3.2444,-0.6689 4.5571,-1.7826 0.9377,-0.7955 2.7574,-2.2889 2.7574,-3.7566l0 -0.7238c0,-0.3763 -1.8334,-3.5264 -2.1584,-5.0794 -0.4216,-2.0149 -0.2662,-4.5952 -1.2192,-6.0184l-0.7238 0c0.6544,2.8088 2.1713,8.249 2.1713,11.3391 0,1.5633 -1.6844,2.8951 -3.1363,2.8951l-1.2063 0 -0.4825 -1.6888z"/>
   <polygon id="_64808120" class="fil24" points="90.2217,128.01 90.7043,137.419 92.6487,134.82 92.8756,135.007 92.9147,134.038 92.1518,124.874 91.6693,119.325 "/>
   <path id="_64808048" class="fil23" d="M110.97 90.374c1.4092,-0.1173 1.1713,-0.7238 1.93,-0.7238l0.7238 0c-0.1232,1.4807 -1.5122,2.1713 -3.1363,2.1713l0.4825 -1.4475zm-0.7238 4.3426c0.1555,-0.4689 2.4873,-0.693 3.4286,-1.1554 1.2805,-0.6289 1.4782,-1.6271 2.6028,-2.2222 0,3.7015 -2.7388,3.1719 -4.5838,4.3426l0.2412 0.2413c2.6454,0 5.0664,-0.8829 5.0664,-3.3776 0,-0.753 -0.4413,-1.3962 -0.7238,-1.9301l-1.93 -1.6888c-2.3935,0 -4.5839,0.969 -4.5839,3.1364l0 1.4475c0,0.7871 0.1247,0.7947 0.4825,1.2063z"/>
   <path id="_64807976" class="fil25" d="M78.6414 102.919l0 0.7237 0 0.7238 0.2413 0.7238 0 0.2412 0.2412 1.9301 0.2412 2.1713c0.8203,1.1805 0.6235,2.7662 2.1714,2.8951 0.3118,-1.1679 0.965,-0.8065 0.965,-1.6889l0 -0.2412c0,-0.8318 -0.1784,-0.9341 -0.2412,-1.6888l-0.2413 -1.93 -0.4825 -1.9301 -1.2063 -1.4475 -0.2814 -0.2011 0.7639 -1.2465 -1.93 0 -0.2413 0.9651z"/>
   <polygon id="_64807904" class="fil26" points="93.1169,110.64 97.7007,123.426 99.3895,121.737 98.9191,121.46 99.1855,121.376 94.3231,110.157 93.3581,109.916 "/>
   <polygon id="_64807832" class="fil27" points="94.3231,110.157 99.1855,121.376 98.9191,121.46 99.3895,121.737 100.781,120.916 101.048,120.902 95.2744,109.863 "/>
   <path id="_64807760" class="fil28" d="M82.2603 108.709l0.7237 4.3426 0 2.4126 0 1.6888 -4.1013 0 0 -2.8951 0.4824 -4.8251 -0.2412 -2.1713 -0.7238 7.2377 0 2.6538 0 0.4825 0 1.6888 0.965 0 -0.0017 -1.7222 5.3094 -0.2078 0.2413 -0.4825 -1.4475 0 0 -1.4476 0 -2.6538 0 -0.7238 -0.2323 -2.1725c-0.1137,-0.7624 -0.0965,-0.5449 -0.2503,-1.2051l-0.4825 -0.965 -0.2412 -0.7238 -0.2413 -0.2412 0.2413 1.93z"/>
   <path id="_64807688" class="fil29" d="M114.348 102.919c-0.2172,-2.6098 -2.4126,-3.2742 -2.4126,-6.9965l-0.2412 -0.2413 -1.4476 -0.7237 -0.2413 0.2412c0.3509,4.2161 1.6184,5.896 4.3427,7.7203z"/>
   <path id="_64807616" class="fil30" d="M89.0154 137.66l1.427 0.2285 0.2619 -0.4698 -0.4826 -9.409c-0.7857,1.2384 -0.0398,4.257 -1.4475,4.8251l0.2412 4.8252z"/>
   <path id="_64807544" class="fil31" d="M77.9176 100.748l-0.2412 0.7237 -0.1042 1.071 1.0692 1.1003 0 -0.7237c-0.3755,-0.2515 -0.7238,-0.3199 -0.7238,-0.9651 0,-0.7842 0.2091,-0.1821 0.4825,-1.2062l2.876 -0.5752 0.0192 0.5752 0.7064 -0.2863 0.3077 1.2389 -0.5317 0.0124 -0.5307 -0.4343 -0.919 -0.0184 -0.7216 -0.0299c-0.4657,0 -0.4295,-0.0759 -0.7237,-0.2412l-0.5661 0.9129 0.5661 0.0521 1.93 0 0.4826 0 0 0.4825 0.4824 0 -0.0146 0.4404 -1.4329 0.5247 1.2063 1.4475c0.9227,-0.6179 1.2063,-2.1141 1.2063,-3.6189 0,-0.464 -0.5409,-1.5844 -0.7238,-1.93l-0.2413 0 0 0.4825 -2.1832 -0.4266 -1.6769 1.3917z"/>
   <path id="_64807472" class="fil30" d="M75.7463 115.223c-1.1075,0 -2.5701,-0.0814 -2.8951,0.7239l0 1.2062 5.5489 0 0 -2.6538 -0.2412 0 0 0.7237 -2.4126 0z"/>
   <path id="_64807400" class="fil32" d="M100.596 67.4545c0.2943,0.1654 0.258,0.2413 0.7238,0.2413 1.4068,-0.0325 1.3475,-0.9393 1.93,-2.1713 0.0826,-0.9914 0.2413,-0.5389 0.2413,-1.4476 0,-0.2593 -0.7056,-0.965 -1.2063,-0.965 -0.0804,0 -0.1609,0 -0.2413,0 -1.0988,0 -1.4475,0.3488 -1.4475,1.4475 0,0.0805 0,0.1609 0,0.2413 0,1.0399 0.7611,0.5906 -0.035,1.6598 -0.1422,0.352 -0.1305,0.6833 0.035,0.994zm4.8133 -4.4312c-0.038,-0.2052 -0.1438,-0.342 -0.4181,-0.1828 -0.4339,0.2518 -0.7122,0.9635 -0.875,0.8662 -0.153,-0.0915 0.1508,-0.9777 -0.1915,-1.2961 -0.2234,-0.2077 -0.4628,-0.1806 -0.4946,0.0134 -0.1428,0.8711 0.2852,1.6285 0.4789,1.7111 0.2904,0.1239 1.6442,-0.3339 1.5003,-1.1118zm-1.4845 5.7713c-0.322,-0.1012 -0.3525,-0.0228 -0.6714,-0.3621 -0.9397,-1.0476 -0.2383,-1.6252 0.2607,-2.8935 0.6659,-0.739 0.2275,-0.5448 0.8897,-1.1671 0.1889,-0.1774 1.1865,-0.1465 1.5293,0.2183 0.0551,0.0586 0.1102,0.1172 0.1652,0.1758 0.7524,0.8008 0.737,1.2937 -0.0637,2.0462 -0.0586,0.0551 -0.1172,0.1101 -0.1759,0.1652 -0.7577,0.7121 -0.9515,-0.1502 -1.1855,1.1621 -0.1592,0.3447 -0.4086,0.563 -0.7484,0.6551z"/>
   <path id="_64807328" class="fil33" d="M110.246 94.7166l0 0.2413 1.4476 0.7237c1.845,-1.1707 4.5838,-0.6411 4.5838,-4.3426 -1.1246,0.5951 -1.3223,1.5933 -2.6028,2.2222 -0.9413,0.4624 -3.2731,0.6865 -3.4286,1.1554z"/>
   <path id="_64807256" class="fil24" d="M82.984 108.709l0.4826 0 0.7237 4.1014 -0.2454 2.6533 -0.4783 0.0005 0 1.4476 1.4475 0 0 -1.4476c-0.4734,-0.3954 -0.2413,-2.0758 -0.2413,-2.895l0 -0.7239c0,-1.7622 -0.1806,-1.5992 -0.4825,-2.895 -0.5234,-0.6022 -0.7386,-0.9849 -1.6888,-1.2063l0.4825 0.965z"/>
   <polygon id="_64807184" class="fil30" points="82.984,115.465 79.1239,115.465 79.1239,114.258 78.8827,114.258 78.8827,117.153 82.984,117.153 "/>
   <polygon id="_64807112" class="fil12" points="79.1239,114.258 79.1239,115.465 82.984,115.465 82.984,113.052 "/>
   <path id="_64807040" class="fil34" d="M75.7463 115.223l2.4126 0 0 -0.7237 -1.2063 0.2413c-0.0302,-1.3557 -0.4825,-1.3427 -0.4825,-2.6539l0 -1.6888c0,-2.1597 1.0681,-2.1774 2.1713,-3.1363 -1.9032,0.1583 -2.8951,1.9839 -2.8951,4.1014 0,1.5863 0.4825,1.8724 0.4705,3.5826l-0.4705 0.2774z"/>
   <path id="_64806968" class="fil35" d="M110.97 90.374l-0.4825 1.4475c1.6241,0 3.0131,-0.6906 3.1363,-2.1713l-0.7238 0c-0.7587,0 -0.5208,0.6065 -1.93,0.7238z"/>
   <path id="_64806896" class="fil36" d="M78.6414 102.919l0.2413 -0.9651 -0.5661 -0.0521 0.5661 -0.9129c0.2942,0.1653 0.258,0.2412 0.7237,0.2412l0.7216 0.0299 0.919 0.0184 0.5307 0.4343 -0.0482 -0.4343 -0.4342 -0.5307 -0.0192 -0.5752 -2.876 0.5752c-0.2734,1.0241 -0.4825,0.422 -0.4825,1.2062 0,0.6452 0.3483,0.7136 0.7238,0.9651z"/>
   <path id="_64806824" class="fil13" d="M104.939 94.2341l-6.7553 -0.7238c0.7122,0.4519 4.0061,1.2063 5.3077,1.2063l1.4476 0 0 -0.4825z"/>
   <path id="_64806752" class="fil37" d="M77.1938 103.161l0 0.4825 0 0.965 1.2063 0.7238 0.4826 0 0 -0.2412c-0.9607,-0.5083 -1.1601,-0.4548 -1.4476,-1.6888 0.8068,0.292 0.3564,0.3958 1.2063,0.965l0 -0.7238 -1.0692 -1.1003 0.1042 -1.071 -0.4826 0.2413 0 1.4475z"/>
   <path id="_64806680" class="fil36" d="M77.9176 100.748l1.6769 -1.3917 2.1832 0.4266 0 -0.4825 -1.4043 -0.6005 -0.0432 -0.6058 -0.2412 0.7237c-1.2037,0.1002 -1.6504,0.6695 -2.1714,1.4476l0 0.4826z"/>
   <path id="_64806608" class="fil38" d="M84.6728 112.57l0.4825 0 0 -2.6539 -0.8174 -1.1537 -0.1476 0.1887c0.3019,1.2958 0.4825,1.1328 0.4825,2.895l0 0.7239z"/>
   <path id="_64806536" class="fil39" d="M82.5015 107.744c0.9502,0.2214 1.1654,0.6041 1.6888,1.2063l0.1476 -0.1887 0.8174 1.1537 0.2413 -0.965 -3.1363 -1.9301 0.2412 0.7238z"/>
   <polygon id="_64806464" class="fil39" points="83.4666,115.465 83.9449,115.464 84.1903,112.811 83.4666,112.811 "/>
   <path id="_64806392" class="fil40" d="M84.9141 115.465c0.4734,-0.3954 0.2412,-2.0758 0.2412,-2.895l-0.4825 0c0,0.8192 -0.2321,2.4996 0.2413,2.895z"/>
   <polygon id="_64806320" class="fil41" points="80.3302,103.402 81.7631,102.877 81.7777,102.437 81.2953,102.437 81.2953,101.954 80.8127,101.954 80.0488,103.201 "/>
   <path id="_64806248" class="fil42" d="M78.4001 105.332l-1.2063 -0.7238 0 -0.965 0 -0.4825c-0.2057,0.2367 -0.4824,0.4248 -0.4824,0.965 0,0.7859 0.6847,0.9303 1.2062,1.2063l0.4825 0z"/>
   <path id="_64806176" class="fil43" d="M78.8827 105.091l-0.2413 -0.7238c-0.8499,-0.5692 -0.3995,-0.673 -1.2063,-0.965 0.2875,1.234 0.4869,1.1805 1.4476,1.6888z"/>
   <polygon id="_64806104" class="fil44" points="81.2953,100.748 81.7295,101.279 81.7777,101.713 82.3094,101.701 82.0017,100.462 "/>
   <path id="_64806032" class="fil45" d="M90.7043 59.2518c-0.0762,2.5163 0.9994,5.3272 3.9226,4.5443 -2.3672,-0.253 -2.7087,-3.015 -2.2339,-4.7856 0.8346,-3.5821 3.3776,-3.4614 3.3776,-8.444l0 -4.1013c1.0517,0.0234 1.2063,0.1575 1.2063,1.2063l0 1.2062c0,1.1727 -1.6785,5.3211 -1.73,6.0384 -0.0437,0.641 0.0351,1.282 0.2825,1.9231 0.2144,0.3361 0.4288,0.6721 0.6432,1.0082 -0.3943,-3.701 -0.0337,-2.7876 1.5771,-5.0606 0.6237,-0.9368 1.854,-2.9962 1.6398,-4.6329 -0.1719,-1.5265 -0.3438,-3.053 -0.5158,-4.5795 0.9277,1.4359 1.6714,3.025 2.7829,4.3076 -0.645,-1.1507 -1.3559,-1.7852 -1.7435,-3.1468 -0.1645,-0.9788 -0.0411,-3.1931 -0.0411,-4.3015 0.4784,1.1235 0.5222,2.1713 1.9301,2.1713l1.4475 0c1.6685,0 3.3811,-0.0217 4.2888,-0.7258 0.1822,-0.0431 0.3917,-0.1093 0.5364,0.0021 0.2581,-0.9667 0.965,-1.2585 0.965,-2.4126 0,-3.7161 -4.2482,-9.409 -7.7202,-9.409 -0.8846,0 -1.7692,0 -2.6538,0 -5.149,0 -8.4441,2.8754 -8.4441,7.9614l0 0.4826c0,3.159 1.2338,4.0783 1.6889,6.0314 -1.0528,0.2811 -2.6539,1.8017 -2.6539,3.1364l0 0.965c0,1.2215 1.1583,3.7898 1.8699,4.1109l0.3014 1.9205c0.116,0.7254 -0.7237,2.8988 -0.7237,4.5839z"/>
  </g>
  <g id="_336272744">
   <path id="_64805960" class="fil3" d="M160.67 197.765l0 0.7238c3.0767,2.0603 8.1028,19.6335 10.3741,24.367 0.9025,1.0382 1.251,2.4997 2.0263,3.7638 1.3404,2.1854 0.7389,1.8526 1.4433,4.3469 0.9041,3.2017 1.8434,5.4133 3.2026,8.1365 1.2572,2.5191 2.7298,5.0525 4.3293,7.251 1.1467,1.5762 3.9065,5.1424 3.9564,7.3827 -1.3493,0.1123 -2.4126,1.5786 -2.4126,2.895l0 0.4826c0,1.6312 1.2063,3.1831 1.2063,3.6189l0 5.5489c1.0899,-0.3945 0.7299,-1.8788 0.7235,-3.378 -0.0121,-2.8089 0.2906,-1.7538 0.7241,-3.3772l0.4824 0c0.6276,2.35 2.3942,2.3741 2.9069,7.2258 0.2842,2.6887 3.6572,3.6307 6.5022,3.6307l2.6538 0c-0.397,-1.4871 -3.966,-3.235 -4.7977,-5.335 -0.9902,-2.5002 -1.7456,-4.8355 -2.7775,-7.3553 -1.0372,-2.5326 -2.1406,-4.4884 -3.0101,-7.1228 -0.786,-2.3818 -1.6567,-4.9342 -2.5875,-7.304 -2.1716,-5.5283 -3.0657,-9.4602 -5.6452,-14.6204 -1.0552,-2.1107 -0.586,-1.6769 -1.147,-3.9194 -0.3634,-1.4525 -1.0711,-2.1919 -1.542,-3.5244 -0.4869,-1.3778 -1.8581,-6.3442 -1.8949,-7.9966l-0.965 -4.5839 -3.3776 -10.1328 -0.4826 -1.2063c-1.3414,0.1117 -2.4111,0.965 -3.3776,0.965l-1.4475 0 -5.0664 -0.4825z"/>
   <path id="_64805888" class="fil46" d="M141.369 194.388l0.2413 1.4476c0.9787,0.0814 3.4065,0.8779 4.3712,1.1776 2.9153,0.9056 2.4173,0.3582 4.5553,-0.2126l8.2027 0.7237 1.9301 0.2413 5.0664 0.4825 1.4475 0c0.9665,0 2.0362,-0.8533 3.3776,-0.965l0.965 -1.2063 0 -0.2412 -0.4824 -5.5489 -0.7239 0c0,0.7095 0,3.8723 0,0.965l-1.5336 -4.0716 1.2924 -0.2711 -0.4825 0 -0.965 0 -1.6888 -5.3076 -1.4476 0.965c-0.4846,0.3075 -3.0637,0.965 -3.8601,0.965l-2.6538 0c-6.6236,0 -10.4302,-2.3157 -14.7167,-4.5839 -1.9925,2.8675 -2.8951,10.2781 -2.8951,15.4405z"/>
   <path id="_64805816" class="fil15" d="M150.537 196.8c-2.138,0.5708 -1.64,1.1182 -4.5553,0.2126 -0.9647,-0.2997 -3.3925,-1.0962 -4.3712,-1.1776l0.965 25.5732c0.0858,1.8102 -0.965,3.2271 -0.965,4.8252l0 6.2727c0,3.1476 0.5537,5.8155 1.0228,8.6274 0.193,1.1564 1.749,7.017 1.7393,8.0321l-1.7971 14.7039 0 0.7237c0,1.3394 1.4198,3.3777 2.8951,3.3777 1.3595,0 3.1364,-1.5325 3.1364,-2.8951l0 -0.7238c0,-2.5568 -0.4772,-5.1332 -0.4767,-8.4499 0.0005,-2.7104 -1.2122,-4.3005 -1.2122,-7.9556l0 -3.8601c0,-4.3391 0.5003,-7.7341 0.48,-12.0654 -0.0203,-4.3083 0.8621,-7.4178 1.5464,-11.2402 0.5129,-2.8647 0.8809,-8.8323 0.8662,-11.9205 -0.017,-3.5378 0.7263,-8.2643 0.7263,-12.0603z"/>
   <path id="_64805744" class="fil3" d="M147.883 126.595l0 3.8601c1.8477,0.9777 0.3109,3.4082 1.6902,5.7889 0.3209,0.554 3.1488,4.1027 3.6175,4.1027l2.6987 -0.0159 1.1615 3.876c-2.4128,1.2766 -2.5342,0.965 -6.0315,0.965 -0.8192,0.2716 0.7062,2.8658 1.125,3.7002 0.7364,1.4673 1.1401,2.7271 1.8475,4.1839 2.2531,4.6401 0.394,4.1603 5.4057,6.565 0.9089,1.2433 4.6623,1.0991 6.0893,0.5828 1.2241,-0.4428 2.3249,-1.6855 3.6268,-4.8991 0.7746,-3.6147 2.657,-6.6315 3.0569,-10.3027 0.074,-0.6797 -0.4057,-1.4857 -0.4074,-2.2097l-0.9607 -0.2742c-1.1259,0 -2.2517,0 -3.3776,0 -2.017,0.7377 -3.9722,1.3108 -5.4953,0.7318 0.2381,-1.9534 -3.4824,-4.0968 -3.677,-6.9999 -0.1993,-2.9729 0.2029,-7.7248 -2.8906,-7.7248l-0.4825 0c-0.8381,0 -0.3682,0.4825 -1.2063,0.4825l-0.2412 0c-1.5963,0 -4.5088,-1.7103 -4.8251,-2.8951l-0.7239 0.4825z"/>
   <path id="_64805672" class="fil47" d="M171.044 222.856c-2.2713,-4.7335 -7.2974,-22.3067 -10.3741,-24.367l0 -0.7238 -1.9301 -0.2413 -5.0664 21.7132c1.1624,0.3103 1.5785,2.2935 1.6888,3.6189l15.6818 0z"/>
   <path id="_64805600" class="fil15" d="M145.23 162.783c0,6.6385 -0.2642,6.9587 -2.4976,11.4955 -0.7883,1.6014 -3.1827,8.8857 -2.9437,10.9346l0.32 8.0232 1.2611 1.1514c0,-5.1624 0.9026,-12.573 2.8951,-15.4405l0.4825 -0.7237c0.3485,-1.3053 2.9939,-4.0675 3.714,-6.4188 0.4352,-1.421 0.7193,-7.4532 0.8699,-9.263 -2.7092,-1.5663 -4.0487,-2.9385 -4.1013,0.2413z"/>
   <path id="_64805528" class="fil48" d="M170.562 197.283l0.4826 1.2063 4.3301 0.7839 -0.9525 9.3489 0.965 4.5839 3.8601 0.2412 1.4475 -1.93 -1.4475 -15.6817 -6.2727 0 0 -3.1364 -1.2063 -2.6538 -0.7237 0.2413c0.6072,0.4066 1.2063,1.1742 1.2063,2.1713l0 1.6887c0,0.9731 -0.0511,1.4173 -0.7239,1.6889l0 0.2412 -0.965 1.2063z"/>
   <path id="_64805456" class="fil25" d="M144.747 178.224c-0.1608,0.2412 -0.3216,0.4825 -0.4825,0.7237 4.2865,2.2682 8.0931,4.5839 14.7167,4.5839 0.8846,0 1.7692,0 2.6538,0 0.7964,0 3.3755,-0.6575 3.8601,-0.965 0.4825,-0.3217 0.9651,-0.6434 1.4476,-0.965 0,-0.4826 0,-0.9651 0,-1.4476 -0.9651,0 -1.9301,0 -2.8951,0l-2.6538 0 -0.4826 0c-0.4021,0 -0.8042,0 -1.2063,0 0,1.8871 -3.6155,1.5427 -5.2878,1.81 -2.3199,0.2535 -6.6844,-3.8897 -7.4988,-5.4289 -0.7238,0.563 -1.4475,1.126 -2.1713,1.6889z"/>
   <polygon id="_64805384" class="fil49" points="174.422,208.622 175.374,199.273 171.044,198.489 "/>
   <polygon id="_64805312" class="fil50" points="180.694,211.517 181.861,211.281 179.971,195.835 179.247,195.835 "/>
   <path id="_64805240" class="fil51" d="M147.883 126.595l0.7239 -0.4825c0.3163,1.1848 3.2288,2.8951 4.8251,2.8951l0.2412 0c0.8381,0 0.3682,-0.4825 1.2063,-0.4825l0.4825 0c3.0935,0 2.6913,4.7519 2.8906,7.7248 0.1946,2.9031 3.9151,5.0465 3.677,6.9999l-0.2949 2.1633c-0.6695,1.0553 -1.2062,3.3697 -1.2062,5.0664 0,1.7866 2.0143,3.8601 3.6188,3.8601l1.93 0c0.541,0 0.5297,-0.1909 0.9651,-0.4825 0.4505,-0.6728 0.7238,-1.0175 0.7238,-2.1713l0 -0.4825c0,-0.672 -1.0169,-1.6889 -1.6889,-1.6889l-0.4825 0c-0.733,0 -0.819,0.4186 -0.965,0.9651 0.3047,-0.1612 0.7977,-0.4825 1.2063,-0.4825 0.2593,0 0.965,0.7056 0.965,1.2063 0,0.5625 -0.6437,1.2063 -1.2063,1.2063l-0.4825 0c-1.3321,0 -1.2063,-1.7752 -1.2063,-3.1364l1.9301 -3.3776 1.6888 -3.3776c0.0294,-1.3201 0.4825,-1.7011 0.4825,-3.1363l0 -0.7238c0,-3.1159 -3.8601,-3.5077 -3.8601,-6.0314l0 -0.7238c0,-0.7536 1.6888,-2.8408 1.6888,-5.0664l0 -1.6888c0,-3.8652 -3.6038,-6.9965 -7.7202,-6.9965l-1.9301 0c-2.7007,0 -4.4596,0.7183 -5.9703,1.9912 -0.5942,0.5006 -2.9562,4.799 -2.9562,5.2466 0,0.6466 0.3435,0.9276 0.7237,1.2062z"/>
   <path id="_64805168" class="fil52" d="M174.18 143.965c-0.4021,-0.4825 -0.8042,-0.9649 -1.2063,-1.4475 -0.7237,0 -1.4475,0 -2.1713,0 2.0778,0.5932 0.5013,4.5464 -0.2413,6.0314 0,0.1609 0,0.3217 0,0.4826 -0.0804,0.402 -0.1608,0.8041 -0.2413,1.2063 -0.1607,0.5629 -0.3216,1.1258 -0.4824,1.6887 -0.2412,1.1259 -0.4825,2.2518 -0.7238,3.3776 -1.592,3.9301 -4.6818,7.0268 -9.4091,4.1014 -5.0116,-2.4047 -3.4596,-1.71 -5.7127,-6.3501 -0.7074,-1.4568 -1.1111,-2.7166 -1.8475,-4.1839 -0.4188,-0.8344 -1.9442,-3.4286 -1.125,-3.7002 -3.6305,-2.3034 -5.0973,2.7417 -5.4927,5.3639 -0.308,2.0423 -0.2018,3.2803 -0.2883,5.5018 -0.0683,1.7545 -0.733,3.6691 -0.738,5.3117 0.4218,0.2717 0.7741,0.7187 0.8504,0.4061 0.1222,-0.5007 0.824,-1.0376 3.9798,0.787 1.6057,0 0.7279,-2.1875 0.7301,-3.3772 -0.0041,-1.0969 0.0657,-1.8089 0.1681,-1.798 0.402,0.0431 1.4187,7.2161 1.5144,7.8291l0 0.7237c0,1.7253 0.7237,1.9289 0.7237,3.8602 0,0.4825 0,0.9649 0,1.4475l-0.965 2.1713c-1.266,1.2661 -3.0786,2.1624 -4.5839,3.1363 0.8144,1.5392 5.1789,5.6824 7.4988,5.4289 1.7626,-0.2817 3.4945,0.2043 5.2878,-0.845 0,-0.965 2.7979,-0.965 4.3427,-0.965 0.9651,0 1.9301,0 2.8951,0 1.4942,0 1.0532,-0.8327 0.4825,-1.6887 -0.4824,-0.9117 -0.965,-0.7916 -0.965,-1.9302 0,-0.3217 0,-0.6434 0,-0.965l0.965 -2.895 0.2413 -0.4826 1.4475 -8.2027 0.2412 -0.4826c3.1825,-1.6839 1.9301,-4.9955 1.9301,-9.6502 0.763,1.8069 0.9254,3.2602 2.5963,4.5917 0.2368,-0.2058 1.2061,-2.9029 1.7464,-2.9029 1.0461,0 0.7446,0.3839 1.93,0.4825 0.1247,-0.4757 -1.1713,-6.3851 -1.4476,-7.7203 -0.4538,-1.8152 -0.8928,-2.6933 -1.93,-4.3426z"/>
   <path id="_64805096" class="fil15" d="M172.974 157.475c0.0778,3.494 2.6539,8.8788 2.6539,13.0279 0,1.279 -1.8494,7.1394 -2.3141,8.7838 -0.5649,1.9994 -1.6173,7.1898 -3.2349,7.6217l-1.2924 0.2711 1.5336 4.0716 0 -0.4826 0 -0.4824 0.7239 0 0.7237 -0.2413 1.4476 -1.2063c-0.4299,-2.5696 4.374,-10.2293 5.4108,-14.8548 1.5174,-6.7692 -1.0682,-11.473 -1.0682,-17.9562 -1.1854,-0.0986 -0.8839,-0.4825 -1.93,-0.4825 -0.8615,0 -2.2662,1.1547 -2.6539,1.93z"/>
   <polygon id="_64805024" class="fil53" points="175.145,150.238 176.352,150.238 176.352,149.031 175.145,149.031 "/>
   <polygon id="_64804952" class="fil53" points="163.083,174.363 164.289,174.363 164.289,173.157 163.083,173.157 "/>
   <polygon id="_64804880" class="fil54" points="175.145,151.927 176.352,151.927 176.352,150.72 175.145,150.72 "/>
   <polygon id="_64804808" class="fil53" points="152.709,169.538 153.915,169.538 153.915,168.332 152.709,168.332 "/>
   <polygon id="_64804736" class="fil53" points="159.705,168.573 159.705,169.297 160.911,169.297 160.911,168.091 159.705,168.091 "/>
   <polygon id="_64804664" class="fil53" points="161.394,176.052 162.6,176.052 162.6,174.846 161.394,174.846 "/>
   <polygon id="_64804592" class="fil53" points="159.223,170.262 159.223,169.78 158.016,169.78 158.016,170.986 159.223,170.986 "/>
   <polygon id="_64804520" class="fil54" points="156.086,162.542 157.292,162.542 157.292,161.336 156.086,161.336 "/>
   <polygon id="_64804448" class="fil53" points="161.394,170.986 162.6,170.986 162.6,169.78 161.394,169.78 "/>
   <polygon id="_64804376" class="fil53" points="151.02,173.881 151.02,174.605 152.226,174.605 152.226,173.398 151.502,173.398 151.221,173.6 "/>
   <polygon id="_64804304" class="fil53" points="162.359,162.301 162.6,161.094 161.394,161.094 161.394,162.301 "/>
   <polygon id="_64804232" class="fil54" points="174.663,144.689 174.18,143.965 173.457,143.965 173.457,145.171 174.663,145.171 "/>
   <polygon id="_64804160" class="fil53" points="173.215,156.993 174.189,157.238 174.663,156.028 173.49,156.032 "/>
   <polygon id="_64804088" class="fil55" points="152.709,167.608 153.915,167.608 153.915,166.643 152.709,166.643 "/>
   <polygon id="_64804016" class="fil55" points="160.911,179.43 160.911,178.465 159.705,178.465 159.705,179.43 "/>
   <polygon id="_64803944" class="fil55" points="175.145,155.304 176.352,155.304 176.352,154.339 175.145,154.339 "/>
   <polygon id="_64803872" class="fil55" points="163.083,170.745 164.289,170.745 164.289,169.78 163.083,169.78 "/>
   <polygon id="_64803800" class="fil55" points="165.013,174.363 165.978,174.363 165.978,173.157 165.013,173.157 "/>
   <polygon id="_64803728" class="fil55" points="159.705,165.678 160.911,165.678 160.911,164.713 159.705,164.713 "/>
   <polygon id="_64803656" class="fil55" points="165.013,176.052 165.978,176.052 165.978,174.846 165.013,174.846 "/>
   <polygon id="_64803584" class="fil55" points="173.457,153.615 174.663,153.615 174.663,152.65 173.457,152.65 "/>
   <polygon id="_64803512" class="fil55" points="165.978,161.094 165.013,161.094 165.013,162.301 165.978,162.301 "/>
   <polygon id="_64803440" class="fil55" points="167.667,162.301 167.667,161.094 166.701,161.094 166.701,162.301 "/>
   <polygon id="_64803368" class="fil55" points="173.457,155.304 174.663,155.304 174.663,154.339 173.457,154.339 "/>
   <polygon id="_64803296" class="fil55" points="167.425,172.675 167.667,172.192 167.667,171.468 166.701,171.468 166.701,172.675 "/>
   <polygon id="_64803224" class="fil55" points="164.289,167.367 164.289,166.402 163.324,166.402 163.083,167.367 "/>
   <polygon id="_64803152" class="fil55" points="164.289,163.989 164.289,163.024 163.324,163.024 163.083,163.989 "/>
   <polygon id="_64803080" class="fil55" points="162.6,166.402 161.394,166.643 161.394,167.367 162.6,167.367 "/>
   <polygon id="_64803008" class="fil56" points="171.768,146.86 172.974,146.86 172.974,145.654 171.768,145.654 "/>
   <polygon id="_64802936" class="fil57" points="156.327,167.608 157.292,167.608 157.292,166.643 156.327,166.643 "/>
   <polygon id="_64802864" class="fil57" points="161.635,163.989 162.6,163.989 162.6,163.024 161.635,163.024 "/>
   <polygon id="_64802792" class="fil25" points="162.6,179.43 162.6,178.465 161.635,178.465 161.635,179.43 "/>
   <path id="_64802720" class="fil56" d="M160.67 172.433l-0.7238 0 0 -0.7238 0.7238 0 0 0.7238zm0.2412 0.2413l0 -1.2063 -1.2063 0 0 1.2063 1.2063 0z"/>
   <polygon id="_64802648" class="fil29" points="162.6,177.741 162.6,176.776 161.635,176.776 161.635,177.741 "/>
   <polygon id="_64802576" class="fil57" points="161.635,169.056 162.6,169.056 162.6,168.091 161.635,168.091 "/>
   <polygon id="_64802504" class="fil56" points="171.768,148.549 172.974,148.549 172.974,147.343 171.768,147.343 "/>
   <path id="_64802432" class="fil56" d="M158.981 174.122l-0.7238 0 0 -0.7238 0.7238 0 0 0.7238zm-0.965 0.2412l1.2063 0 0 -1.2063 -1.2063 0 0 1.2063z"/>
   <path id="_64802360" class="fil58" d="M160.67 174.122l-0.7238 0 0 -0.7238 0.7238 0 0 0.7238zm-0.9651 0.2412l1.2063 0 0 -1.2063 -1.2063 0 0 1.2063z"/>
   <path id="_64802288" class="fil56" d="M162.359 172.433l-0.7238 0 0 -0.7238 0.7238 0 0 0.7238zm-0.965 0.2413l1.2063 0 0 -1.2063 -1.2063 0 0 1.2063z"/>
   <polygon id="_64802216" class="fil29" points="170.079,158.682 171.044,158.682 171.044,157.717 170.079,157.717 "/>
   <polygon id="_64802144" class="fil59" points="175.145,148.549 176.11,148.308 175.869,147.343 175.145,147.343 "/>
   <polygon id="_64802072" class="fil25" points="168.39,157.717 168.39,158.682 169.355,158.682 169.355,157.717 "/>
   <polygon id="_64802000" class="fil57" points="155.604,176.052 155.604,175.087 154.639,175.087 154.639,176.052 "/>
   <polygon id="_64801928" class="fil60" points="165.013,169.056 165.978,169.056 165.978,168.091 165.013,168.091 "/>
   <polygon id="_64801856" class="fil29" points="157.292,176.052 157.292,175.087 156.327,175.087 156.327,176.052 "/>
   <polygon id="_64801784" class="fil25" points="170.079,156.993 171.044,156.993 171.044,156.028 170.079,156.028 "/>
   <polygon id="_64801712" class="fil29" points="163.324,176.052 164.289,176.052 164.289,175.087 163.324,175.087 "/>
   <polygon id="_64801640" class="fil57" points="170.079,155.304 171.044,155.304 171.044,154.339 170.079,154.339 "/>
   <polygon id="_64801568" class="fil15" points="167.667,167.367 167.667,166.402 166.701,166.402 166.701,167.367 "/>
   <polygon id="_64801496" class="fil57" points="155.604,177.741 155.604,176.776 154.639,176.776 154.639,177.741 "/>
   <polygon id="_64801424" class="fil29" points="158.981,177.741 158.981,176.776 158.016,176.776 158.016,177.741 "/>
   <polygon id="_64801352" class="fil29" points="175.387,153.615 176.352,153.615 176.352,152.65 175.387,152.65 "/>
   <polygon id="_64801280" class="fil25" points="164.289,177.741 164.289,176.776 163.324,176.776 163.324,177.741 "/>
   <polygon id="_64801208" class="fil60" points="165.978,177.741 165.978,176.776 165.013,176.776 165.013,177.741 "/>
   <polygon id="_64801136" class="fil57" points="157.292,179.43 157.292,178.465 156.327,178.465 156.327,179.43 "/>
   <polygon id="_64801064" class="fil57" points="171.768,153.615 172.733,153.615 172.733,152.65 171.768,152.65 "/>
   <polygon id="_64800992" class="fil15" points="165.978,179.43 165.978,178.465 165.013,178.465 165.013,179.43 "/>
   <polygon id="_64800920" class="fil25" points="170.079,153.615 171.044,153.615 171.044,152.65 170.079,152.65 "/>
   <polygon id="_64800848" class="fil57" points="158.981,179.43 158.981,178.465 158.016,178.465 158.016,179.43 "/>
   <polygon id="_64800776" class="fil60" points="164.289,179.43 164.289,178.465 163.324,178.465 163.324,179.43 "/>
   <polygon id="_64800704" class="fil60" points="155.604,181.119 155.604,180.154 154.639,180.154 154.639,181.119 "/>
   <polygon id="_64800632" class="fil29" points="171.768,151.927 172.733,151.927 172.733,150.962 171.768,150.962 "/>
   <polygon id="_64800560" class="fil25" points="167.667,169.78 166.701,169.78 166.701,170.745 167.667,170.745 "/>
   <polygon id="_64800488" class="fil29" points="154.639,165.919 155.604,165.919 155.604,164.954 154.639,164.954 "/>
   <polygon id="_64800416" class="fil57" points="156.327,165.919 157.292,165.919 157.292,164.954 156.327,164.954 "/>
   <polygon id="_64800344" class="fil15" points="165.978,165.678 165.978,164.713 165.013,164.713 165.013,165.678 "/>
   <polygon id="_64800272" class="fil60" points="163.324,165.678 164.289,165.678 164.289,164.713 163.324,164.713 "/>
   <polygon id="_64800200" class="fil60" points="166.701,165.678 167.667,165.678 167.667,164.713 166.701,164.713 "/>
   <polygon id="_64800128" class="fil57" points="166.701,163.989 167.667,163.989 167.667,163.024 166.701,163.024 "/>
   <polygon id="_64800056" class="fil57" points="168.39,162.301 169.355,162.301 169.355,161.336 168.39,161.336 "/>
   <polygon id="_64799984" class="fil60" points="167.667,169.056 167.667,168.091 166.701,168.091 166.701,169.056 "/>
   <polygon id="_64799912" class="fil57" points="158.016,169.056 158.981,169.056 158.981,168.091 158.016,168.091 "/>
   <polygon id="_64799840" class="fil57" points="163.324,169.056 164.289,169.056 164.289,168.091 163.324,168.091 "/>
   <polygon id="_64799768" class="fil29" points="168.39,160.37 169.355,160.37 169.355,159.405 168.39,159.405 "/>
   <path id="_64799696" class="fil56" d="M159.946 170.021l0.7238 0 0 0.7238 -0.7238 0 0 -0.7238zm-0.2413 0.2413l0 0.7237 1.2063 0 0 -1.2062 -1.2063 0 0 0.4825z"/>
   <path id="_64799624" class="fil58" d="M159.946 161.336l0.7238 0 0 0.7239 -0.7238 0 0 -0.7239zm0.965 -0.2412l-1.2063 0 0 1.2063 1.2063 0 0 -1.2063z"/>
   <path id="_64799552" class="fil56" d="M173.698 149.273l0.7238 0 0 0.7238 -0.7238 0 0 -0.7238zm-0.2412 0.9651l1.2062 0 0 -1.2063 -1.2062 0 0 1.2063z"/>
   <polygon id="_64799480" class="fil58" points="174.663,148.549 174.663,147.343 173.457,147.343 173.457,148.549 "/>
   <polygon id="_64799408" class="fil29" points="169.114,163.989 169.355,163.507 169.355,163.024 168.39,163.024 168.39,163.989 "/>
   <polygon id="_64799336" class="fil25" points="165.736,169.78 165.013,169.78 165.013,170.745 165.978,170.745 "/>
   <polygon id="_64799264" class="fil25" points="162.6,174.122 162.6,173.398 161.635,173.398 161.635,174.122 "/>
   <polygon id="_64799192" class="fil15" points="173.698,151.927 174.422,151.927 174.422,150.962 173.698,150.962 "/>
   <polygon id="_64799120" class="fil25" points="159.946,176.052 160.67,176.052 160.67,175.087 159.946,175.087 "/>
   <polygon id="_64799048" class="fil59" points="172.25,155.063 172.974,155.304 172.974,154.339 172.009,154.339 "/>
   <polygon id="_64798976" class="fil15" points="159.946,177.741 160.67,177.741 160.67,176.776 159.946,176.776 "/>
   <polygon id="_64798904" class="fil29" points="152.709,172.675 153.673,172.675 153.673,171.951 152.709,171.951 "/>
   <polygon id="_64798832" class="fil60" points="164.289,172.433 164.289,171.71 163.324,171.71 163.324,172.433 "/>
   <polygon id="_64798760" class="fil15" points="170.079,160.37 171.044,160.37 171.044,159.647 170.079,159.647 "/>
   <polygon id="_64798688" class="fil61" points="159.705,177.017 159.946,177.741 159.946,176.776 160.67,176.776 160.67,177.741 160.911,177.741 160.911,176.535 159.705,176.535 "/>
   <polygon id="_64798616" class="fil3" points="160.67,161.336 159.946,161.336 159.946,162.059 160.67,162.059 "/>
   <polygon id="_64798544" class="fil3" points="159.946,174.122 160.67,174.122 160.67,173.398 159.946,173.398 "/>
   <polygon id="_64798472" class="fil62" points="158.257,174.122 158.981,174.122 158.981,173.398 158.257,173.398 "/>
   <polygon id="_64798400" class="fil62" points="161.635,172.433 162.359,172.433 162.359,171.71 161.635,171.71 "/>
   <polygon id="_64798328" class="fil62" points="160.67,170.021 159.946,170.021 159.946,170.745 160.67,170.745 "/>
   <polygon id="_64798256" class="fil3" points="174.422,149.273 173.698,149.273 173.698,149.997 174.422,149.997 "/>
   <polygon id="_64798184" class="fil3" points="159.946,172.433 160.67,172.433 160.67,171.71 159.946,171.71 "/>
   <polygon id="_64798112" class="fil56" points="152.709,172.675 153.915,172.916 153.912,171.678 152.709,171.951 153.673,171.951 153.673,172.675 "/>
   <polygon id="_64798040" class="fil61" points="164.289,172.433 163.324,172.433 163.324,171.71 164.289,171.71 163.083,171.468 163.086,172.706 "/>
   <polygon id="_336713840" class="fil56" points="159.946,176.052 159.946,175.087 160.67,175.087 160.67,176.052 160.911,174.846 159.673,174.849 "/>
   <polygon id="_37981952" class="fil61" points="170.079,160.37 171.285,160.612 171.282,159.374 170.079,159.647 171.044,159.647 171.044,160.37 "/>
   <polygon id="_39198864" class="fil61" points="173.698,151.927 173.698,150.962 174.422,150.962 174.422,151.927 174.663,150.72 173.425,150.723 "/>
   <polygon id="_58075120" class="fil56" points="162.6,174.122 161.635,174.122 161.635,173.398 162.6,173.398 161.394,173.157 161.397,174.395 "/>
   <polygon id="_64065792" class="fil53" points="151.744,165.919 152.226,165.919 152.214,164.918 151.744,165.196 "/>
   <polygon id="_336272648" class="fil55" points="165.013,172.661 165.978,172.661 165.978,171.455 165.013,171.455 "/>
  </g>
 </g>
</svg>