<?xml version="1.0" encoding="iso-8859-1"?>
<!-- Generator: Adobe Illustrator 18.1.1, SVG Export Plug-In . SVG Version: 6.00 Build 0)  -->
<svg version="1.1" id="Capa_1" xmlns="http://www.w3.org/2000/svg" xmlns:xlink="http://www.w3.org/1999/xlink" x="0px" y="0px"
	 viewBox="0 0 61.04 61.04" style="enable-background:new 0 0 61.04 61.04;" xml:space="preserve">
<g>
	<path style="fill:#010002;" d="M44.786,30.029c2.353,0,4.269-1.915,4.269-4.27c0.001-2.354-1.915-4.27-4.269-4.27
		c-2.355,0-4.271,1.916-4.271,4.27S42.431,30.029,44.786,30.029z M44.786,22.216c1.954,0,3.544,1.589,3.544,3.543
		s-1.59,3.543-3.544,3.543c-1.955,0-3.543-1.589-3.543-3.543S42.831,22.216,44.786,22.216z M42.256,34.631
		c0,1.396,1.136,2.531,2.531,2.531c1.395,0,2.53-1.135,2.53-2.531c0.001-1.394-1.134-2.53-2.53-2.53S42.256,33.236,42.256,34.631z
		 M46.658,34.632c0,1.031-0.839,1.871-1.871,1.871c-1.031,0-1.871-0.84-1.871-1.871s0.84-1.871,1.871-1.871
		S46.658,33.599,46.658,34.632z M44.786,27.667c1.051,0,1.908-0.856,1.908-1.908c0.001-1.052-0.857-1.908-1.908-1.908
		c-1.052,0-1.907,0.856-1.907,1.908S43.734,27.667,44.786,27.667z M44.786,24.215c0.851,0,1.545,0.693,1.545,1.544
		c0,0.852-0.693,1.545-1.545,1.545s-1.545-0.693-1.545-1.545C43.241,24.908,43.934,24.215,44.786,24.215z M49.665,45.021h-40
		c-0.965,0-1.75,0.785-1.75,1.75v3.334c0,0.965,0.785,1.75,1.75,1.75h40c0.965,0,1.75-0.785,1.75-1.75v-3.334
		C51.415,45.806,50.63,45.021,49.665,45.021z M49.915,50.105c0,0.139-0.112,0.25-0.25,0.25h-40c-0.138,0-0.25-0.111-0.25-0.25
		v-3.334c0-0.137,0.112-0.25,0.25-0.25h40c0.138,0,0.25,0.113,0.25,0.25V50.105z M59.585,13.181h-2.93v-1.408
		c0-0.802-0.652-1.454-1.454-1.454l-3.757-0.007c-0.054-0.706-0.683-1.264-1.449-1.264h-0.274V7.413
		c0-0.802-0.651-1.454-1.453-1.454h-0.854c-0.803,0-1.454,0.652-1.454,1.454v1.636c0,0.004,0,0.009-0.001,0.014
		c-0.588,0.09-1.046,0.614-1.087,1.258c0,0-0.002-0.001-0.003-0.001H22.031V8.775c0-0.965-0.785-1.75-1.75-1.75h-9.467
		c-0.965,0-1.75,0.785-1.75,1.75v1.545H6.451c-0.803,0-1.454,0.652-1.454,1.454v21.138c0,0.803,0.651,1.453,1.454,1.453h0.453
		c0.035,0,0.09,0.049,0.094,0.084l0.06,0.484c0.093,0.762,0.768,1.361,1.537,1.361h0.189v2.854c0,0.402,0.325,0.727,0.727,0.727
		c0.401,0,0.727-0.324,0.727-0.727v-2.854h0.65c0.766,0,1.443-0.596,1.541-1.354l0.062-0.48c0.004-0.037,0.062-0.088,0.1-0.088
		h0.121c0.744,0,1.432-0.547,1.6-1.27l2.222-9.555c0.015-0.063,0.119-0.146,0.183-0.146h17.442c0.277,0,0.646,0.117,0.742,0.187
		c0.057,0.053,0.165,0.283,0.165,0.48v17.504H1.454C0.652,41.572,0,42.226,0,43.028v5.754c0,0.801,0.652,1.455,1.454,1.455h1.332
		c0.173,0,0.478,0.15,0.581,0.289l2.763,3.682c0.378,0.508,1.112,0.873,1.745,0.873h43.607c0.618,0,1.354-0.344,1.752-0.818
		l5.852-7.002c0.369-0.441,0.634-1.18,0.629-1.756l-0.047-5.391c-0.006-0.723-0.535-1.418-1.23-1.619L57.11,38.11
		c-0.074-0.021-0.17-0.15-0.17-0.229l0.057-15.84h2.589c0.803,0,1.454-0.652,1.454-1.454v-5.951
		C61.039,13.834,60.388,13.181,59.585,13.181z M10.565,8.775c0-0.138,0.112-0.25,0.25-0.25h9.467c0.138,0,0.25,0.112,0.25,0.25
		v1.545h-9.967V8.775z M59.585,20.587h-2.589c-0.8,0-1.454,0.65-1.456,1.451l-0.056,15.839c-0.002,0.728,0.524,1.428,1.222,1.631
		l1.329,0.383c0.076,0.021,0.179,0.156,0.18,0.236l0.046,5.391c0.003,0.227-0.145,0.635-0.291,0.811l-5.851,7.001
		c-0.119,0.143-0.451,0.297-0.637,0.297H7.875c-0.175,0-0.479-0.152-0.582-0.289L4.53,49.654c-0.379-0.506-1.112-0.873-1.744-0.873
		H1.454v-5.754h33.612c0.802,0,1.453-0.652,1.453-1.455V24.069c0-0.545-0.257-1.286-0.75-1.646c-0.423-0.312-1.131-0.475-1.61-0.475
		H16.717c-0.744,0-1.432,0.547-1.6,1.271l-2.221,9.554c-0.014,0.062-0.121,0.146-0.184,0.146h-0.121
		c-0.766,0-1.442,0.595-1.541,1.354l-0.062,0.479c-0.006,0.037-0.063,0.088-0.1,0.088H8.595c-0.034,0-0.09-0.049-0.094-0.082
		l-0.06-0.484c-0.092-0.763-0.768-1.361-1.537-1.361H6.451V11.774H44.87c0.773,0,1.408-0.569,1.451-1.286
		c0.626-0.097,1.094-0.695,1.094-1.439V7.413h0.854v1.636c0.125,1.638,1.729,1.46,1.729,1.46c0.054,0.706,0.684,1.265,1.45,1.265
		h3.753v1.408c0,0.803,0.653,1.454,1.454,1.454h2.93C59.585,14.637,59.585,20.587,59.585,20.587z"/>
</g>
<g>
</g>
<g>
</g>
<g>
</g>
<g>
</g>
<g>
</g>
<g>
</g>
<g>
</g>
<g>
</g>
<g>
</g>
<g>
</g>
<g>
</g>
<g>
</g>
<g>
</g>
<g>
</g>
<g>
</g>
</svg>
