<svg id="FreeVector-Background" xmlns="http://www.w3.org/2000/svg" xmlns:xlink="http://www.w3.org/1999/xlink" viewBox="0 0 861.12 614.26"><defs><style>.cls-1,.cls-15,.cls-17,.cls-22,.cls-23,.cls-26,.cls-27{fill:none;}.cls-14,.cls-16,.cls-19,.cls-2,.cls-20,.cls-25{fill:#fff;}.cls-13,.cls-3{fill:#7a7b7b;}.cls-4{fill:url(#linear-gradient);}.cls-5{fill:#dfdfde;}.cls-6{fill:#d6d6d6;}.cls-7{fill:#d1d1d2;}.cls-8{fill:#6d6d6d;}.cls-9{fill:#676767;}.cls-10{fill:#ebebec;}.cls-11{fill:#f7f8f9;}.cls-12{fill:#e3e3e3;}.cls-13,.cls-16,.cls-17,.cls-18,.cls-19,.cls-25,.cls-26,.cls-27{stroke:#7a7b7b;}.cls-13,.cls-14,.cls-15,.cls-18,.cls-19,.cls-20,.cls-22,.cls-23,.cls-25,.cls-26,.cls-27{stroke-width:2px;}.cls-14,.cls-15,.cls-20,.cls-22,.cls-23{stroke:#787878;}.cls-15,.cls-25,.cls-27{stroke-linecap:round;}.cls-18{fill:url(#New_Pattern_Swatch_2);}.cls-20,.cls-22{stroke-linejoin:round;}.cls-21{fill:#010302;}.cls-24{fill:#787878;}</style><linearGradient id="linear-gradient" x1="115.49" y1="298.21" x2="729.76" y2="298.21" gradientTransform="translate(728.77 -115.49) rotate(90)" gradientUnits="userSpaceOnUse"><stop offset="0" stop-color="#7bc2d2"/><stop offset="1" stop-color="#4f8ca5"/></linearGradient><pattern id="New_Pattern_Swatch_2" data-name="New Pattern Swatch 2" width="8.5" height="8.5" patternUnits="userSpaceOnUse" viewBox="0 0 8.5 8.5"><rect class="cls-1" width="8.5" height="8.5"/><rect class="cls-2" width="8.5" height="8.5"/><circle class="cls-3" cx="4.25" cy="4.25" r="2.13"/></pattern></defs><title>bot3</title><rect class="cls-4" width="861.12" height="614.26"/><path class="cls-5" d="M466.85,300.22l-6.31,14.25-7.22,19.66-2,4.87-7,16.42L440,368.77l-3.25,12.45-5.59,18.94-1.62,6.49-6.14,12.81-3.25,7.94-0.9,7.76-2.17,12.27L412,463.3l-4.87,9.38-11.73,23.63-6.31,13.35L387.47,521l-6.86,6.86-3.79.18-5.77-4.87,0.36-6.67,4.15-14.07,3.07-19.85,4-19.3,11.18-40.05,4.69-12.45,3.25-14.61,0.18-8.48,2.17-7.4L407,364.8l2.53-14.25,2-11.18,1.08-3.73,1.44-7.76,0.84-4,2-7.61s3.79-13.41,4.93-15.55,8.36-5,8.36-5l12.15,0.6Z" transform="translate(10.19 7.81)"/><path class="cls-6" d="M371.17,524.22l0.24-8.54,3-9.5,1.32-6.25,0.84-6.13,4.81-26.58,2.4-8.9,7.1-24.17,2-7.82,1.68-4,3.61-11.55,1-.48,0.24-2.53,2-10.46,0.36-9.26,2.41-8.42,2-12.39,1-4.69,5.41-29.47,0.87-3.64,1.53-7.1,1.38-4.8,1.69-6.25,1.71-5.32,2.12-5.23,18.08,5.32,0.27,1.35a20.8,20.8,0,0,1-6-1.53c-2.35-1.17-11.82-4.6-12.54-2.8s-3,8.3-3.7,11.19-3.7,16.23-4.6,21.38-5.32,28.71-5.92,33.65-1.2,11.54-2.28,14.19-1.44,4.57-1.2,6,1.68,7,0,9.5a15.52,15.52,0,0,0-2.65,6.14s-1.38,5.83.06,8.18,5.05,0.72,6.49.72c0,0,4.15-.54,4.33,2.35s-2.17,3.61-5.59,4-10.1.9-11.73,6.31c0,0-8.12,25.25-9.38,31.39,0,0-3.79,16.78-4.51,21.83s-3.07,17.32-3.25,21.47-1.8,8.66-3.25,12.09-2,13.35-1.44,14.79l-1.8-.72Z" transform="translate(10.19 7.81)"/><path class="cls-6" d="M435.16,301.24s4.69,7.94,9.14,10.95,4.21,6.37,1.56,11.3a113.51,113.51,0,0,0-9.32,28.32c-1.62,10.1-4.69,33.56-7,41.13s-4.15,10.28-4.69,13.17a31.1,31.1,0,0,1-3.79,9.38,33.64,33.64,0,0,0-4,11.55c-0.54,4-2.89,19.3-6.31,27.42S398.83,480.8,395,486.39s-14.61,23.09-15.51,32.11-4,10.1-4,10.1l6-.72,4.33-3.61,4.69-16.42,7.94-24.36,7-8.48,6.86-16.6,4.69-12.63,1.8-12.63,4.69-14.61,3.79-7.58,9.2-33.37L449.35,341l9.38-23.27,0.18-9.92Z" transform="translate(10.19 7.81)"/><path class="cls-7" d="M429.16,298.34l-7.24,1.34A263.09,263.09,0,0,0,412.55,332c-3.43,16.24-7.22,32.65-7.4,37.88A44.05,44.05,0,0,1,403,382.12a49.58,49.58,0,0,0-2.16,12.45,30.14,30.14,0,0,1-1.44,8.3c-0.54,2.35-.72,5.41-1.26,7.21a75.65,75.65,0,0,1-3.25,8.12c-1.26,2.71-16.06,51.59-18.4,72.16,0,0-1.08,10.11-2,13.71s-5.05,13.89-4.33,17.5-2.71,17.86-2.71,17.86l-0.54,4.33-1.26,4.51-0.9,3.25L364,554l1.44,2.71h16.6l0.72-3.79-3.61-22.55,6.31-.18,2.89-2.88,3.61-4.87,1.62-5.23s-3.25-1.8,1.08-14.43,7.94-17.5,10.1-21.83,11.55-17.86,16.42-49.79c0,0,1.08-8.84,3.61-13s5.59-7.94,7.4-16.78S443.93,361,445.38,356a87,87,0,0,1,5.23-12.63c1.08-2.35,4.69-9.56,6.13-12.27s3.61-9.92,4.51-11.72a5.93,5.93,0,0,1,3.25-3.07c1.44-.72,7.58-3.43,7.58-7.94,0-2-5-4.65-10.68-7.08l-25,.22s7.21,8.3,10.82,8.66,13,1.8,6.13,13.71-14.07,28.51-15.87,36.44-3.25,26-7.58,36.44-3.25,13-6.85,18.76A37.73,37.73,0,0,0,418,431.37c-0.36,3.61-2.17,14.79-5.77,23.46S399.92,479,397,485.13s-18,26.34-17.32,41.49L372,522.29s-1.26-3.61,3.43-16.6a14.08,14.08,0,0,0,1.26-4.87c0.36-3.25,4.15-27.42,5.77-33.37s11-42,14.25-48.89,3.43-9.2,3.61-12.45,2.53-6.5,3.25-9.2-1.44-7.76-.9-9.2,3.25-9.56,3.61-13.35,3.61-20.75,4.69-27.42,7.22-42,11.91-46.72Z" transform="translate(10.19 7.81)"/><polygon class="cls-5" points="522.04 313.62 519.25 332.29 517.17 369.55 515.55 383.44 513.29 407.97 513.83 437.29 514.47 448.29 511.4 470.48 505.99 496.91 501.39 512.06 499.49 523.88 498.23 537.86 488.58 541.74 484.34 537.14 483.44 529.93 486.41 518.92 486.95 496.37 486.41 487.35 486.05 472.11 486.59 439.81 488.4 421.95 485.78 393.36 483.26 364.13 485.06 343.21 483.44 319.66 483.53 311.73 488.94 305.14 512.66 305.41 522.04 313.62"/><path class="cls-6" d="M479.48,304.9s-8.12,9.2,3.25,6,21.65-3.61,24.53-3.25,4.15,1.62,2,6.86-4.87,21.65-4.69,34.64-0.18,20.93-.9,26-3.06,15.88-4.87,18.4S489.4,402,490.84,405s6,6.31,4,8.84-5.59,4-8.66,2.34-6.67,7-.54,7.22,10.46-4.69,13-4.69,5.23,1.2,3.07,20.69-6,41.86-7.94,48.83-7.21,26.94-7,34.4-4.09,9.86-8.18,8.9-4.09-7.22-4.09-7.22,4.81-15.63,4.57-21.89-3.13-23.81-2.41-32.47,0.24-40.65,1.44-45.94,4.33-7.7,2.65-14.43-2.65-16.6-3.13-21.17-4.09-25-2.89-35.12,4.57-18.76,1.92-28.87-2.41-18.76,3.85-22.61l-7.22,1.44-1.44,6.5v4.33l0.72,7.22,0.72,6.49,0.24,8.24-0.12,11.12-0.78,6.44-0.24,7.57,0.9,6.74v2.28l1,8.54,0.12,3.55,0.84,7.16,0.18,6,0.72,4.45,0.84,6.62-0.06,4.27,0.42,6.07-0.78,8.3-0.12,3.73L476,442.62l-0.48,8.48-0.06,5.29v6.32l0.3,17.08,0.36,7.46-0.12,2,0.24,12.21-0.78,7.88-2.29,11.91-0.6,8,0.72,5.65,7.52,3.43,7.1-5.17,1.74-5.17-0.6-9.56,2.65-12,2.53-10,2.16-8.12,4.45-16.36,3.49-23.45L505,434l-0.9-17.62-0.06-18.46L505.51,383l2.16-19.49,0.84-19.12L510,329.68l3.91-14.19,0.78-12.75-3.43-7.7s-21.83,4-22,4S479.48,304.9,479.48,304.9Z" transform="translate(10.19 7.81)"/><path class="cls-7" d="M515.86,297.75s1.68,4.81-1,16.84-5.53,25-5.53,30.07-1.68,27.18-2.88,35.84S504.31,400,504.55,407s1.44,22.13,1.2,30.55-2.41,24.05-3.61,31.51-7.7,28.62-9.38,35.36-2.89,11.54-2.65,15.39,1.44,13.95-2.4,18l-1.93,12.75L483.14,564l-7.94-.24-8.9-.72-4.57-3.12s1-7.22,3.13-10.11,5.53-13.23,5.53-13.23l1.68-10.82-0.36-1.41a31.53,31.53,0,0,1,1.26-5.59s2.83-10.91,2.83-20.05-1.08-30.31-.6-44.74,0.84-26.22,1-32.53,0.36-9.38-.54-16.42a191.5,191.5,0,0,1-1.44-19.12c-0.18-6-2.7-24.54-2.52-30.85s1.62-22.19,0-30.31-2.71-18.4-2-22.19l5.59-.36s-2.34,9.92-1.26,16.06,2,17.5.9,24.17-1.8,15.52-1.45,20.93,2.17,19.3,2.17,24,0.54,10.82,1.26,13,1.62,4.87.9,7.76a10,10,0,0,0,.18,4,11.07,11.07,0,0,1,.18,6,82.72,82.72,0,0,0-1.26,11c0,2-1.08,20.93-.9,24.89s-0.36,25.44.36,33,0.9,15.34.18,19.12-3.43,18-2.89,24.71,6.5,4,6.5,4l4.15-1.62s3.43,0.18,3.79-9.92,4.33-25.07,6.31-31.57,7.22-25.26,8.66-38.61,1.08-19.49.18-35a153,153,0,0,1,1.26-30.13c0.36-2.89,3.43-33.92,3.25-44s2.89-24.35,4.87-30.67,1.26-9.74-1.62-13.71Z" transform="translate(10.19 7.81)"/><path class="cls-7" d="M394.63,524l1.73,3.21-5.58,6.05-4.09,2.64s0.24-5.41.6-5.65,5.17-6.49,5.17-6.49Z" transform="translate(10.19 7.81)"/><path class="cls-8" d="M504.79,305.57s-10.1,2.64-14.07,2.77a99.22,99.22,0,0,0-14.8,2c-3.73.84-17.56,2.41-17.38-.24l1.26-1.8,0.84-10.83-0.12-10.94,0.12-9.38L459.93,264,458.73,246l-1-28.26,1.08-9.62,1.08-6.37,1.44-10.7,4.81-3,11.55-11.91,3.73-6.61,11.42-10.95,4.81,13.23,1,19.72-5.29,11.06,0.24,34.52,11.06,10.34,6,19.84,4,11.91-1,17.44Z" transform="translate(10.19 7.81)"/><path class="cls-8" d="M450.43,148.49l-1.92,4.81L448,164.13l2.77,13.11,5.89,10.22,4.09,2.77-0.24,3.37-0.48,6.13-2.17,10.82-0.48,5.05,1,25.14v9l1.8,22-0.24,9,0.36,14.07-0.6,11.67-1.14,3.61-0.72.36a14.62,14.62,0,0,1-4.51-.66c-2-.72-11.54-3.85-14.13-4.75A61.71,61.71,0,0,1,432,301.6l-6.61-5.89,6-10.34-2.16-8.78,5.29-21.65-0.36-28.26-2.41-12-3.73-17L427.46,176l-9.14-10.1-0.48-15.52,2.53-12.75,10.22,2,10.7,2.77,8.54,2.16Z" transform="translate(10.19 7.81)"/><path class="cls-9" d="M447.3,142.48l-9.5-2.17s-6.86-.6-7.22-2.41-3.25-2.28-4.09-1.44a4.75,4.75,0,0,0-2.29-1.08c-1.2-.12-7.7-5.05-8.9-4.93l-0.24,7,1,9L414,160l-2.89,1.8s5.29,5.77,6.74,8.78,3.73,6.13,4.69,15.76,2.64,15.27,3.85,20.93,4.33,19.84,5.17,24.05,1.81,7.94.6,14.31-3,12-3.61,15.88-2.41,7.94-1.8,9.5a16.37,16.37,0,0,0-2,8.54,12.49,12.49,0,0,0-1.32,8.78,5.65,5.65,0,0,1-.24,2.65c-0.48,1.44-1.92,6-1.92,7.82a6.48,6.48,0,0,1-1.32,4.21s0,0.6,1.2,0,5.53-.66,7.7.24,21.29,6.38,16.84,1.56-8.9-4-8.9-4-13-.12-4-10.34,19.12-11.06,18.58-16.48-11.19,6.13-15.7,4.15-5.23-7.4,1.44-24,3.25-26.88,2.17-34.1-1.08-11.55-.54-15.51-11-13.17-5.05-23.27,2-12.63-2.52-12.63-13.35-4.87-10.64-16.42,9.92-13.35,9.92-9,0.36,11.37,1.26,13c0,0-1.44-11.55,0-14.43,0,0,1.26-.36,1.08,3.79s1.44,2.35,1.44,2.35,0.54,16.42,1.63,18.58c0,0,.9,1.26.9-2.71s-3.07-11.36-.72-15.33,9.56-1.62,9.56-1.62Z" transform="translate(10.19 7.81)"/><path class="cls-9" d="M500,306.71s17.68-8.84,10.28-35.54-24.9-25.62-27.06-38.43,3.43-25.08-1.26-28.68a7.23,7.23,0,0,0-5.05-.18s-0.93.27-1.08-.39,1-.63,1.26-0.66,19.85-7.07,16.6-21.5S486,165.63,486,161.48s1.8-12.81,1.8-12.81l3.07-7,7.94,0.54a63.17,63.17,0,0,0,7.4,1.8c2,0.18,9.74.9,11.37,3.61l1.62-.54s17.68,18.4,19.3,22.37l-2.35,7-12.27,12.09s-6-2-9.2-2-3.43,0-4,1.26-1.44,3.25-2.89,3.61a8.2,8.2,0,0,0-5.05,4.87c-0.9,2.71-6,13.17-6,20s7.4,20.93,7.58,27.42,4.87,6,4.87,6,10.28,24.72,8.12,49.61a3,3,0,0,1,.54,2.77c-0.6,1.32-1.44,1-3.25,1.44S502.87,307.25,500,306.71Z" transform="translate(10.19 7.81)"/><path class="cls-9" d="M397.75,150.26l8.07,4.19,2.71,1.85-1.89,3s-3.07.72-4.47-1a32.46,32.46,0,0,1-2.93-4.78,23.13,23.13,0,0,1-1-2.75A0.73,0.73,0,0,0,397.75,150.26Z" transform="translate(10.19 7.81)"/><path class="cls-10" d="M380.91,529.15s1.32-3.25.6-4-8.78-7-13.71-3.37l-0.12,11.54,5.17,2.53Z" transform="translate(10.19 7.81)"/><path class="cls-9" d="M385.06,540.15l2.83-1.56s0.9,12.09.48,15l1.62,0.9,1.86-1s-2.22-14.37-.66-18.76c0,0,5.59-4.87,5.17-6.55a3.1,3.1,0,0,0-1.26-2.1s-6.07,9.08-10.52,11.12Z" transform="translate(10.19 7.81)"/><path class="cls-9" d="M382.78,559.34s2.22,8.54-13.41,8.72-13.47-2-13.47-2-0.12-5.47,4-6.07l4.33-2,5.47-.24,6.68,0.12Z" transform="translate(10.19 7.81)"/><path class="cls-9" d="M367.72,532.39l-0.45,5.5,0.72,4.69,3.34-.18,3.07-13.35,4.15-.09s-2.44-4.06-9.38-4.06l-1.35.27Z" transform="translate(10.19 7.81)"/><path class="cls-10" d="M485.43,534.92l1.35-2.16s-3.25-8.84-10-9.29-8.93,5-8.66,9.47,13.26,8.39,13.26,8.39Z" transform="translate(10.19 7.81)"/><path class="cls-9" d="M475.87,546.38l6.77-14.7s-6.13-6.95-12.81-.81l1.26,4.24,0.9,11.37S473,548.54,475.87,546.38Z" transform="translate(10.19 7.81)"/><path class="cls-9" d="M461.16,561.44a2.6,2.6,0,0,1,4.06.9l2.34,0.09,4,0.72,7.94,0.9,5,2.17s1.89,8.84-21.29,7.31c0,0-6.5-.36-5.32-3.61,0,0-1.39-1.62.84-5.05S461.16,561.44,461.16,561.44Z" transform="translate(10.19 7.81)"/><path class="cls-10" d="M391.14,519.17s1.44-4,1-5.89c0,0,7.33,7.82,4.33,15.52,0,0-7-4.33-9.5,10.1s-2.77,22.37-5.29,21.77-21.17-7.34-20.93,6.13a2.34,2.34,0,0,1-3.13-.72s0.72-5,1.56-6.13,5.05-4.81,5.17-6.13,0.84-5.05,1.2-7.46,1.44-14.43,1.44-17.8c0,0,.72-0.48.84,1s1,13.47,1,13.47a5.57,5.57,0,0,1-1.08,2.4c-1,1.32-5.89,10.46,0,10.58s12.87,0.6,14.55-.84a5.42,5.42,0,0,0-1.56-2.77c-1.08-.72-11.55-5.65-10.58-11.3s2.53-11.67,2.53-11.67,1-2.65,4.93-1.8S387.65,529.15,391.14,519.17Z" transform="translate(10.19 7.81)"/><circle class="cls-9" cx="406.83" cy="535" r="0.29"/><circle class="cls-9" cx="405.68" cy="533.76" r="0.27"/><circle class="cls-9" cx="404.06" cy="533.53" r="0.23"/><circle class="cls-9" cx="402.32" cy="534.28" r="0.25"/><circle class="cls-9" cx="400.77" cy="535.92" r="0.27"/><circle class="cls-9" cx="399.41" cy="538.22" r="0.23"/><circle class="cls-9" cx="398.24" cy="540.71" r="0.22"/><circle class="cls-9" cx="397.54" cy="543.3" r="0.2"/><circle class="cls-9" cx="390.1" cy="540.01" r="0.34"/><circle class="cls-9" cx="388.73" cy="542.55" r="0.45"/><circle class="cls-9" cx="387.94" cy="545.37" r="0.47"/><circle class="cls-9" cx="387.39" cy="548.26" r="0.38"/><circle class="cls-9" cx="387.46" cy="551.17" r="0.45"/><circle class="cls-9" cx="387.67" cy="554.03" r="0.38"/><circle class="cls-9" cx="388.23" cy="556.85" r="0.32"/><circle class="cls-9" cx="393.06" cy="566.14" r="0.27"/><circle class="cls-9" cx="391.03" cy="565.47" r="0.32"/><circle class="cls-9" cx="388.95" cy="565.15" r="0.32"/><circle class="cls-9" cx="386.42" cy="564.97" r="0.32"/><circle class="cls-9" cx="383.81" cy="564.97" r="0.27"/><circle class="cls-9" cx="380.85" cy="564.63" r="0.25"/><path class="cls-2" d="M362.84,566.58a1,1,0,0,1-1-1.23A1.31,1.31,0,0,1,363,564a23.27,23.27,0,0,1,4.78.54c1.8,0.51,4.84,1.17,5.8,0,0,0-.57,1.77-6,1.26a3.94,3.94,0,0,0-2.59.12A4.64,4.64,0,0,1,362.84,566.58Z" transform="translate(10.19 7.81)"/><path class="cls-10" d="M461.53,571.45a6,6,0,0,0,3.79.72s0.72-7.85,3.34-7.85,15.06,0.27,15.69,3.61c0,0,3-9.92,3.16-12.54s2.34-17,3.07-18.13a9.72,9.72,0,0,0-.09-7.3s-1.81,3.16-1.63,5.14a2.18,2.18,0,0,1-1.8-1s-3.16-2.88-4.78-2.88-3.52.63-4.51,4-2.7,9.2-2.7,9.2a9,9,0,0,0,2.16,6.5c2.62,3.06,5,6,5,6s3.7,4.78-1.08,5.41a27.87,27.87,0,0,1-12.54-.9c-3.34-1.17-9.2-3.16-4.69-7.31s7.21-2.89,8.39-8.93a53.56,53.56,0,0,0,.81-11.91s0.36-3.34-3-2.53-3.61,6.68-3.61,6.68-1.17,8.93-2.62,11.72a29.62,29.62,0,0,0-2.43,8.48,21.45,21.45,0,0,1-1.62,5s3.7-.72,4.24.36A15.17,15.17,0,0,0,461.53,571.45Z" transform="translate(10.19 7.81)"/><circle class="cls-9" cx="482.29" cy="533.62" r="0.27"/><circle class="cls-9" cx="484.46" cy="533.2" r="0.33"/><circle class="cls-9" cx="486.74" cy="533.2" r="0.33"/><circle class="cls-9" cx="489.48" cy="534.08" r="0.42"/><circle class="cls-9" cx="491.77" cy="535.46" r="0.36"/><circle class="cls-9" cx="493.9" cy="537.35" r="0.39"/><circle class="cls-9" cx="495.31" cy="539.49" r="0.36"/><circle class="cls-9" cx="494.74" cy="544.39" r="0.39"/><circle class="cls-9" cx="493.6" cy="546.97" r="0.45"/><circle class="cls-9" cx="492.79" cy="549.59" r="0.48"/><circle class="cls-9" cx="492.04" cy="552.51" r="0.51"/><circle class="cls-9" cx="491.41" cy="555.3" r="0.42"/><circle class="cls-9" cx="491.56" cy="558.22" r="0.45"/><circle class="cls-9" cx="491.77" cy="561.32" r="0.36"/><circle class="cls-9" cx="478.51" cy="542.4" r="0.33"/><circle class="cls-9" cx="477.97" cy="545.41" r="0.33"/><circle class="cls-9" cx="477.81" cy="548.03" r="0.36"/><circle class="cls-9" cx="477.27" cy="550.97" r="0.36"/><circle class="cls-9" cx="476.58" cy="553.65" r="0.39"/><circle class="cls-9" cx="475.8" cy="556.41" r="0.33"/><circle class="cls-9" cx="474.69" cy="559.03" r="0.3"/><circle class="cls-9" cx="472.52" cy="568.29" r="0.3"/><circle class="cls-9" cx="473.94" cy="568.98" r="0.33"/><circle class="cls-9" cx="476.1" cy="569.46" r="0.33"/><circle class="cls-9" cx="478.81" cy="570.25" r="0.27"/><circle class="cls-9" cx="481.78" cy="570.76" r="0.3"/><circle class="cls-9" cx="484.49" cy="571.18" r="0.3"/><circle class="cls-9" cx="487.14" cy="571.48" r="0.3"/><circle class="cls-9" cx="489.78" cy="571.48" r="0.36"/><circle class="cls-9" cx="492.1" cy="571.69" r="0.45"/><circle class="cls-9" cx="493.45" cy="572.2" r="0.18"/><circle class="cls-9" cx="494.86" cy="573.13" r="0.33"/><path class="cls-10" d="M468.83,571s-1.62-.41-1.26-1.31,1.13-.86,2.17-0.63,4.73,1.31,7-.36C476.77,568.75,475.6,571.77,468.83,571Z" transform="translate(10.19 7.81)"/><path class="cls-10" d="M461.31,563.25s1.86-.42,1.2.84-5.11,1.68-4.33,4.57C458.19,568.66,456.86,565.11,461.31,563.25Z" transform="translate(10.19 7.81)"/><polygon class="cls-5" points="555.15 186.71 559.57 191.76 567.14 198.25 572.65 205.11 578.96 213.59 582.39 217.92 585.18 223.51 583.11 229.19 577.34 233.7 573.1 240.38 566.51 246.96 556.14 256.25 539.72 266.99 537.56 265.18 537.65 258.06 541.53 253.64 544.14 249.22 557.85 236.59 560.47 231 564.35 225.22 564.89 222.07 562.46 220.26 541.8 198.52 543.69 187.07 555.15 186.71"/><path class="cls-6" d="M544.36,178.62l5.17,4.33,8.18,7.58L561.8,195l4.92,5.38,4.08,5.35,1.87,3.36,2.23,4.33,0.88,3.86,0,1.33-4,4.76-6.54,7.19-9.18,9.2-7.53,7.13-10.19,7.42-3.32,3.32-6.63,3.83-5.32-.77-5.71-2-1.37-3,0.81-2.77,4.24,0.79,8.66-7.49,5.44-5.73,3.47-3.34,5-5.41,4.11-5,2.17-3,0.81-1.35,2.23-4s1.44-2.68,1.65-3l-1.8-1.08-6.88-8.5-10.06-11.32,4.51-10.74,2.34-2.3s2.21,2.75.45,4.92-6.72,6.72-4.15,8.79,11,10.91,14.48,17.23a7.77,7.77,0,0,1,4.29-3,29.43,29.43,0,0,0-1.8,3.07,4.83,4.83,0,0,1,2.71-.86s-1.08,1.22-1.71,2.12-1.89,3.47-2.71,5.1a67.74,67.74,0,0,1-5.5,9.29,165.74,165.74,0,0,1-12.81,13.71,9,9,0,0,0-2.53,3.07c-1,2-1.62,6.13-3.07,8.12,0,0-1.9,2.26-.54,3.61s3.7-2.17,3.7-2.17a29.61,29.61,0,0,1,8.93-8.39c5.5-3.16,13.08-7.13,18-13.53s7.58-9.65,9.65-11.46,6-2.71,1.26-10.19-13-18.85-20.12-23.9-8.21-4.78-8.75-7.67Z" transform="translate(10.19 7.81)"/><path class="cls-7" d="M528,190.31c1.81,3.15,5.8,4.94,7.74,6.23,2.53,1.68,7.34,7.46,9.86,10s7.07,8.81,7.74,9.42,0.31,0.93.31,0.93c-1.2,1.2-3,4.93-5.17,8.06A127.92,127.92,0,0,1,538,237.2c-2.64,2.64-10.1,9-13.23,12s-4.33,1.32-7,.36-6.73-2.77-6.73-2.77l-0.24,4.69,2.41,1.44,0.48,3.61,4,3.13a64.8,64.8,0,0,1,6.73,2.17c4.21,1.56,6.37.12,8.06-1.32s13.71-10.1,16-11.43,11.67-11.06,12.87-12.87S573.59,222.4,575.51,220s1.92-3.13-2.89-12.27c-4.22-8-21.37-24.89-25.54-28.94l-3.2,2a41.87,41.87,0,0,1,13.23,10c6,6.86,11.07,11.3,13.47,15.75s6.13,10.46,4.21,12.87S564.44,229.62,561.68,233a56.12,56.12,0,0,1-14.43,12,36,36,0,0,0-12.15,10.34,12.23,12.23,0,0,1-16.36,2.89s-2.65-2-.36-2.29,5.77,4.57,10.1-3.25,3.37-8.78,8.42-13.23,13-14.07,15.28-18.64,3.85-7.7,5.65-8.9c0,0-2.52,1.2-3.25,2.77,0,0,.84-3.37,2.76-5.05a6.4,6.4,0,0,0-3.73,4.09s-9.38-14.19-15.15-17.68,5.65-9,3.49-13.47-9.26,2.77-9.26,2.77Z" transform="translate(10.19 7.81)"/><path class="cls-6" d="M512.54,249.08s2.25-.46,1.3-1.16-4.51-2.21-6.17-4.07-3-3.26-5.22-3.84-2.73-.7-4.15-1.86c0,0-1.42-.58-2,0.46s0.24,4.19,2.61,4.65a8.17,8.17,0,0,0,3.2.23s-2.49.7-4.62,1.16-6.17.93-6.28,1.86-0.36,3,2.84,2.67c0,0-1.66,3.72,3.44,3.84a23.34,23.34,0,0,1,2.85.47,1.75,1.75,0,0,0-1.07,1.16c0,0.7.36,1.74,2.73,2s7.82,0.93,9.25,2.09,13.16,8.6,16.71,4.07c0,0,.89-0.93,0-1.28s-9.81-1.16-10.76-4.19-1.66-3.26-3.2-4.07S509.46,250.71,512.54,249.08Z" transform="translate(10.19 7.81)"/><path class="cls-5" d="M443.39,50.81s1.17-1.17,2.08-.72,2.16,2,3.52,2,3.07,0.63,5,.81,4.78,0.18,6,.18,2.25-.54,2.7.54a7.88,7.88,0,0,0,2.8,3.61,5.2,5.2,0,0,1,2.25,2.16,11.57,11.57,0,0,0,2.8,3.16L471.09,64s1.35,1.53-.18,2l-0.72.18L471.45,67s-0.27,1.53-2.16,1a19.24,19.24,0,0,1-4.06-1.89c-1.08-.54-3.79-3.61-6-3.25,0,0-.18.63,1.26,1.35s1.44,1.26,2.07,1.44a5.75,5.75,0,0,1,2.26,2.16l1.26,1s-0.63,2-3,.72a16.34,16.34,0,0,0-3.7-1.71c-0.72-.18-2.17-0.81-2.08-1.35,0,0-5.86.36-8-.27l-6.86.18-5.86-1.8-1.17-4.42s0.72-3.88,1.08-4.15,2.8-2.25,3.07-2.35S443.39,50.81,443.39,50.81Z" transform="translate(10.19 7.81)"/><path class="cls-6" d="M433.38,68.67l2.17,0.54,3.88-.54,3.61-.9,2.26-.81L450,65.87s1.8-1.17-1.08-1.35-9.74.09-9.29-1.26,2.43-1.35,2.07-2.34a2.2,2.2,0,0,1,1.35-3c1.62-.72,1.8-1.44-0.27-1.62s-2.43-1.71.27-2.53,3.34-1.08,3.7-1.53-0.54-.81-3.34-0.27a8.85,8.85,0,0,0-4.15,1.8l-1.71,2.35-4,4.51-1.71,1.17V64Z" transform="translate(10.19 7.81)"/><polygon class="cls-5" points="417.56 156.55 418.16 149.69 417.08 141.39 403.49 129.73 397.71 120.59 397.35 117.1 410.58 103.87 428.14 86.67 433.92 80.42 440.41 76.33 441.49 72.36 437.52 70.8 426.46 75.37 406.86 87.51 393.87 98.34 385.45 107.72 378.95 113.85 376.55 115.78 381 126.36 385.33 133.82 393.63 143.8 406.13 155.59 416.48 161.84 417.56 156.55"/><path class="cls-6" d="M405.15,140.62s2,4.27-.24,7.88-6.68-1.32-9.38-4.81-1.32-7-7.27-10-13.41-6.07-13-11.55a2.55,2.55,0,0,1,1.14-2.29c1.26-.72,7-2.1,3.79-4.57s-4.72-.36-5.92.42-2.49,1-3.1-.27-0.3-2.49-1.11-3.73-3-2-1.05-3.49,4.63-.63,7.16-6,10.46-13.35,17.32-17.86,10.64-7.39,15.15-9.74,13-7.1,17.26-8.36,3.91,0.84,2.23,1.8-7.28,3.67-9.14,5.47-2.77,5.77-5.83,7.76-8.12,7.58-12.36,12S389.36,105.65,387,107.63s-6.49,5.86-2.52,9,3.52,6.13,3.52,6.13-0.45,4.15,4.33,3.16,8.66,4.24,9.83,7.94A36.34,36.34,0,0,0,405.15,140.62Zm4.6,15.09,2.43-7.76-4.78-12.27-5.32-9.29-7.31-8.66-6.13-3.88L388,110.52l1-2,2.95-3.19,5.32-5.5L404,92.54l9.05-8.78,8.09-7.1L424.91,74l0.51-1.56,2-1.17,3.7-2.49,2.7-3.1-1.44-4.93-12.33,3.19-10,6.85L394.26,81,380.67,91.91l-4.27,3.91-5.35,6.56-4.15,3.25-1.08,2.1,1.32,4,5.05,10.7,6.07,8.66,5.17,5.77,2,2.29,4.75,5.17,7.34,5.47,4.87,2.59Z" transform="translate(10.19 7.81)"/><path class="cls-7" d="M410.26,157.75A90.57,90.57,0,0,1,383.32,139s-12-15.39-14.43-21.17-2.77-6.73-3.25-7.82a3.47,3.47,0,0,1,.24-4c1.2-1.8,19.84-20.57,28.62-26.1s19.12-12,24.05-16a29.22,29.22,0,0,1,10-5.65,54.18,54.18,0,0,0,7.94-3.37c2.16-1.32,3.13-1.92,4.33-2.53s2.17-1.92,3-1.8,0.36,1.92-1.2,2.41-4.81,1.93-4.45,5.17-1.56,4.69-6.62,5.05-20,6.86-26.94,11.67S389,84.64,382.24,91.37s-8.9,9.5-9.26,11.31-1.92,2.89-5.41,3.37a2.91,2.91,0,0,0-.72,3.49c0.84,2.41,2.41,2.41,2.65,3.85s0.48,5.41,5,3.61c0,0,2.29-1.2,2.65-.24s-2.29,1.32-2.29,1.32-5.65,1.08,4.33,12.87,14.31,19,33.92,24.78Z" transform="translate(10.19 7.81)"/><path class="cls-7" d="M411.34,152.11a75.34,75.34,0,0,1-6.13-17.56s-2.41-8.18-7.82-12.51a11,11,0,0,0-5.77-1,2.42,2.42,0,0,1-2.65-2.53c-0.12-2.77-1.93-2.77-2.89-3.49s-1.68-1.56,1.32-5.29S398.47,98.35,402,94.26s11.31-10.94,15.16-15.39,4.57-6,7.58-7.1,5.29-2.29,6.25-4.69,2.16-3.73,6.73-2.77,6.25,0.36,6.25.36a22.07,22.07,0,0,1-6.73,1.68c-2.77,0-4.21,3.13-.6,2.17s7.22-1,8.3-1.8a7.64,7.64,0,0,1,6.86-.6s0.12,0.72-2.17.6a9,9,0,0,0-4.87.9,32.52,32.52,0,0,1-9.5,2.1c-3.43.12-4.57-.12-5.77,1s-1.92,1.59-3.73,3.31-3.34,3-6,5.14-4.06,3.16-7.31,6.13-8.3,7.58-10.1,9.65-7.58,8.21-9.92,10.73-4.06,4.51-3.16,5.68,8.75,8.93,10.55,11.37,7.58,8.93,10.55,9.47l3,0.54,0.63,16.24Z" transform="translate(10.19 7.81)"/><path class="cls-2" d="M464.5,67.86a0.45,0.45,0,0,0,.18-0.66,3.4,3.4,0,0,1,1.92,1.68s-0.06.48-.66,0.18A2.77,2.77,0,0,1,464.5,67.86Z" transform="translate(10.19 7.81)"/><path class="cls-2" d="M469.94,62.49l0,0.85,1.77,2.41a1.14,1.14,0,0,0,.18-1.65c-0.76-.89-1.91-2-1.91-2Z" transform="translate(10.19 7.81)"/><path class="cls-2" d="M469,64.43a1.54,1.54,0,0,0,.42,1.56c0.72,0.6,1.74,1.2,1.74,1.5,0,0,.72-1,0.06-1.32S469.07,64.91,469,64.43Z" transform="translate(10.19 7.81)"/><path class="cls-6" d="M458.49,62.5a23.68,23.68,0,0,0-2.46-.42,18.49,18.49,0,0,1-4-.54c-0.9-.36-1.69-0.66-1.44-1.08s0.78,0.12,1,.36,2.82,0.36,3.85.36a5.91,5.91,0,0,1,2.4.36,8.06,8.06,0,0,1,1.92.78,6.08,6.08,0,0,0,1.56.9s-2.46-.84-2-0.12Z" transform="translate(10.19 7.81)"/><path class="cls-6" d="M462.16,59.44a2.57,2.57,0,0,0-1.92-1.38c-1.38-.18-2.17-0.6-3.07-0.6a34.35,34.35,0,0,1-4.39-.3c-0.78-.18-0.84-0.48-0.3-0.54a18.65,18.65,0,0,0,2.46-.36,3.21,3.21,0,0,1,2-.12,11,11,0,0,0,3,.84c0.84,0,1.51-.24,1.69.3A3.09,3.09,0,0,0,462.88,59c0.6,0.24.9,0.9,0.24,0.84A1.45,1.45,0,0,1,462.16,59.44Z" transform="translate(10.19 7.81)"/><path class="cls-7" d="M459,62.68a7.18,7.18,0,0,0-1.56-.54c-0.54-.06-1.38-0.3-1.68-0.3a24.89,24.89,0,0,1-2.89-.3c-0.36-.12-1-0.36-1-0.36a3.43,3.43,0,0,1,1.32.06,1,1,0,0,0,.9.18,3,3,0,0,1,1.32.12,8.55,8.55,0,0,1,1.08.12,3,3,0,0,0,1,.18C457.95,61.84,459,62.26,459,62.68Z" transform="translate(10.19 7.81)"/><path class="cls-7" d="M453.13,56.85A2,2,0,0,0,454,57a12.79,12.79,0,0,1,1.5.24h1a7.42,7.42,0,0,1,1.33-.06,2,2,0,0,1,.9.24,2.55,2.55,0,0,0,.84.18,11.37,11.37,0,0,1,1.86.6c0.3,0.12.18-.24-0.06-0.42a1,1,0,0,0-.42-0.42,3.48,3.48,0,0,0-.78-0.06,8.54,8.54,0,0,1-1.32-.3,1.23,1.23,0,0,1-.78-0.06,7.74,7.74,0,0,0-1.2-.48,3.5,3.5,0,0,0-.84,0C455.6,56.49,453.13,56.55,453.13,56.85Z" transform="translate(10.19 7.81)"/><path class="cls-2" d="M498.16,240.23s-1.9-1.21-1.81-1.94a0.82,0.82,0,0,1,1.15-.69c0.39,0.12,1.21,1,1.69,1.13a0.5,0.5,0,0,0,.16,0C499.79,238.77,498.91,240.62,498.16,240.23Z" transform="translate(10.19 7.81)"/><path class="cls-2" d="M494.63,245.91a2,2,0,0,1-.45,1.44c-0.5.36-1.76,0.77-1.76,1.22a2.1,2.1,0,0,1-1-2.66,6.44,6.44,0,0,1,2.16-.32C494,245.78,494.49,245.19,494.63,245.91Z" transform="translate(10.19 7.81)"/><path class="cls-2" d="M497.25,249.93a1,1,0,0,1-1.13,1.17c-1.26,0-1.44.59-1.44,0.59s-1.81-1.62-.27-2.66a3.75,3.75,0,0,1,1.4.41C496.25,249.75,497.2,249.3,497.25,249.93Z" transform="translate(10.19 7.81)"/><path class="cls-2" d="M501.85,254.21a0.6,0.6,0,0,1-.41.81c-0.63.14-1.76,0.32-1.76,0.32a3.3,3.3,0,0,1-.41-1.13,0.9,0.9,0,0,1,.59-0.63A5.74,5.74,0,0,1,501.85,254.21Z" transform="translate(10.19 7.81)"/><path class="cls-7" d="M501.08,253.45a13.47,13.47,0,0,0,2.61.09,24.21,24.21,0,0,1,3.88-.41,8.79,8.79,0,0,1,1.71.14c0.95,0.22.95-.23,0.18-0.36a13.35,13.35,0,0,0-3.29-.23,13.73,13.73,0,0,1-2.57.14C503.2,252.77,500.45,252.95,501.08,253.45Z" transform="translate(10.19 7.81)"/><path class="cls-7" d="M502.7,247a10.14,10.14,0,0,1-3.56,1.31c-1.31,0-5.19.14-4.47,0.36a19.11,19.11,0,0,0,3.88.14c0.45,0,1.44-.09,2.21-0.09a27.73,27.73,0,0,0,3.7-.36c0.9-.18,3.61,0,4.33.68a22.84,22.84,0,0,0-2.93-1.35c-1.4-.5-0.86-0.9-0.81-1.4S503.51,246.91,502.7,247Z" transform="translate(10.19 7.81)"/><path class="cls-7" d="M504.06,242.89s4.6,3.07,5.37,3c0,0,.14-0.23-0.5-0.45a32.35,32.35,0,0,1-3.52-2.07C504.73,242.94,504.15,242.4,504.06,242.89Z" transform="translate(10.19 7.81)"/><path class="cls-7" d="M407.37,139.11s3.73,12.39-4.33,13.71l7.1,3.13,2.77-8.18Z" transform="translate(10.19 7.81)"/><path class="cls-11" d="M518.5,187.46a19,19,0,0,0,8.18-5.77c4-4.57,11.06-10.46,10.94-14.67,0,0,.12-1.68,1.56,0s6.85,7.46,6.85,7.46a2.54,2.54,0,0,1-.12,1.92l1.81,2.16a4.39,4.39,0,0,1-1.08,1.92c-0.84.84-5.53,4.09-7.21,5.65s-7,5.41-8.18,5.77-1.8.6-1.8,0.6-2.29-1-3.61-1.32a13.09,13.09,0,0,1-4.33-2A5.45,5.45,0,0,0,518.5,187.46Z" transform="translate(10.19 7.81)"/><path class="cls-7" d="M449.89,149.67l-0.27,9,2.89,11.36,2.25,11.19,2.8,5.5,1.62,2.26,1.54,2.16s-3.61-2.8-6.22-5-9-9.83-9.47-17.68,3-16.6-1.35-21.74Z" transform="translate(10.19 7.81)"/><path class="cls-7" d="M462.61,190.89s7.94-4.78,10.37-7.4,10.28-7.31,12.18-15.79,2.52-8,2.52-8,2.35-4.24,1.17-6.49-1.89-1.71-1.89-1.71l-2.71,4.42-3.16,13.44-5,4.6-4.42,6.23-1.89,1.9-1.11,1.44L468,184.82l-0.66,1.38-0.63,1.2-1.29,1-1.77,1.23Z" transform="translate(10.19 7.81)"/><path class="cls-9" d="M538.59,167.38l1.56,2.29s1,0.24,1.08-1.32-1.81-1.92-1.81-1.92S538.23,166.66,538.59,167.38Z" transform="translate(10.19 7.81)"/><path class="cls-11" d="M462.09,193.6c0.06,2.29-.12,4.45-0.12,4.45a1.17,1.17,0,0,1-.72.6s-0.6,3-1.08,6-2,13.71-1,31.63,2,36,2.16,47.63,0,21.41-1.32,24.78c0,0-1.08,1.68-.36,2.4l-2.77-.6s1-2.53,1.32-3.37,1.44-2.16,1.44-9.5-0.72-23.93-1-29.83-1.2-12.51-1.68-34.16,2-32.71,2.28-36.8,1.8-5.41-.12-7.1-4.57-7.34-6.13-12-7.58-18.16-12.39-21c0,0,7.09-2.53,7.46-5.41,0,0-11.66,3.49-16.72-4.81,0,0,10.1-1.44,19.73-13.47l3.25,6.13a48.32,48.32,0,0,0-2.4,23.57c2,12.75,2.58,19.63,5.92,24.14l0.72-.09-0.36,1,0.72-.09v0.72l0.72-.27,0.09,0.81,0.63-.36v1.08s1.62-.45,2.25.18l0.18-.9,0.72,0.36,0.09-.81,0.81-.09v-0.63l0.9,0.27,0.45-1.08,0.81,0.27a19.65,19.65,0,0,1,3.52-6.13,18.75,18.75,0,0,0,4.15-8.21c0.36-2,5.5-7,6.95-15.06s3.34-18.58,5.68-21.56,1.59,0.48,1.59.48,12.87,20.45,16.6,21.65c0,0-13.59.84-18.76-3.25,0,0,3.13,7.7,6.37,8.54,0,0-4.21,3.49-6,4.21a71.63,71.63,0,0,0-8.27,6.25c-2.43,2.44-4.24,5.68-6.49,6.86a8.84,8.84,0,0,0-4.06,4.78,5.48,5.48,0,0,1-2.17,3.34C464.23,190.35,462,191.43,462.09,193.6Z" transform="translate(10.19 7.81)"/><path class="cls-11" d="M416.51,132.62s2,0,1.69,11.42a163.43,163.43,0,0,1-1.56,18.88,8.69,8.69,0,0,1-9.14-3.13l1.2-3.49,1.2-2.89,1.32-7.94L410.5,141l-2-8.18,3.61-1Z" transform="translate(10.19 7.81)"/><path class="cls-12" d="M398.35,151.26s4,10.34,7,7.34,10.22-9.5-.72-30.79c0,0,3,.36,3.73,1.2s3.73,1.56,5.29,1.2,2.89,1.56,2.89,1.56,2,3.61.24,6.25-2.65-1.32-4.81-3.85-1.44,5.53.24,9,5.53,13.47,3.85,16.24c0,0-.6-9-4-14.31a8.3,8.3,0,0,0-.6,3.85c0.12,2.41,5.41,10,.72,12.15a6.68,6.68,0,0,1-5.17-.48c-2.53-1.44-2.65-.84-2.65-0.84S400.4,159.32,398.35,151.26Z" transform="translate(10.19 7.81)"/><path class="cls-13" d="M298.53,356.26s2.66,11.38,9.68,11.38,15.74,0.72,20.33,2.42,11.95,6.29,13.23,7.1,5.16,2.9,7.1,1.13c0,0,1-2.58-5.65-5.49,0,0,5,1.13,6.13.32,0,0,7.91,7.1,9.85,6.46s2.74-1.93,1.77-3.23c0,0,4.68,2.58,7.26-1s-1.61-5.65-1.61-5.65-10.17-6.29-11.94-9.36c0,0,.16-4.2-5.33-3.23a7.55,7.55,0,0,1-4.84-1.94,20,20,0,0,0-9.85-3.71c-2.74-.16-21.47.16-23.4-3.87s-8.55,1.13-8.55,1.13Z" transform="translate(10.19 7.81)"/><path class="cls-14" d="M323.55,363.45c12.27-2.58,13.39-3.07,15.82-2.1s9.69,3.23,11.94,2.42c0,0,.81,2.42,2.26,3.07s9.51,6.87,15.14,7.8c1.53-3.09-2.07-4.9-2.07-4.9s-10.17-6.29-11.94-9.36c0,0,.16-4.2-5.33-3.23a7.55,7.55,0,0,1-4.84-1.94,20,20,0,0,0-9.85-3.71c-2.74-.16-21.47.16-23.4-3.87s-8.55,1.13-8.55,1.13l-3.54,6.33C304.52,359,314.88,365.27,323.55,363.45Z" transform="translate(10.19 7.81)"/><path class="cls-13" d="M77.58,329.07s-7.26,9.36-11,11.3-11.46,8.07-12.75,9.2-7.42,6.13-8.23,7.26-5,5-6.46,7.75-6.29,9.84-4.2,11,7.26-1.94,10-7.42c0,0-3.87,11.14-3.23,12.43s2.58,3.39,6-.81c0,0,3.87,3.07,7.42-4.84s7.1-13.23,9.85-14c0,0-2.42,10-3.87,11.62s0.48,5.33,3.39.48,6.78-11,9.36-13.4,18.88-17.43,18.56-22.27-7.1-6.46-7.1-6.46Z" transform="translate(10.19 7.81)"/><path class="cls-14" d="M69.51,352c2.64-.62,16.65-3.49,2.39-16.25a24.85,24.85,0,0,1-5.3,4.63c-3.71,1.93-11.46,8.07-12.75,9.2s-7.42,6.13-8.23,7.26-5,5-6.46,7.75c-0.46.87-1.27,2.19-2.08,3.61,4.4-.35,10.89-1.51,15.48-5.23C60.15,356.83,66.77,352.63,69.51,352Z" transform="translate(10.19 7.81)"/><path class="cls-15" d="M61.12,347.79s-5.81,6.78-7.42,7.74-4.84,2.58-5.81,3.23-6,2.1-6,2.91-0.16,5.65,8.72,2.58" transform="translate(10.19 7.81)"/><path class="cls-14" d="M211.62,147.34l20.82-8s-9.93-17.19-8.72-36.8-6.05-44.79-6.05-44.79L197.82,45.9,172.4,47.84l-14.53,3.39s-5.33,9.44-1.21,23c0,0,2.18,3.63.24,5.81s-4.6,3.39,1.21,8.23c0,0-2.42,6.78,0,9s3.87,1.45,4.12,3.63,1.94,4.36,2.18,5.81-0.48,9.44,8.71,11.62,13.31-1.45,12.59,8.71S193,140.07,193,140.07Z" transform="translate(10.19 7.81)"/><path class="cls-3" d="M163,73.26c1-1.94-3.39-4.12-2.42-7.26s9.93-10.41,12.35-10.65C174.7,55.16,193.6,51,203,49l-5.17-3.09L172.4,47.84l-14.53,3.39s-5.33,9.44-1.21,23c0,0,1.6,2.68.83,4.81C160.91,77.83,162.18,74.83,163,73.26Z" transform="translate(10.19 7.81)"/><path class="cls-3" d="M190.32,117.32c3.87-6.54-1.94-14.53-4.6-15.74s-1.7.48-1.7,0.48,0,8.47-13.8,4.84c0,0-3.87-1.45-.73-5.81,0,0,1.69-2.42-1.69-1.94s-5.81,0-1.94-2.9,5.81-3.39,5.81-3.39-7.51-4.84-9-4.11-3.39,2.91-2.42-1c0.83-3.3-3.27-1.52-5.69-4.51-0.12,1.16.7,2.65,3.52,5,0,0-2.42,6.78,0,9s3.87,1.45,4.12,3.63,1.94,4.36,2.18,5.81-0.48,9.44,8.71,11.62,13.31-1.45,12.59,8.71a14.76,14.76,0,0,0,.72,6l2.42-4.07S186.44,123.85,190.32,117.32Z" transform="translate(10.19 7.81)"/><path class="cls-3" d="M160.22,84.38s0.85-2.06,2.42-1.21,1.09,1.45,2.66,1.09C165.3,84.26,161.31,85.35,160.22,84.38Z" transform="translate(10.19 7.81)"/><path class="cls-3" d="M166.19,70.51s1.45,3.39,2.74,1.62-1.13-2.1-2.42-3.87-3.23-3.07-1.29-5.65,6.62-7.75,12.43-5.33c0,0-7.42-.32-10.33,4.84a8.57,8.57,0,0,1,8.39-.65c4.84,2.1,5.49,3.23,6.46,2.1,0,0,.48,2.42-2.91,3.55s-5.81,2.58-6.13,3.55-0.16,5.49-3.07,4.84S166,73.74,166.19,70.51Z" transform="translate(10.19 7.81)"/><path class="cls-3" d="M226.55,94.88s-2.9,6.62-2.9,9c0,0-1-2.9-5-2.26s-27.28,8.07-31.79,5.49,0.48-11.3.48-11.3L198,82.94s12.1,4.36,12.91,4.68S226.55,94.88,226.55,94.88Z" transform="translate(10.19 7.81)"/><path class="cls-16" d="M197.82,70.19s-5.49-2.91-6.78-15.66,9.2-7.26,9.2-7.26l5.65,10.33Z" transform="translate(10.19 7.81)"/><line class="cls-16" x1="203.65" y1="72.52" x2="212.69" y2="72.35"/><line class="cls-16" x1="202.68" y1="69.61" x2="214.3" y2="70.25"/><line class="cls-16" x1="202.04" y1="67.03" x2="218.34" y2="67.35"/><line class="cls-16" x1="201.71" y1="64.93" x2="218.5" y2="64.28"/><path class="cls-17" d="M186.69,104.24l8.55-14.69s20.17,6.62,24.21,8.55,4.52,5,6.78,3.71,23.24-18.4,8.55-42.29-45.19-26.31-62.46-16.62l-26.63,1.45s-10.49,2.74-5.81,16.14c0,0,1.45,4.68,11.94,4.84,0,0,4.2-12.43,17.59-11.14s26,1.94,28.24.65l4.2,2.74L185.23,85s-1.94,7.26-3.87,9.68l1.77-1.13-1.61,3.07,2.58-2.42-1.94,4.36,2.42-2.1-1.45,3.71,3.07-2.26-2.1,4.68,2.26-1.94-2.26,4.68,2.26-2.74-0.81,2.42Z" transform="translate(10.19 7.81)"/><path class="cls-18" d="M172.45,42.84l-0.13.07-26.63,1.45s-10.49,2.74-5.81,16.14c0,0,1.45,4.68,11.94,4.84,0,0,4.2-12.43,17.59-11.14s26,1.94,28.24.65l0.62,0.41C193.63,48.14,180.4,44.46,172.45,42.84Z" transform="translate(10.19 7.81)"/><path class="cls-18" d="M210.41,64.38L196,89.8c3.67,1.21,19.89,6.59,23.46,8.31,3.21,1.54,4.17,3.79,5.57,4C223.92,69,210.41,64.38,210.41,64.38Z" transform="translate(10.19 7.81)"/><path class="cls-19" d="M209.41,39.91c-13-4.08-27.12-2.53-37,2.94,7.95,1.62,21.18,5.29,25.83,12.42l3.57,2.34L185.23,85s-1.94,7.26-3.87,9.68l1.77-1.13-1.61,3.07,2.58-2.42-1.94,4.36,2.42-2.1-1.45,3.71,3.07-2.26-2.1,4.68,2.26-1.94-2.26,4.68,2.26-2.74-0.81,2.42,1.13-.81,8.55-14.69L196,89.8l14.42-25.42S223.92,69,225,102.11a1.84,1.84,0,0,0,1.2-.29,35.11,35.11,0,0,0,10.94-13.34C237.53,62.93,219.26,46.76,209.41,39.91Z" transform="translate(10.19 7.81)"/><path class="cls-18" d="M234.78,59.54a45.19,45.19,0,0,0-25.37-19.63c9.85,6.85,28.12,23,27.76,48.57C240.63,81.11,241.91,71.13,234.78,59.54Z" transform="translate(10.19 7.81)"/><path class="cls-3" d="M139,51.53a16.17,16.17,0,0,0,.91,9s1.45,4.68,11.94,4.84c0,0,4.2-12.43,17.59-11.14,10.44,1,20.38,1.62,25.34,1.23-4.84-.66-14.54-2.07-19.85-3.49C168.08,50.13,150.45,42.2,139,51.53Z" transform="translate(10.19 7.81)"/><path class="cls-3" d="M149.57,66.16a24.76,24.76,0,0,0,5.49.16c1.94-.32,2.1-2.58,2.1-2.58l-4.52-4.84Z" transform="translate(10.19 7.81)"/><path class="cls-3" d="M135.85,443.66s-0.48,28.08,29.05,16.95,5.33-44.06,5.33-44.06l-30.5.49Z" transform="translate(10.19 7.81)"/><path class="cls-18" d="M166.67,427.36s-7.1,40-9,47.77-3.87,18.08-3.87,25.18,3.23,27.76-.65,41.32l-3.87,13.56,44.55,3.23s0.65-20,.65-32.93,3.87-40.67,11-59.39,7.75-53.58,7.75-53.58l-10-10-19,6.78Z" transform="translate(10.19 7.81)"/><path class="cls-18" d="M94.37,455.76s7.1,31.64,3.23,42-24.53,44.87-25.18,58.1l36.15,1.94s1.29-8.39,9-16.78,18.08-44.54,20.66-69.08,16.14-66.5,16.14-66.5l-33.57-3.87Z" transform="translate(10.19 7.81)"/><path class="cls-14" d="M119.38,312.93s-15.82,15.82-19,19.69-4.2,9-7.75,9-21-10-18.72-13.56S91.62,300,91.95,295.82s3.23-18.08,11.62-33.89,14.85-33.25,15.5-38.09a124.75,124.75,0,0,1,5.16-21.3c2.58-7.42,9-32.92,8.07-42.61s1.61-32,27.11-27.11,39.38,5.49,39.38,5.49l46.48,3.87s30.34,11,29.7,21.3-6.45,32-5.49,36.15a17.61,17.61,0,0,1-.65,11c-1.29,2.91-1.61,18.72-1,23.89s1.29,7.75-.32,11.94,1.29,24.86,2.26,27.44,1.29,9.68,2.91,11.62,4.84,10.65,9.68,18.07,17.43,27.12,19.69,28.73S316,348.11,315.32,349.4s-13.56,7.42-16.46,9.68-12.27,7.75-13.56,6.13-2.26-7.42-5.49-8.72-5.17-4.84-7.42-6.78-13.56-18.08-15.17-22.92-9-21.95-10.33-24.53-7.1-17.76-9-21-5.16,1-5.16,1l-18.72,10-43.25-8.07-29.05-8.39-8.72,30Z" transform="translate(10.19 7.81)"/><path class="cls-20" d="M120.59,419.21s27.6,16,32,34.14c0,0,36.8-43.09,60.28-38l-3.39-36.8-9.68-34.38-20.82-20.82-12.59-3.87-25.66,30.26Z" transform="translate(10.19 7.81)"/><path class="cls-3" d="M203.15,402.5s-5.81-12.1-9.93-15.49-10.41-9.92-10.89-13.31c0,0-28.33,1.45-34.86-4.12l5.08-10.89s28.08,9.44,31,6.78c0,0,.73-3.87-2.18-4.11s-3.63-1-5.81-2.66-13.56-2.42-16.95-5.81,1.94-8.47,1.94-8.47,22.76,4.12,25.42,1.94,15,12.1,15,12.1l5.57,20.1L209,393.79l-1.21,15.74Z" transform="translate(10.19 7.81)"/><path class="cls-20" d="M102.92,474.16L73.71,460.93s9-38.09,18.08-58.1,9-32.93,9-32.93,8.72-43.58,12.59-52.62,17.11-27.76,17.75-30.67c0,0,.65-7.42,6.78-9.68s22.92,1,22.92,1l48.74,6.78s27.44,11,24.53,25.5a5,5,0,0,0,1.93,3.23c1.62,1,2.1,6,.81,8.55s-0.48,2.26.32,3.23,1.78,4.36,1.13,8.07,1,3.07,1.61,3.71,2.58,5.32.65,8.55-1.77,4.19-1.29,5.33,1.61,2.58.81,4.36,0.16,1.13.65,2.58,1,6.94-1,10.81-6.38,15.74-7.1,20.58-3.39,21.79-7,28.08-16,37.52-15,49.87c0,0,.48,17.67-13.07,8.72,0,0-.48-7.75,1.94-13.07s5.81-29.29,3.87-38.49-3.15-26.15-3.39-30.51c0,0,4.6,2.42,4.84,7.27,0,0-.24-14.53-4.84-19.61s-13.56-17.19-17.67-24.93-7.75-24.69-6.54-29.29c0,0-8,12.35-9.68,15.74s-21.06,36.8-23,44.79-10.17,26.38-12.83,30.74S107.52,468.11,102.92,474.16Z" transform="translate(10.19 7.81)"/><path class="cls-3" d="M238.25,343.67l-3.39,3.39c-2.18,2.18-3.15.48-6.78,1.94s-4.12,1.21-5.33,2.42,9.2,1.45,11.38,1.21,2.66-.73,4.11.48-1.69,1.94-3.15,2.67-5.33-1.94-2.42,1,3.39,3.15,6.05,2.42,1.05,9.44,1.05,9.44c1.94-3.87,1.45-9.36,1-10.81s-1.45-.81-0.65-2.58-0.32-3.23-.81-4.36-0.65-2.1,1.29-5.33C240.59,345.53,240.67,342.71,238.25,343.67Z" transform="translate(10.19 7.81)"/><path class="cls-20" d="M140.85,279.84s-3.87,7.74-5.49,10.33-1.29,6.46,1.29,10.65,20.66,22,43.25,22.92,46.16,1,51-12.59c0,0-.64-4.84,0-6.45s1-5.16-1-6.78L228,296.3l-10-1-60.36-11.62Z" transform="translate(10.19 7.81)"/><path class="cls-3" d="M231.88,295.66a14.54,14.54,0,0,1-6.46,5.16c-4.2,1.62-4.52,4.84-9.36,3.55a70.45,70.45,0,0,0-11.94-2.26c-1.62,0-1.62-1-2.91-1.29s-2.9-.65-3.23.32-1.61,3.23-3.23,1.62c0,0-1.29,5.16-5.81,2.9s0-4.52,0-4.52-9,.65-12.59-0.65-3.87-3.55-6.13-3.87a36.24,36.24,0,0,1-11.3-3.23c-4.52-2.26-5.49-6.78-7.42-7.75s-20.66-2.26-17.11-5.81a56.54,56.54,0,0,1,6.78-5.81H162.8l36.48,10Z" transform="translate(10.19 7.81)"/><path class="cls-3" d="M200.73,347.31s7-3.87,11.62-4.12,11.86,1.7,15.74.73,5.33-1,5.81-1.94-1-1.21-2.91-1.46-3.39-1.69-5.08-2.9-2.9-2.18-4.6-1.94-2.9,1.21-4.11,1.7-10.65.73-12.35,2.91S188.14,345.85,200.73,347.31Z" transform="translate(10.19 7.81)"/><path class="cls-3" d="M233.41,331.81s-1.69-1.45-2.66-1.45-3.15.24-3.39,1.21-3.15,2.42-1,2.42,1.94-2.42,4.12,0,1,1.45,2.18,2.42,1.94,1,2.66,1.7-0.24,2.66,1.94,2.18,2.91-1.7,1.45-2.66-2.42-.73-2.9-1.94a22.33,22.33,0,0,0-1.21-2.42C234.14,332.3,234.62,332.05,233.41,331.81Z" transform="translate(10.19 7.81)"/><path class="cls-21" d="M134.39,277.9" transform="translate(10.19 7.81)"/><path class="cls-14" d="M241.4,270.64s-1.29,8.72-3.07,11.94a11.14,11.14,0,0,0-1.29,7.59c0.32,1.29,1.13,9.85-7.26,9.52,0,0-28.41.8-37.61-1.78s-11.78-3.87-12.91-4-33.89-6-45.51-16.95c0,0,2.58-7.91,5.33-11.14s7.59-6.46,4.52-17.43c0,0,18.4,19.37,52.13,22.11s37.93,3.55,39.87,2.42S240.59,270.48,241.4,270.64Z" transform="translate(10.19 7.81)"/><path class="cls-3" d="M142.95,215.77c1.26-10.26-2.58-13.23-3.55-15s-1-7.1,2.26-13.23,3.39-18.72,8.23-22.27c0,0-4.36,8.39-1.45,10.33s7.91-2.26,11.46-.65c0,0-10.33,2.58-10.65,8.72,0,0-.81,2.26,3.23.81A14.08,14.08,0,0,1,162,184s-24.37,11.94-.48,17.75a3.83,3.83,0,0,1-1.94,4.52s8.07-1.61,11.3-5.49c0,0-10.65,11.62-25.5,15.82,0,0-1.61.32-1.29,5.81s3.87,15.82,1.94,20c0,0,2.9,9.52-.49,16.3S134.88,282.42,132.21,288s-14.53,30.26-17.67,31.71-8,5.08-9.68,7.26l-7.75,9.93-1.94,3.63-2.58,1.13L87.91,340A47.54,47.54,0,0,1,101,319.71c9.93-9,14-16.46,20.58-32.68s17.19-26.87,18.16-41.4S142.3,221,142.95,215.77Z" transform="translate(10.19 7.81)"/><path class="cls-3" d="M217.35,286.94s-4.52,5.81,2.26,3.55,6.46-1.94,9.36-2.91,3.55-6.45,5.49-8.39,3.87-2.9,4.52-4.19,4.52-7.1,5.16-12.27,0-7.75,1-10.33,1.61-15.17,3.23-19.37,5-11.62,6.3-15.9S259,206.65,258.35,204s-4.68-8.8-7.59-10.33c0,0,3.87,6.29,4.28,9.12l-6.78-2.26s6.78,4,5.08,9.44-7.58,7.75-14.36,4c0,0-2.74.81-1.61,2.58s7.26,6.46,8.71,9.2,1,8.07.49,10.33-1,14.2-2.58,16.14a57.74,57.74,0,0,0-4.2,5.33c-0.65,1.13-7.1,13.72-8.23,15.66s-5,6.13-8.23,7.1S217.35,285.65,217.35,286.94Z" transform="translate(10.19 7.81)"/><path class="cls-3" d="M151.82,218.75s14-8,17.67-11.86c0,0-4.84,6.05-7.75,7.51,0,0,4.6-.73,7.5-3.15,0,0,5.32,3.15,9.68,3.15,0,0-3.39,2.18-9.93.24,0,0-6.54,1.69-8,3.63s-7.26,3.87-8.48,3.39S149.4,220.45,151.82,218.75Z" transform="translate(10.19 7.81)"/><path class="cls-22" d="M85,310.35s9.55,11.54,23.4,14" transform="translate(10.19 7.81)"/><path class="cls-22" d="M302.57,331.81s-22.76,15.5-25.5,20.18" transform="translate(10.19 7.81)"/><path class="cls-3" d="M286.43,365.22l8.88-4.2s-2.42-.65-2.42-1.78a4.29,4.29,0,0,0-1.13-2.9c-0.64-.65-3.71-7.27-6.94-9.53s-6-4.19-6-6.29,4.52-5.33-.81-9.68-21-11.62-23.4-18.08S249,300.34,248.34,296s1.45-10.81-1.77-13.72-5.65-6.78-6.29-5-1.45,4.36-1.45,4.36l0.89,2,4.91,11.5,8,18L258,326.73,262,334l7.56,11.38,3.93,4.48,4.48,4.9,3.33,1.75,1.45,1.76,2.79,6Z" transform="translate(10.19 7.81)"/><path class="cls-3" d="M270.21,273.83s-1.69,6.54-3.75,9.44-2.42,5.2-1,4.12,2.18-2.79,2.91-3.27,3.27-2.06,3.15-3.51S270.21,273.83,270.21,273.83Z" transform="translate(10.19 7.81)"/><path class="cls-3" d="M267.42,248.17a14.36,14.36,0,0,0-1.33-6.17c-1.45-2.91-2.42-5.33-2.42-7.26s0.85-14.16-.85-18.16-1.45-5.45-.85-6.29,0.12-3.27,1.57.36a22.62,22.62,0,0,0,2.42,5c0.85,1.45,1.69,1,1.94,2.18s0.36,1.94.36,1.94l-0.48,5.81,0.36,6.78,0.73,5.81v4.24L268,245.95Z" transform="translate(10.19 7.81)"/><path class="cls-3" d="M247.09,146.49s0,20.7-12.71,16.34-14.4-21.3-14-22.51,2.42-1.57,2.42-1.57l10.89,3.63Z" transform="translate(10.19 7.81)"/><path class="cls-3" d="M201.09,137s2.54,5.93,1.45,7l-10.77,7.75s-4.24,1.94-6.9-1.33-4.84-9.08-4.84-9.08l3.51-3.51,15-1.57Z" transform="translate(10.19 7.81)"/><path class="cls-14" d="M218.16,139.23s17.07,1.94,9-11.62c0,0,2.18-3.51,6.66-.48s15.13,15.62,15.13,15.62,3.75,15-7.63,11.62-18.52-13-18.64-13.44S219.25,140.32,218.16,139.23Z" transform="translate(10.19 7.81)"/><path class="cls-23" d="M205.57,138.46s-1.29,8.39-1.13,10,0.32,9.85-.32,12.59S203,172.84,203,174.45s-1.61,15-1.94,18.88-1.61,7.75-1.78,10-1.45,14.53-1.61,16.62-3.39,20.82-3.39,24.86a183.64,183.64,0,0,1-2.1,19.21c-0.48,2.26-2.9,12.1-3.07,14.53s-2.26,15.65-3.39,17.43" transform="translate(10.19 7.81)"/><path class="cls-23" d="M218.32,138.78s-0.65,13.88-1,17.43-1.61,21.63-1.61,28.73-1.94,22.27-3.23,29.7-5.81,37.77-6.13,42.29-7.75,39.06-6.78,41.64" transform="translate(10.19 7.81)"/><path class="cls-24" d="M195.89,253.54s1.94,4,5.16-.65a6.28,6.28,0,0,0,1.13-3.71s1.29,1.77,0,2.74c0,0,2.1-1.13,2.74.32,0,0-2.9-.16-3.23,1s-1.29,1.13-1.13,2.58-1.93,5.65-3.55,4.68S193.79,257.57,195.89,253.54Z" transform="translate(10.19 7.81)"/><path class="cls-24" d="M209.28,211.09s0,6.29-4.2,5.49c0,0-1.94-1.29-1.45-5.81C203.63,210.76,205.73,214.48,209.28,211.09Z" transform="translate(10.19 7.81)"/><path class="cls-24" d="M207,173.64s-1,4.84,3.07,4.84,2.91-4.2,2.91-4.2-0.16,3.55-3.39,2.58S207.67,176.23,207,173.64Z" transform="translate(10.19 7.81)"/><path class="cls-24" d="M207.51,143s3.23,3.23,7.1-1.13c0,0-.48,3.71-4,3.23,0,0-3.23-1-3.87-.32C206.7,144.75,206.86,144.43,207.51,143Z" transform="translate(10.19 7.81)"/><path class="cls-24" d="M189.59,293.24s1.13,2.74,3.07,2.26,0.16-.48,1.94-0.48,1-2.75-.49-2.42a32,32,0,0,1-3.23.49C189.75,293.24,189.75,292.43,189.59,293.24Z" transform="translate(10.19 7.81)"/><path class="cls-24" d="M206.86,238.85c-0.31-.4-1.61-1-1.45,0s0.65,3.23,1.29,2.58S208,240.3,206.86,238.85Z" transform="translate(10.19 7.81)"/><path class="cls-14" d="M172.77,136.93s8.84-7.38,12-12.23c0,0,14.77,12.1,25.54,14.65,0,0-4.6-.85-5.93.85s-10.65,11.74-17.07,9.32S174.46,140.92,172.77,136.93Z" transform="translate(10.19 7.81)"/><path class="cls-18" d="M773,563.82s3.33-30,3.33-51.16-2.08-30.37-5.41-42-9.57-47.42-.41-66.55-20-17.47-20-17.47l-22.88,10s1.25,29.54,3.74,40.77,3.33,13.31,2.5,17.47,3.74,15.8,6.24,20.8,4.57,17.47,5.83,29.54,4.57,57.4,6.65,58.65H773Z" transform="translate(10.19 7.81)"/><path class="cls-13" d="M776.31,512.66c0-21.22-2.08-30.37-5.41-42s-9.57-47.42-.41-66.55-20-17.47-20-17.47l-1.45.64c-5.91,29.31,7.19,83.62,13.1,108.76,4.48,19.06,2.74,49.75,1.12,67.8H773S776.31,533.87,776.31,512.66Z" transform="translate(10.19 7.81)"/><circle class="cls-19" cx="699.73" cy="140.23" r="10.72"/><path class="cls-25" d="M693.67,162.13s9.84-4,8.87-30.23,18.86-4.58,18.86-4.58l11.37-.42s-8.32,18,17.75,38.69-25.1,9.29-25.1,9.29S689.93,168.65,693.67,162.13Z" transform="translate(10.19 7.81)"/><path class="cls-18" d="M693.53,410.33l-12.06,3.33v2.5s-9.15,13.73-14.14,19.55-10,12.48-11.23,15.81-11.23,20.38-11.65,26.2-0.42,40.77-20,69c0,0-5.41,13.31-5.82,16.23H594.53s7.07-52.83,11.23-64.89,6.24-18.3,7.07-28.7a83.84,83.84,0,0,1,8.32-28.7c3.33-6.24,10.4-26.21,12.89-34.53l38.27-5,22.46-2.08Z" transform="translate(10.19 7.81)"/><path class="cls-13" d="M711.65,116.15s16.08,43.35,3.73,62.29l34.16-12.06s-18.37-14.07-18.95-37S711.65,116.15,711.65,116.15Z" transform="translate(10.19 7.81)"/><path class="cls-13" d="M672.32,401.18l-17.88,2.33c-0.94,8.11-1.89,17.06-2.09,21.79-0.42,10-5.41,24.54-12.89,37.44s-10.4,25.37-14.14,44.93c-3,15.46-10.34,42.58-15.56,55.33h8.9c0.42-2.91,5.82-16.23,5.82-16.23,19.55-28.28,19.55-63.23,20-69s10.4-22.88,11.65-26.2,6.24-10,11.23-15.81,14.14-19.55,14.14-19.55v-2.5l12.06-3.33,1.25-11.23Z" transform="translate(10.19 7.81)"/><path class="cls-19" d="M629.47,412l10.4-28.7s16.22-52,19.13-73.63,5-51.58,4.57-59.48,20-12.9,20-12.9L696,228.13l38.68-.42,16.23-6.65s-4.58,35.36.83,55.32c0,0,12.89,7.07,19.13,34.94s17.89,91.93,20.8,96.92c0,0-20.38,11.23-43.26,7.49A97.19,97.19,0,0,0,738,417.4c-5.83,1.25-26.62.83-34.11,0.41s-30.36-2.08-39.1-1.66S636.13,417.4,629.47,412Z" transform="translate(10.19 7.81)"/><path class="cls-3" d="M651,416.43c5.23,0.1,10.2-.1,13.59-0.26,0.42-17.43,1.69-66.89,3.25-87.48C666.49,343.36,661.27,394.27,651,416.43Z" transform="translate(10.19 7.81)"/><path class="cls-3" d="M754.26,333c-0.83-3.74-9.15-59.9-9.15-59.9H743s5,25.79,9.57,56.57c3.63,24.43,1.76,69.21.84,86.68a64.41,64.41,0,0,0,10.73-.11C768.54,388.68,755,336.46,754.26,333Z" transform="translate(10.19 7.81)"/><path class="cls-3" d="M733,320.06l-1.67-6.24c0,3.74,1.25,22,4.58,49.5,2.55,21,4.12,43.94,4.71,53.56,1.14-.22,2.21-0.4,3.15-0.55-1.72-11.26-4.22-32.93-4.54-44.69C738.87,356.25,733,320.06,733,320.06Z" transform="translate(10.19 7.81)"/><path class="cls-19" d="M661.36,271.31c29.33-21.21,86.73-15.81,86.73-15.81l3.74,19.55c-50.33-6.45-90.68,13.73-90.68,13.73Z" transform="translate(10.19 7.81)"/><polyline class="cls-26" points="719.73 263.54 729.3 271.96 717.86 283.78"/><path class="cls-19" d="M745.94,159.91a12.24,12.24,0,0,1,3.74,1.25c1.25,0.83,9.15,3.74,11.65,3.74s20.8,3.33,17.89,12.48-7.49,17.47-10,25.38-11.65,23.29-16.64,29.53-5.82,15-15.81,14.14-28.7-3.33-32.45-2.91L706,248.1s-7.49-.42-10.4,1.66-27.46,14.56-38.27,13.73-9.57,3.33-14.14,4.57-8.74-1.25-10-9.57-1.66-10.82.42-15.39,3.74-13.31,4.16-15,16.22-41.6,18.72-49.5a17.25,17.25,0,0,1,12.06-12.06c4.16-1.25,18.72-3.33,22.46-5.41s4.58-1.66,7.07-.83,12.48,2.5,20.8,1.66S744.28,159.5,745.94,159.91Z" transform="translate(10.19 7.81)"/><path class="cls-27" d="M654.71,236.73s13-1.66,16.64-3.33a24.13,24.13,0,0,1,5.27-1.94" transform="translate(10.19 7.81)"/><path class="cls-27" d="M704.07,243.11a23.82,23.82,0,0,0-10.54-3,62.62,62.62,0,0,1-13.87-2.5c-1.94-.56-9.43-1.95-8.32-6.38s1.66-3.89,3.6-11.65-1.66-8.32,4.72-7.21,18.58,3.32,23.85,3,13.87,0.28,15.81.28a24.36,24.36,0,0,1,3.6.28s7.21,3.89,11.37-2.5" transform="translate(10.19 7.81)"/><path class="cls-3" d="M670.52,234.79s-6.65,6.38-8.59,9.71-6.93,8-8.32,8.32c0,0,3.61-6.66,5.82-8.88s5.82-6.93,7.21-8.32-0.83-1.66-1.94-.83-2.49,1.94-3.6,2.77-3.61,2.22-4.44,3.88a47.24,47.24,0,0,1-3.88,5.55c-0.83,1.11-2.22,3.33-3.33,4.71a6.85,6.85,0,0,1-3.05,1.95s3.05-5.55,3.88-6.1,2.22-3.05,2.77-4.16a10.87,10.87,0,0,1,2.22-2.78,21.77,21.77,0,0,0,1.66-1.94l5.27-3.33s-4.72.83-5.55,1.66-2.21.56-3,.83-4.16,1.66-5,1.66-10.54,1.11-12.76,5.82c0,0,1.66-5.55,13.87-8s0.83-2.49.83-2.49l2.5-1.94h2.77s1.39,1.38,1.94.55,0.28-1.93,1.38-2.22,1.95-2.22,2.78-1.94,5.27-.83,5.27-0.83l2.77,0.28A9.13,9.13,0,0,1,670.52,234.79Z" transform="translate(10.19 7.81)"/><path class="cls-3" d="M665.25,214.54s-0.83-6.38-.55-8.32a45.25,45.25,0,0,0,.55-5,24,24,0,0,1,.55-5.54c0.55-2.5,1.66-3.6,1.39-5.54s0.56-3.33-1.94-4.44-1.11.83-1.11,0.83A4.64,4.64,0,0,1,665,189a6,6,0,0,1-1.11,3.33c-0.56.83-1.39,0.28-1.11,1.95a28.25,28.25,0,0,0,1.11,4.16,4.39,4.39,0,0,1,.27,3.33c-0.55,1.38-1.11,1.39-.83,3.33a23.81,23.81,0,0,1,.28,4.16C663.59,210.66,661.65,215.93,665.25,214.54Z" transform="translate(10.19 7.81)"/><path class="cls-13" d="M761.34,164.9c-2.5,0-10.4-2.91-11.65-3.74a12.24,12.24,0,0,0-3.74-1.25c-1.67-.42-18.72,1.25-27,2.08-1.22.12-2.47,0.17-3.73,0.2-0.48,7.49.38,15.66,6.66,14.9,11.37-1.39,5.27-1.66,3.05,7.21s-11.37,18-1.94,14.14,10.53-15,14.14-9.15-4.44,17.75-.83,20,4.71-7.21,6.66,2.5-0.83,0-5,10.26-8.59,14.42-4.71,17.19c1.79,1.28,3.37,4.68,6.46,7.13,7.29-1,8.48-8.48,12.93-14,5-6.24,14.14-21.63,16.64-29.53s7.07-16.23,10-25.38S763.83,164.9,761.34,164.9Z" transform="translate(10.19 7.81)"/><path class="cls-19" d="M727.43,216.9s5.62-5.62,12.06-5.82,14.35,4,15.6,4,4.37,1.87,6,1,3.33-3.54,1.46-5.82a11.88,11.88,0,0,1-2.29-5.2,12.49,12.49,0,0,0-3.12-5.62c-2.29-2.08-3.74-4.37-5.2-4.58l-7.49-1a31.57,31.57,0,0,1-5.2,1c-1.46,0-6.24-.21-7.49,1.25s-5.2,8.32-5.2,9.36-3.74,10.19-5,10.61C721.61,216.07,725.35,217.32,727.43,216.9Z" transform="translate(10.19 7.81)"/><path class="cls-19" d="M679.8,214.2s-3.12-.41-5-0.83-11.86-.42-13.31-1.25-4.57-5-5.61-5.2-12.27-1.46-14.15-.83-2.08,4.78,4.16,3.74c0,0,2.91.62,1.25,1s-6,0-7.7,1.25-4,4.78-3.74,6.66-1.46,2.7-1.87,4.16a32.43,32.43,0,0,0-.83,4.37,13.46,13.46,0,0,1-1.25,4.37c-0.62,1-.83,7.91,1,7.07s2.71-3.54,4-4.58,1.87-1.46,4.37-1.67,5.61-1,6.65-1a54.21,54.21,0,0,0,7.91-.42,11.91,11.91,0,0,1,5.41,0c1.45,0.42,10.61,2.08,12.27,1.46S679.8,214.2,679.8,214.2Z" transform="translate(10.19 7.81)"/><path class="cls-19" d="M713.92,148.42s12.34,0.42,17.05-9.57,6-14.14,6.51-19.13a8.29,8.29,0,0,0,5-6c1-4.58,4.71-9.16,2.5-13.59s-7.77-21.77-7.77-21.77l-7.76-9.57-24.54,1.25L688,88.67l1.52,12.62s0.69,7.62,1.11,11.23,2.22,10,4,13,6.65,13,9.43,15.67S708,148.42,713.92,148.42Z" transform="translate(10.19 7.81)"/><path class="cls-3" d="M744.28,94.63a5.52,5.52,0,0,1,2.2,1.06,27.26,27.26,0,0,1-1.79-5.22,113.4,113.4,0,0,1-2.77-15.67c-0.41-4.43-4-16.22-16.92-17.06l1.11,1.11-1-.09,1.09,2s-21.91-5.41-34.53,8.32c0,0,10.54-7.9,19.55-7.76,0,0-21.49,5-26.49,23.43,0,0,8.87-18.44,25.79-22a107.18,107.18,0,0,0-9.7,5.82s6.79-3,10.54-2.91c0,0-15.81,4-21.63,14.14,0,0,12.76-11.24,20.52-11.51,0,0-17.75,7.49-22.18,17.75,0,0,11.65-14.83,22.88-15.94,0,0-17.33,7.21-21.35,20,0,0,7.35-14.28,19.83-15.95,0,0-18.44,10.12-20,19.13,0,0,10.26-15.94,20-16.08,0,0-15.12,9.15-18.44,20.38,0,0,12.06-17.2,18.31-17.75L707.39,83l3.19-1.53a17.15,17.15,0,0,1,3.89,5.22c6.5,0.08,14.45.11,16.92-6.45,0,0-4,11.79.28,16.22s6.24,13,3.74,15.66c0,0,3.47-1.8,4.72-7.62s4.58-8.33,6-5.69C746.09,98.79,746.5,95.6,744.28,94.63Z" transform="translate(10.19 7.81)"/><path class="cls-1" d="M746.49,95.69a8.9,8.9,0,0,0,.57,1A1.6,1.6,0,0,0,746.49,95.69Z" transform="translate(10.19 7.81)"/><path class="cls-2" d="M710.58,81.44L707.39,83l1.94-3.19C703.09,80.33,691,97.53,691,97.53c3.33-11.23,18.44-20.38,18.44-20.38-9.71.14-20,16.08-20,16.08,1.52-9,20-19.13,20-19.13C697,75.75,689.65,90,689.65,90c4-12.75,21.35-20,21.35-20C699.77,71.18,688.12,86,688.12,86c4.43-10.26,22.18-17.75,22.18-17.75-7.76.27-20.52,11.51-20.52,11.51,5.82-10.12,21.63-14.14,21.63-14.14-3.74-.14-10.54,2.91-10.54,2.91a107.18,107.18,0,0,1,9.7-5.82c-16.92,3.61-25.79,22-25.79,22,5-18.44,26.49-23.43,26.49-23.43-9-.14-19.55,7.76-19.55,7.76,12.62-13.73,34.53-8.32,34.53-8.32l-1.09-2c-4.52-.39-24.32-1.7-29.83,4.67-6.24,7.21-18.86,20.25-10.4,42,0,0,5.41,8.59,6,12.06,0,0-1.38-9.29.56-13.86s11.37-16.37,17.89-16.92c1.47-.12,3.25-0.09,5.13-0.06A17.15,17.15,0,0,0,710.58,81.44Z" transform="translate(10.19 7.81)"/><path class="cls-3" d="M715.86,107.53a18.43,18.43,0,0,0,4.85-2.08c1.39-1.11,5-2.63,7.9-1.25,0,0-3.89,0-4.86,1s-1.94,2.37-3.19,2.64l3.88-.83-0.42.69,2.36-.55-0.42,1,2.08-.27-0.83.83s1.39,1.79,3.74-.14a3.12,3.12,0,0,1-2.36,1.94s2.08,0.56,2.36,1.67a2.35,2.35,0,0,0-2.22-.14l-0.28,1.66-1.11-.83-0.14,1.52-1-.69L725.84,115l-1-1-0.56,1-0.69-1.11s2.5-1.52,2.5-3a1.39,1.39,0,0,0-1.66-.28s-0.83,1.81-2.22,1.81-2.08-2.08-2.08-2.08-1.25-.42-2.77,1.52c0,0,.14,2.08,3,2.36,0,0-3.61,1-4.85-2.08,0,0-.56-1.81,2.08-3.19A2.87,2.87,0,0,1,715.86,107.53Z" transform="translate(10.19 7.81)"/><path class="cls-3" d="M700.47,115.84s-3.19.14-4.16-1.66a1.92,1.92,0,0,1,2.22-1.38s1,1.81,2.5,1.66,2.91-1.25,2.77-2.08c0,0,1.95,0,2.36,1.52,0,0-.56-8.59-13.87-6.51,0,0,6,.42,7.21,2.22l-2.36-.42v1.25l-1.8-.42,0.42,1h-1.39l0.27,1a1.68,1.68,0,0,1-2.21-.69s0.42,2.22,2.08,1.8c0,0-1.66.42-1.66,1.66a2.36,2.36,0,0,1,1.52-.83l-0.14,1.39,1.11-.7v1.11l1-.56v1.67l1.11-1.1,0.41,1.38,0.83-1,0.83,1.25Z" transform="translate(10.19 7.81)"/><path class="cls-3" d="M716.07,136.77a4.09,4.09,0,0,1,2-1.46,8.56,8.56,0,0,0,3.33-2c0.31-.42.42-1.56-0.1-1.35a9.12,9.12,0,0,1-2.91.21c-0.52-.1-2.29-0.21-2.6.21a4.47,4.47,0,0,1-2.29.94,21.51,21.51,0,0,1-2.39-.42,4.13,4.13,0,0,0-1.35-.62,4.53,4.53,0,0,0-1.56,1,8.55,8.55,0,0,1-2,.62c-0.31.1-.21,0.94,0.21,0.62a7.42,7.42,0,0,1,2.29-.73c0.63-.1.73-0.62,1.56-0.21a4.59,4.59,0,0,0,2.29.52,4.22,4.22,0,0,0,2.29-.42,5.26,5.26,0,0,1,2.29-.52h2c0.42,0,.11.83-0.52,1S715.55,136.56,716.07,136.77Z" transform="translate(10.19 7.81)"/><path class="cls-3" d="M711.62,139.84s3.64-.83,5.1-0.1A29.28,29.28,0,0,0,711.62,139.84Z" transform="translate(10.19 7.81)"/><path class="cls-26" d="M716.82,86.58S699.21,88.5,695,97.68s-3.64,21.82-3.64,21.82a62,62,0,0,0-4.4-10.33c-2.68-4.78-9.76-23,0-35.6s11.72-16.22,38.2-14.81l4.66,3.52S726.58,83.33,716.82,86.58Z" transform="translate(10.19 7.81)"/><circle class="cls-19" cx="751.5" cy="132.67" r="10.72"/><path class="cls-3" d="M712.14,127.91a6.44,6.44,0,0,0,1.42-1.37c0.23-.49.11-1.12,0.64-1.06a1.11,1.11,0,0,1,.95,1c0.09,0.47.86,0.48,1.24,0a1.05,1.05,0,0,1-.49.83c-0.39.07-.9-0.27-1.25,0a1.91,1.91,0,0,0-1.23.73,1.68,1.68,0,0,1-1.16.87,3.57,3.57,0,0,1-1.74-.92,0.89,0.89,0,0,0-1.4.07,1,1,0,0,1-1.79-.51s0.44,0.61.74,0.1,0.73-1.24,1.13-1,2.07,1.75,2.43,1.56A2.18,2.18,0,0,1,712.14,127.91Z" transform="translate(10.19 7.81)"/></svg>