<?xml version = "1.0" standalone = "yes"?>
<!DOCTYPE svg PUBLIC "-//W3C//DTD SVG April 1999//EN"
 "http://www.w3.org/Graphics/SVG/svg-19990412.dtd">
<svg width = "484px" height="763px">

<g style = "fill: #8d438e" > 
   <path  d = "M 318.63315,577.65415 C 318.63315,568.27878 309.81485,562.6981 302.72495,562.6981 C 293.634,562.6981 287.45882,570.39515 287.45882,578.84242 C 287.45882,586.62374 294.34315,593.94384 302.86913,593.94384 C 311.22911,593.94384 318.63315,587.02507 318.63315,577.65415 z M 275.75746,577.80175 C 275.75746,559.13432 291.0723,551.12468 302.86913,551.12468 C 317.82345,551.12468 330.00332,562.98277 330.00332,577.67548 C 330.00332,588.61027 326.092,596.28227 318.85172,600.46637 C 326.14943,599.98119 333.653,598.98812 340.29966,596.34362 C 347.23336,593.58491 353.25889,589.08998 358.34941,584.50965 C 357.23096,590.37502 354.62493,597.86768 354.52963,605.15102 C 354.43344,612.50158 356.04046,618.56884 359.56094,624.09467 C 360.52793,625.76954 358.9016,625.58157 358.35216,624.67679 C 345.01128,607.53699 326.53505,608.81553 308.63683,608.81553 L 308.63683,629.50353 L 313.88916,629.50353 L 317.77468,625.48884 L 317.77468,643.32833 L 313.1952,639.24691 L 308.63683,639.24691 L 308.63683,664.12483 L 316.49615,658.7612 L 303.41953,685.5936 L 289.77594,658.50053 L 297.75893,664.1557 L 297.75893,639.24691 L 292.42986,639.24691 L 288.08229,643.32833 L 288.08229,625.48884 L 292.03514,629.50353 L 297.75893,629.50353 L 297.75893,608.81553 C 285.46391,608.97594 273.54901,610.93168 264.8279,614.84794 C 257.77779,618.01383 252.1776,622.44749 252.07779,628.47085 C 251.99167,633.66883 253.35849,638.19643 259.50091,638.19643 C 265.43477,638.19643 266.91838,635.35669 266.91838,633.22401 C 266.91838,631.15543 265.42157,629.25616 263.70045,628.75841 C 268.94441,636.38315 255.59774,639.5865 254.99337,631.71355 C 254.57342,626.2429 259.60132,624.87696 263.5229,624.87696 C 267.44449,624.87696 270.9351,629.13799 271.36784,633.52883 C 271.73655,637.27 268.12191,642.46613 259.71004,642.41441 C 249.37591,642.35089 246.96347,635.49952 246.96347,628.52446 C 246.96347,619.47043 254.753,612.44274 263.80934,607.78144 C 272.21812,603.45344 281.47274,601.06623 288.44715,600.69893 C 281.00867,596.62461 275.75746,588.98282 275.75746,577.80175"/>
   
</g> 

</svg>

