<svg id="1390d4b2-25fa-427d-816d-7e8da86824b8" data-name="Layer 1" xmlns="http://www.w3.org/2000/svg" xmlns:xlink="http://www.w3.org/1999/xlink" width="264.78mm" height="275mm" viewBox="0 0 750.56 779.51">
  <defs>
    <clipPath id="6d3783a4-13f6-4a02-85ac-232723614962" transform="translate(50.38 72.29)">
      <rect width="595.28" height="595.28" style="fill: #594e41"/>
    </clipPath>
  </defs>
  <title>Retro floral seamless pattern [Convertido]</title>
  <g>
    <rect x="50.38" y="72.29" width="595.28" height="595.28" style="fill: #594e41"/>
    <g style="clip-path: url(#6d3783a4-13f6-4a02-85ac-232723614962)">
      <path d="M291.5,297.66c0.18-3.56,7-3,12.67-1.86-5.53-1.68-11.85-4.43-10.19-7.87s7.62,0.5,12.11,4.43c-3.49-3.74-7.11-8.52-5.7-11.06C258,228.42,229.55,297.44,291.5,297.66Zm18-7.35c-1.31-5.63-2.09-12.49,1.72-12.76,4-.29,3.38,6.84,2.22,12.7,1.42-4.66,3.6-9.88,6.31-10.4,24.88-63.53-49.56-53.54-18.36.5C304.61,278.43,307.58,284.76,309.48,290.31Zm7.4,1.85c4.22-3.95,9.77-8.06,11.91-4.89s-4.24,6.35-9.89,8.28c5.07-1.18,11.12-1.92,12.48.72,67.56-10.17,21.76-69.64-9.44-15.78C324.29,282.62,320.52,288,316.88,292.16Zm-10.59,11c-4.22,3.94-9.77,8.06-11.92,4.89s4.23-6.34,9.88-8.27c-5,1.15-10.9,1.9-12.4-.58-67.09,10.28-21.49,69.44,9.67,15.85C298.59,313.06,302.5,307.46,306.28,303.13Zm7.4,1.84c1.31,5.63,2.09,12.49-1.72,12.77-4,.29-3.38-6.84-2.22-12.7-1.52,5-3.9,10.59-6.87,10.44-24.81,63.4,49.37,53.52,18.5-.32C318.29,316.31,315.49,310.28,313.68,305Zm18-7c-0.55,3.22-7.17,2.63-12.67,1.55,5.53,1.68,11.87,4.43,10.2,7.88s-7.62-.5-12.11-4.43c3.57,3.82,7.27,8.73,5.58,11.22C365.13,367.3,393.66,298.14,331.64,297.94Zm-14-.41c-0.08-1.14-2.15-.91-3.84-0.51,1.7-.58,3.64-1.5,3-2.49s-2.31.29-3.58,1.47c1.18-1.35,2.4-3.12,1.33-3.64s-1.86,1.4-2.36,3.06c0.35-1.76.53-3.9-.67-3.81s-0.91,2.14-.52,3.83c-0.58-1.69-1.49-3.63-2.48-3s0.28,2.31,1.47,3.57c-1.35-1.18-3.11-2.4-3.63-1.33s1.39,1.86,3.05,2.36c-1.76-.34-3.89-0.52-3.8.67s2.14,0.91,3.83.52c-1.7.58-3.64,1.49-3,2.48s2.31-.28,3.57-1.46c-1.18,1.35-2.4,3.11-1.32,3.63s1.86-1.4,2.36-3.06c-0.35,1.76-.53,3.9.67,3.81s0.91-2.15.51-3.83c0.58,1.7,1.49,3.64,2.48,3s-0.29-2.31-1.47-3.58c1.35,1.18,3.12,2.41,3.64,1.33s-1.41-1.86-3.07-2.37C315.54,298.54,317.69,298.72,317.61,297.53Zm-6,1.72a1.6,1.6,0,1,1,1.61-1.6A1.6,1.6,0,0,1,311.58,299.24Z" transform="translate(50.38 72.29)" style="fill: #d1c894"/>
      <path d="M389.37,523.66c0.18-3.56,7-3,12.67-1.86-5.53-1.68-11.85-4.43-10.19-7.87s7.62,0.5,12.11,4.43c-3.49-3.74-7.11-8.52-5.7-11.06C355.84,454.42,327.42,523.45,389.37,523.66Zm18-7.35c-1.31-5.63-2.09-12.49,1.72-12.76,4-.29,3.38,6.84,2.22,12.7,1.42-4.66,3.6-9.88,6.31-10.4,24.88-63.54-49.56-53.54-18.36.5C402.47,504.44,405.45,510.76,407.34,516.31Zm7.4,1.85c4.22-3.95,9.77-8.06,11.91-4.89s-4.24,6.35-9.89,8.28c5.07-1.18,11.12-1.92,12.48.72,67.56-10.17,21.76-69.64-9.44-15.78C422.16,508.62,418.39,514,414.74,518.16Zm-10.59,11c-4.22,3.94-9.77,8.06-11.92,4.89s4.23-6.34,9.88-8.27c-5,1.15-10.9,1.9-12.4-.58-67.09,10.28-21.49,69.44,9.67,15.85C396.46,539.06,400.36,533.46,404.15,529.13Zm7.4,1.84c1.31,5.63,2.09,12.49-1.72,12.77-4,.29-3.38-6.84-2.22-12.7-1.52,5-3.9,10.59-6.87,10.44-24.81,63.4,49.37,53.52,18.5-.32C416.16,542.32,413.36,536.28,411.54,531Zm18-7c-0.55,3.22-7.17,2.63-12.67,1.55,5.53,1.68,11.87,4.43,10.2,7.88s-7.62-.5-12.11-4.43c3.57,3.82,7.27,8.73,5.58,11.22C463,593.31,491.52,524.14,429.51,523.94Zm-14-.41c-0.08-1.14-2.15-.91-3.84-0.51,1.7-.58,3.64-1.5,3-2.49s-2.31.29-3.58,1.47c1.18-1.35,2.4-3.12,1.33-3.64s-1.86,1.4-2.36,3.06c0.35-1.76.53-3.9-.67-3.81s-0.91,2.14-.52,3.83c-0.58-1.69-1.49-3.63-2.48-3s0.28,2.31,1.47,3.57c-1.35-1.18-3.11-2.4-3.63-1.33s1.39,1.86,3.05,2.36c-1.76-.34-3.89-0.52-3.8.67s2.14,0.91,3.83.52c-1.7.58-3.64,1.49-3,2.48s2.31-.28,3.57-1.46c-1.18,1.35-2.4,3.11-1.32,3.63s1.86-1.4,2.36-3.06c-0.35,1.76-.53,3.9.67,3.81s0.91-2.15.51-3.83c0.58,1.7,1.49,3.64,2.48,3s-0.29-2.31-1.47-3.58c1.35,1.18,3.12,2.41,3.64,1.33s-1.41-1.86-3.07-2.37C413.41,524.54,415.56,524.73,415.47,523.53Zm-6,1.72a1.6,1.6,0,1,1,1.61-1.6A1.6,1.6,0,0,1,409.44,525.25Z" transform="translate(50.38 72.29)" style="fill: #d1c894"/>
      <path d="M67.14,199.64c0.18-3.56,7-3,12.67-1.86-5.52-1.68-11.85-4.43-10.18-7.88s7.62,0.5,12.11,4.43c-3.5-3.74-7.12-8.52-5.7-11.06C33.61,130.4,5.19,199.42,67.14,199.64Zm18-7.35c-1.31-5.63-2.09-12.49,1.72-12.76,4-.29,3.38,6.84,2.22,12.7,1.42-4.66,3.6-9.88,6.31-10.4,24.89-63.53-49.56-53.54-18.36.5C80.24,180.41,83.22,186.74,85.11,192.29Zm7.4,1.85c4.22-3.95,9.77-8.06,11.91-4.89s-4.24,6.35-9.89,8.28c5.07-1.18,11.12-1.92,12.48.72,67.56-10.17,21.77-69.64-9.44-15.78C99.93,184.6,96.16,190,92.51,194.14Zm-10.6,11C77.7,209.05,72.15,213.16,70,210s4.23-6.34,9.88-8.27c-5,1.15-10.9,1.9-12.4-.58C0.39,211.43,46,270.59,77.15,217,74.23,215,78.13,209.44,81.92,205.11Zm7.4,1.84c1.31,5.63,2.09,12.49-1.72,12.77-4,.29-3.38-6.84-2.22-12.7-1.52,5-3.9,10.59-6.87,10.44-24.81,63.4,49.37,53.51,18.5-.32C93.93,218.29,91.13,212.26,89.31,206.95Zm18-7c-0.55,3.22-7.17,2.63-12.67,1.55,5.53,1.68,11.87,4.43,10.2,7.88s-7.62-.5-12.11-4.43c3.58,3.83,7.27,8.73,5.58,11.22C140.77,269.28,169.29,200.12,107.28,199.92Zm-14-.41c-0.08-1.15-2.15-.91-3.84-0.51,1.7-.58,3.64-1.49,3-2.49s-2.31.29-3.58,1.47c1.18-1.35,2.41-3.11,1.33-3.64s-1.86,1.4-2.36,3.06c0.35-1.76.53-3.9-.67-3.81s-0.91,2.14-.52,3.83c-0.58-1.69-1.49-3.63-2.48-3s0.28,2.31,1.47,3.57c-1.35-1.18-3.11-2.4-3.63-1.33s1.39,1.86,3,2.36c-1.76-.35-3.89-0.52-3.8.67s2.14,0.91,3.83.52c-1.7.58-3.64,1.49-3,2.48s2.31-.28,3.57-1.46c-1.18,1.35-2.4,3.11-1.32,3.63s1.86-1.4,2.36-3.06c-0.35,1.76-.53,3.9.67,3.81s0.91-2.15.52-3.84c0.58,1.7,1.49,3.64,2.48,3s-0.29-2.31-1.47-3.58c1.35,1.18,3.12,2.41,3.64,1.33s-1.41-1.86-3.07-2.37C91.18,200.52,93.33,200.7,93.24,199.51Zm-6,1.72a1.6,1.6,0,1,1,1.61-1.6A1.6,1.6,0,0,1,87.21,201.22Z" transform="translate(50.38 72.29)" style="fill: #c1dbd5"/>
      <path d="M261.91,213.9c0.18-3.56,7-3,12.67-1.86-5.52-1.68-11.85-4.43-10.19-7.88s7.62,0.5,12.11,4.43c-3.5-3.74-7.12-8.52-5.7-11.06C228.38,144.67,200,213.69,261.91,213.9Zm18-7.35c-1.31-5.63-2.09-12.49,1.72-12.76,4-.29,3.38,6.84,2.22,12.7,1.42-4.66,3.6-9.88,6.31-10.4,24.89-63.53-49.56-53.54-18.36.5C275,194.68,278,201,279.89,206.56Zm7.4,1.85c4.22-3.95,9.77-8.06,11.91-4.89s-4.24,6.35-9.89,8.28c5.07-1.18,11.12-1.92,12.48.72,67.55-10.17,21.76-69.64-9.44-15.78C294.7,198.86,290.93,204.23,287.29,208.41Zm-10.59,11c-4.22,3.94-9.77,8.06-11.92,4.89s4.23-6.34,9.88-8.27c-5,1.15-10.9,1.9-12.4-.58-67.09,10.28-21.49,69.44,9.67,15.85C269,229.3,272.91,223.7,276.69,219.37Zm7.4,1.84c1.31,5.63,2.09,12.49-1.72,12.77-4,.29-3.38-6.84-2.22-12.7-1.52,5-3.9,10.59-6.87,10.44-24.81,63.4,49.37,53.52,18.5-.32C288.7,232.56,285.9,226.53,284.09,221.22Zm18-7c-0.55,3.22-7.17,2.63-12.67,1.55,5.53,1.68,11.87,4.43,10.2,7.88s-7.62-.5-12.11-4.43c3.58,3.83,7.27,8.73,5.58,11.22C335.54,283.55,364.07,214.39,302,214.19Zm-14-.41c-0.08-1.15-2.15-.91-3.84-0.51,1.7-.58,3.64-1.49,3-2.49s-2.31.29-3.58,1.47c1.18-1.35,2.41-3.11,1.33-3.64s-1.86,1.4-2.36,3.06c0.35-1.76.53-3.9-.67-3.81s-0.91,2.14-.52,3.83c-0.58-1.69-1.49-3.63-2.48-3s0.28,2.31,1.47,3.57c-1.35-1.18-3.11-2.4-3.63-1.33s1.39,1.86,3,2.36c-1.76-.35-3.89-0.52-3.8.67s2.14,0.91,3.83.52c-1.7.58-3.64,1.49-3,2.48s2.31-.28,3.57-1.46c-1.18,1.35-2.4,3.11-1.32,3.63s1.86-1.4,2.36-3.06c-0.35,1.76-.53,3.9.67,3.81s0.91-2.15.51-3.84c0.58,1.7,1.49,3.64,2.49,3s-0.29-2.31-1.47-3.58c1.35,1.18,3.12,2.41,3.64,1.33s-1.41-1.86-3.07-2.37C286,214.79,288.1,215,288,213.77Zm-6,1.72a1.6,1.6,0,1,1,1.6-1.6A1.61,1.61,0,0,1,282,215.49Z" transform="translate(50.38 72.29)" style="fill: #c1dbd5"/>
      <path d="M152.36,407.79c0.18-3.56,7-3,12.67-1.86-5.52-1.68-11.85-4.43-10.18-7.87s7.62,0.5,12.11,4.43c-3.5-3.74-7.12-8.52-5.7-11.06C118.84,338.55,90.42,407.58,152.36,407.79Zm18-7.35c-1.31-5.63-2.09-12.49,1.72-12.76,4-.29,3.38,6.84,2.22,12.7,1.42-4.66,3.6-9.88,6.31-10.4,24.89-63.53-49.56-53.54-18.36.5C165.47,388.57,168.45,394.89,170.34,400.44Zm7.4,1.85c4.22-3.95,9.77-8.06,11.91-4.89s-4.24,6.35-9.89,8.28c5.07-1.18,11.12-1.92,12.48.72,67.55-10.17,21.76-69.64-9.44-15.78C185.16,392.75,181.39,398.11,177.74,402.29Zm-10.59,11c-4.22,3.94-9.77,8.06-11.92,4.89s4.23-6.34,9.88-8.27c-5,1.15-10.9,1.9-12.4-.58-67.09,10.28-21.49,69.44,9.67,15.85C159.46,423.19,163.36,417.59,167.15,413.26Zm7.4,1.84c1.31,5.63,2.09,12.49-1.72,12.77-4,.29-3.38-6.84-2.22-12.7-1.52,5-3.9,10.59-6.87,10.44-24.81,63.4,49.37,53.52,18.5-.32C179.16,426.45,176.36,420.41,174.54,415.1Zm18-7c-0.55,3.22-7.17,2.63-12.67,1.55,5.53,1.68,11.87,4.43,10.2,7.88s-7.62-.5-12.11-4.43c3.58,3.83,7.27,8.73,5.58,11.22C226,477.44,254.52,408.27,192.51,408.07Zm-14-.41c-0.08-1.15-2.15-.91-3.84-0.51,1.7-.58,3.64-1.5,3-2.49s-2.31.29-3.58,1.47c1.18-1.35,2.41-3.12,1.33-3.64s-1.86,1.4-2.36,3.06c0.35-1.76.53-3.9-.67-3.81s-0.91,2.14-.52,3.83c-0.58-1.69-1.49-3.63-2.48-3s0.28,2.31,1.47,3.57c-1.35-1.18-3.11-2.4-3.63-1.33s1.39,1.86,3,2.36c-1.76-.35-3.89-0.52-3.8.67s2.14,0.91,3.83.52c-1.7.58-3.64,1.49-3,2.48s2.31-.28,3.57-1.46c-1.18,1.35-2.4,3.11-1.32,3.63s1.86-1.4,2.36-3.06c-0.35,1.76-.53,3.9.67,3.81s0.91-2.15.51-3.84c0.58,1.7,1.49,3.65,2.49,3s-0.29-2.31-1.47-3.58c1.35,1.18,3.12,2.41,3.64,1.33s-1.41-1.86-3.07-2.37C176.41,408.67,178.56,408.86,178.47,407.66Zm-6,1.72a1.6,1.6,0,1,1,1.6-1.6A1.61,1.61,0,0,1,172.44,409.38Z" transform="translate(50.38 72.29)" style="fill: #c1dbd5"/>
      <path d="M532.59,335c0.33-6.45,12.71-5.4,23-3.38-10-3.05-21.49-8-18.46-14.28,3.15-6.5,13.81.91,22,8-6.34-6.78-12.9-15.45-10.33-20C471.8,209.48,420.28,334.62,532.59,335Zm32.6-13.32c-2.37-10.21-3.8-22.64,3.12-23.14,7.2-.52,6.12,12.4,4,23,2.57-8.45,6.52-17.91,11.44-18.86,45.12-115.19-89.85-97.07-33.29.9C556.35,300.16,561.74,311.63,565.18,321.69ZM578.59,325c7.65-7.15,17.71-14.61,21.6-8.87,4.06,6-7.69,11.51-17.93,15,9.19-2.13,20.16-3.49,22.63,1.31,122.48-18.44,39.46-126.27-17.12-28.61C592,307.74,585.21,317.47,578.59,325Zm-19.21,19.89c-7.65,7.15-17.71,14.61-21.6,8.87-4.06-6,7.67-11.5,17.91-15-9,2.09-19.76,3.44-22.49-1-121.63,18.65-39,125.9,17.54,28.74C545.44,362.93,552.53,352.77,559.38,344.92Zm13.41,3.34c2.37,10.21,3.8,22.65-3.12,23.15-7.2.52-6.12-12.4-4-23-2.75,9-7.07,19.2-12.46,18.93-45,115,89.5,97,33.54-.58C581.16,368.84,576.08,357.89,572.79,348.27Zm32.57-12.74c-1,5.85-13,4.77-23,2.8,10,3.05,21.52,8,18.5,14.28-3.15,6.5-13.81-.9-22-8,6.48,6.94,13.18,15.83,10.12,20.34C666.08,461.28,717.8,335.89,605.36,335.52Zm-25.44-.75c-0.15-2.08-3.89-1.64-7-.93,3.08-1.05,6.6-2.71,5.39-4.51s-4.19.52-6.49,2.67c2.14-2.45,4.36-5.65,2.41-6.59S570.9,328,570,331c0.63-3.19,1-7.07-1.21-6.91s-1.65,3.88-.94,6.94c-1-3.07-2.71-6.59-4.5-5.37s0.51,4.18,2.66,6.48c-2.45-2.14-5.64-4.35-6.58-2.41s2.53,3.37,5.53,4.29c-3.18-.63-7-0.95-6.89,1.21s3.89,1.65,7,.94c-3.08,1-6.6,2.71-5.39,4.5s4.18-.51,6.48-2.65c-2.13,2.44-4.35,5.64-2.4,6.58S567.07,342,568,339c-0.63,3.18-1,7.06,1.21,6.91s1.64-3.89.93-7c1,3.08,2.71,6.61,4.51,5.39s-0.52-4.2-2.67-6.5c2.45,2.14,5.65,4.37,6.59,2.42S576,336.89,573,336C576.17,336.61,580.07,336.94,579.92,334.77ZM569,337.89A2.91,2.91,0,1,1,571.9,335,2.91,2.91,0,0,1,569,337.89Z" transform="translate(50.38 72.29)" style="fill: #c1dbd5"/>
      <path d="M334,461.93c0.18-3.56,7-3,12.67-1.86-5.52-1.68-11.85-4.43-10.18-7.87s7.62,0.5,12.11,4.43c-3.5-3.74-7.12-8.52-5.7-11.06C300.44,392.69,272,461.72,334,461.93Zm18-7.35c-1.31-5.63-2.09-12.49,1.72-12.76,4-.29,3.38,6.84,2.22,12.7,1.42-4.66,3.6-9.88,6.31-10.4,24.89-63.53-49.56-53.54-18.36.5C347.07,442.71,350,449,351.94,454.58Zm7.4,1.85c4.22-3.95,9.77-8.06,11.91-4.89s-4.24,6.35-9.89,8.28c5.07-1.18,11.12-1.92,12.48.72,67.55-10.17,21.76-69.64-9.44-15.78C366.76,446.89,363,452.25,359.34,456.43Zm-10.59,11c-4.22,3.94-9.77,8.06-11.92,4.89s4.23-6.34,9.88-8.27c-5,1.15-10.9,1.9-12.4-.58-67.09,10.28-21.49,69.44,9.67,15.85C341.05,477.33,345,471.73,348.74,467.4Zm7.4,1.84c1.31,5.63,2.09,12.49-1.72,12.77-4,.29-3.37-6.84-2.22-12.7-1.52,5-3.9,10.59-6.87,10.44-24.81,63.4,49.37,53.52,18.5-.32C360.75,480.59,358,474.55,356.14,469.24Zm18-7c-0.55,3.22-7.17,2.63-12.67,1.55,5.53,1.68,11.87,4.43,10.2,7.88s-7.62-.5-12.11-4.43c3.58,3.83,7.27,8.73,5.58,11.22C407.59,531.58,436.12,462.42,374.1,462.21Zm-14-.41c-0.08-1.15-2.15-.91-3.84-0.51,1.7-.58,3.64-1.5,3-2.49s-2.31.29-3.58,1.47c1.18-1.35,2.41-3.12,1.33-3.64s-1.86,1.4-2.36,3.06c0.35-1.76.53-3.9-.66-3.81s-0.91,2.14-.52,3.83c-0.58-1.69-1.49-3.63-2.48-3s0.28,2.31,1.47,3.57c-1.35-1.18-3.11-2.4-3.63-1.33s1.39,1.86,3,2.36c-1.75-.35-3.89-0.52-3.8.67s2.14,0.91,3.83.52c-1.7.58-3.64,1.49-3,2.48s2.31-.28,3.57-1.46c-1.18,1.35-2.4,3.11-1.32,3.63s1.86-1.4,2.36-3.06c-0.35,1.76-.53,3.9.67,3.81s0.91-2.15.51-3.84c0.58,1.7,1.49,3.65,2.49,3s-0.29-2.31-1.47-3.58c1.35,1.18,3.12,2.41,3.64,1.33s-1.41-1.86-3.07-2.37C358,462.81,360.15,463,360.07,461.8Zm-6,1.72a1.6,1.6,0,1,1,1.61-1.6A1.61,1.61,0,0,1,354,463.52Z" transform="translate(50.38 72.29)" style="fill: #c1dbd5"/>
      <path d="M30,530.63c0.18-3.56,7-3,12.67-1.86-5.52-1.68-11.85-4.43-10.18-7.87s7.62,0.5,12.11,4.43c-3.5-3.74-7.12-8.52-5.7-11.06C-3.56,461.4-32,530.42,30,530.63Zm18-7.35c-1.31-5.63-2.09-12.49,1.72-12.76,4-.29,3.38,6.84,2.22,12.7,1.42-4.66,3.6-9.88,6.31-10.4,24.89-63.53-49.56-53.54-18.36.5C43.07,511.41,46,517.74,47.94,523.29Zm7.4,1.85c4.22-3.95,9.77-8.06,11.91-4.89s-4.24,6.35-9.89,8.28c5.07-1.18,11.12-1.92,12.48.72,67.55-10.17,21.76-69.64-9.44-15.78C62.76,515.59,59,521,55.34,525.14Zm-10.59,11C40.52,540,35,544.16,32.83,541s4.23-6.34,9.88-8.27c-5,1.15-10.9,1.9-12.4-.58C-36.78,542.43,8.81,601.58,40,548,37.05,546,41,540.43,44.74,536.1Zm7.4,1.84c1.31,5.63,2.09,12.49-1.72,12.77-4,.29-3.37-6.84-2.22-12.7-1.52,5-3.9,10.59-6.87,10.44-24.81,63.4,49.37,53.52,18.5-.32C56.75,549.29,54,543.26,52.14,537.95Zm18-7c-0.55,3.22-7.17,2.63-12.67,1.55,5.53,1.68,11.87,4.43,10.2,7.88s-7.62-.5-12.11-4.43c3.58,3.83,7.27,8.73,5.58,11.22C103.59,600.28,132.12,531.12,70.1,530.92Zm-14-.41c-0.08-1.15-2.15-.91-3.84-0.51,1.7-.58,3.64-1.5,3-2.49s-2.31.29-3.58,1.47c1.18-1.35,2.41-3.12,1.33-3.64s-1.86,1.4-2.36,3.06c0.35-1.76.53-3.9-.66-3.81s-0.91,2.14-.52,3.83c-0.58-1.69-1.49-3.63-2.48-3s0.28,2.31,1.47,3.57c-1.35-1.18-3.11-2.4-3.63-1.33s1.39,1.86,3,2.36c-1.75-.35-3.89-0.52-3.8.67s2.14,0.91,3.83.52c-1.7.58-3.64,1.49-3,2.48s2.31-.28,3.57-1.46c-1.18,1.35-2.4,3.11-1.32,3.63s1.86-1.4,2.36-3.06c-0.35,1.76-.53,3.9.67,3.81s0.91-2.15.51-3.84c0.58,1.7,1.49,3.65,2.49,3s-0.29-2.31-1.47-3.58c1.35,1.18,3.12,2.41,3.64,1.33s-1.41-1.86-3.07-2.37C54,531.52,56.15,531.7,56.07,530.5Zm-6,1.72a1.6,1.6,0,1,1,1.61-1.6A1.61,1.61,0,0,1,50,532.22Z" transform="translate(50.38 72.29)" style="fill: #c1dbd5"/>
      <path d="M251.79,118.9c0.18-3.56,7-3,12.67-1.86-5.52-1.68-11.85-4.43-10.18-7.88s7.62,0.5,12.11,4.43c-3.5-3.74-7.12-8.52-5.7-11.06C218.27,49.66,189.85,118.69,251.79,118.9Zm18-7.35c-1.31-5.63-2.09-12.49,1.72-12.76,4-.29,3.38,6.84,2.22,12.7,1.42-4.66,3.6-9.88,6.31-10.4,24.89-63.53-49.56-53.54-18.36.5C264.9,99.68,267.88,106,269.77,111.55Zm7.4,1.85c4.22-3.95,9.77-8.06,11.91-4.89s-4.24,6.35-9.89,8.28c5.07-1.18,11.12-1.92,12.48.72,67.56-10.17,21.77-69.64-9.44-15.78C284.59,103.86,280.82,109.22,277.17,113.4Zm-10.6,11c-4.22,3.94-9.77,8.06-11.92,4.89s4.23-6.34,9.88-8.27c-5,1.15-10.9,1.9-12.4-.58-67.09,10.28-21.49,69.44,9.67,15.85C258.88,134.3,262.79,128.7,266.57,124.37Zm7.4,1.84c1.31,5.63,2.09,12.49-1.72,12.77-4,.29-3.38-6.84-2.22-12.7-1.52,5-3.9,10.59-6.87,10.44-24.81,63.4,49.37,53.51,18.5-.32C278.58,137.56,275.78,131.52,274,126.21Zm18-7c-0.55,3.22-7.17,2.63-12.67,1.55,5.53,1.68,11.87,4.43,10.2,7.88s-7.62-.5-12.11-4.43c3.58,3.83,7.27,8.73,5.58,11.22C325.43,188.55,354,119.38,291.93,119.18Zm-14-.41c-0.08-1.15-2.15-.91-3.84-0.51,1.7-.58,3.64-1.49,3-2.49s-2.31.29-3.58,1.47c1.18-1.35,2.41-3.11,1.33-3.64s-1.86,1.4-2.36,3.06c0.35-1.76.53-3.9-.67-3.81s-0.91,2.14-.52,3.83c-0.58-1.69-1.49-3.63-2.48-3s0.28,2.31,1.47,3.57c-1.35-1.18-3.11-2.4-3.63-1.33s1.39,1.86,3,2.36c-1.76-.35-3.89-0.52-3.8.67s2.14,0.91,3.83.52c-1.7.58-3.64,1.49-3,2.48s2.31-.28,3.57-1.46c-1.18,1.35-2.4,3.11-1.32,3.63s1.86-1.4,2.36-3.06c-0.35,1.76-.53,3.9.67,3.81s0.91-2.15.52-3.84c0.58,1.7,1.49,3.64,2.48,3s-0.29-2.31-1.47-3.58c1.35,1.18,3.12,2.41,3.64,1.33s-1.41-1.86-3.07-2.37C275.83,119.78,278,120,277.9,118.77Zm-6,1.72a1.6,1.6,0,1,1,1.61-1.6A1.61,1.61,0,0,1,271.87,120.49Z" transform="translate(50.38 72.29)" style="fill: #d1c894"/>
      <path d="M65.54,343.37c0.18-3.56,7-3,12.67-1.86-5.52-1.68-11.85-4.43-10.19-7.87s7.62,0.5,12.11,4.43c-3.5-3.74-7.12-8.52-5.7-11.06C32,274.13,3.6,343.15,65.54,343.37Zm18-7.35c-1.31-5.63-2.09-12.49,1.72-12.76,4-.29,3.38,6.84,2.22,12.7,1.42-4.66,3.6-9.88,6.31-10.4C118.66,262,44.22,272,75.42,326,78.65,324.14,81.63,330.47,83.52,336Zm7.4,1.85c4.22-3.95,9.77-8.06,11.91-4.89s-4.24,6.35-9.89,8.28c5.07-1.18,11.12-1.92,12.48.72C173,331.81,127.19,272.33,96,326.19,98.34,328.33,94.57,333.69,90.92,337.87Zm-10.6,11c-4.22,3.94-9.77,8.06-11.92,4.89s4.23-6.34,9.88-8.27c-5,1.15-10.9,1.9-12.4-.58-67.09,10.29-21.49,69.44,9.67,15.85C72.64,358.77,76.54,353.17,80.33,348.84Zm7.4,1.84c1.31,5.63,2.09,12.49-1.72,12.77-4,.29-3.38-6.84-2.22-12.7-1.52,5-3.9,10.59-6.87,10.44-24.81,63.4,49.37,53.51,18.5-.32C92.34,362,89.54,356,87.72,350.68Zm18-7c-0.55,3.22-7.17,2.63-12.67,1.55,5.53,1.68,11.87,4.43,10.2,7.88s-7.62-.5-12.11-4.42c3.58,3.82,7.27,8.73,5.58,11.22C139.18,413,167.7,343.85,105.69,343.65Zm-14-.41c-0.08-1.14-2.15-.91-3.84-0.51,1.7-.58,3.64-1.5,3-2.49s-2.31.29-3.58,1.47c1.18-1.35,2.41-3.12,1.33-3.64s-1.86,1.4-2.36,3.06c0.35-1.76.53-3.9-.67-3.81s-0.91,2.14-.52,3.83c-0.58-1.69-1.49-3.63-2.48-3s0.28,2.31,1.47,3.57c-1.35-1.18-3.11-2.4-3.63-1.33s1.39,1.86,3,2.36c-1.76-.34-3.89-0.52-3.8.67s2.14,0.91,3.83.52c-1.7.58-3.64,1.49-3,2.48s2.31-.28,3.57-1.46c-1.18,1.35-2.4,3.11-1.32,3.63s1.86-1.4,2.36-3.06c-0.35,1.76-.53,3.9.67,3.81s0.91-2.15.52-3.84c0.58,1.7,1.49,3.64,2.48,3s-0.29-2.32-1.47-3.58c1.35,1.18,3.12,2.41,3.64,1.33s-1.41-1.86-3.07-2.37C89.59,344.25,91.74,344.43,91.65,343.24Zm-6,1.72a1.6,1.6,0,1,1,1.6-1.6A1.61,1.61,0,0,1,85.62,345Z" transform="translate(50.38 72.29)" style="fill: #d1c894"/>
      <path d="M433.13,224.23c0.18-3.56,7-3,12.67-1.86-5.53-1.68-11.85-4.43-10.19-7.87s7.62,0.5,12.11,4.43c-3.49-3.74-7.12-8.52-5.7-11.06C399.61,155,371.19,224,433.13,224.23Zm18-7.35c-1.31-5.63-2.09-12.49,1.72-12.76,4-.29,3.38,6.84,2.22,12.7,1.42-4.66,3.6-9.88,6.31-10.4,24.88-63.53-49.56-53.54-18.36.5C446.24,205,449.21,211.34,451.11,216.89Zm7.4,1.85c4.22-3.95,9.77-8.06,11.91-4.89s-4.24,6.35-9.89,8.28c5.07-1.18,11.12-1.92,12.48.72,67.56-10.17,21.76-69.64-9.44-15.78C465.93,209.19,462.16,214.56,458.51,218.73Zm-10.59,11c-4.22,3.94-9.77,8.06-11.92,4.89s4.23-6.34,9.88-8.27c-5,1.15-10.9,1.9-12.4-.58C366.38,236,412,295.18,443.15,241.59,440.22,239.63,444.13,234,447.91,229.7Zm7.4,1.84c1.31,5.63,2.09,12.49-1.72,12.77-4,.29-3.38-6.84-2.22-12.7-1.52,5-3.9,10.59-6.87,10.44-24.81,63.4,49.37,53.52,18.5-.32C459.92,242.89,457.12,236.86,455.31,231.55Zm18-7c-0.55,3.22-7.17,2.63-12.67,1.55,5.53,1.68,11.87,4.43,10.2,7.88s-7.62-.5-12.11-4.43c3.57,3.82,7.27,8.73,5.58,11.22C506.76,293.88,535.29,224.72,473.27,224.52Zm-14-.41c-0.08-1.14-2.15-.91-3.84-0.51,1.7-.58,3.64-1.5,3-2.49s-2.31.29-3.58,1.47c1.18-1.35,2.4-3.12,1.33-3.64s-1.86,1.4-2.36,3.06c0.35-1.76.53-3.9-.67-3.81s-0.91,2.14-.52,3.83c-0.58-1.69-1.49-3.63-2.48-3s0.28,2.31,1.47,3.57c-1.35-1.18-3.11-2.4-3.63-1.33s1.39,1.86,3.05,2.36c-1.76-.34-3.89-0.52-3.8.67s2.14,0.91,3.83.52c-1.7.58-3.64,1.49-3,2.48s2.31-.28,3.57-1.46c-1.18,1.35-2.4,3.11-1.32,3.63s1.86-1.4,2.36-3.06c-0.35,1.76-.53,3.9.67,3.81s0.91-2.15.51-3.84c0.58,1.7,1.49,3.64,2.48,3s-0.29-2.31-1.47-3.58c1.35,1.18,3.12,2.41,3.64,1.33s-1.41-1.86-3.07-2.37C457.17,225.12,459.32,225.3,459.24,224.1Zm-6,1.72a1.6,1.6,0,1,1,1.61-1.6A1.6,1.6,0,0,1,453.21,225.82Z" transform="translate(50.38 72.29)" style="fill: #d1c894"/>
      <path d="M457.1,396.72c0.18-3.56,7-3,12.67-1.86-5.53-1.68-11.85-4.43-10.19-7.87s7.62,0.5,12.11,4.43c-3.49-3.74-7.12-8.52-5.7-11.06C423.57,327.49,395.15,396.51,457.1,396.72Zm18-7.35c-1.31-5.63-2.09-12.49,1.72-12.76,4-.29,3.38,6.84,2.22,12.7,1.42-4.66,3.6-9.88,6.31-10.4,24.88-63.54-49.56-53.54-18.36.5C470.21,377.5,473.18,383.83,475.08,389.38Zm7.4,1.85c4.22-3.95,9.77-8.06,11.91-4.89s-4.24,6.35-9.89,8.28c5.07-1.18,11.12-1.92,12.48.72,67.56-10.17,21.76-69.64-9.44-15.78C489.89,381.68,486.13,387,482.48,391.22Zm-10.59,11c-4.22,3.94-9.77,8.06-11.92,4.89s4.23-6.34,9.88-8.27c-5,1.15-10.9,1.9-12.4-.58-67.09,10.29-21.49,69.44,9.67,15.85C464.19,412.13,468.1,406.52,471.88,402.19Zm7.4,1.84c1.31,5.63,2.09,12.49-1.72,12.77-4,.29-3.38-6.84-2.22-12.7-1.52,5-3.9,10.59-6.87,10.44-24.81,63.4,49.37,53.52,18.5-.32C483.89,415.38,481.09,409.35,479.28,404Zm18-7c-0.55,3.22-7.17,2.63-12.67,1.55,5.53,1.68,11.87,4.43,10.2,7.88s-7.62-.5-12.11-4.43c3.57,3.82,7.27,8.73,5.58,11.22C530.73,466.37,559.26,397.21,497.24,397Zm-14-.41c-0.08-1.14-2.15-.91-3.84-0.51,1.7-.58,3.64-1.5,3-2.49s-2.31.29-3.58,1.47c1.18-1.35,2.4-3.12,1.33-3.64s-1.86,1.4-2.36,3.06c0.35-1.76.53-3.9-.67-3.81s-0.91,2.14-.52,3.83c-0.58-1.69-1.49-3.63-2.48-3s0.28,2.31,1.47,3.57c-1.35-1.18-3.11-2.4-3.63-1.33s1.39,1.86,3.05,2.36c-1.76-.34-3.89-0.52-3.8.67s2.14,0.91,3.83.52c-1.7.58-3.64,1.49-3,2.48s2.31-.28,3.57-1.46c-1.18,1.35-2.4,3.11-1.32,3.63s1.86-1.4,2.36-3.06c-0.35,1.76-.53,3.9.67,3.81s0.91-2.15.51-3.84c0.58,1.7,1.49,3.64,2.48,3s-0.29-2.32-1.47-3.58c1.35,1.18,3.12,2.41,3.64,1.33s-1.41-1.86-3.07-2.37C481.14,397.61,483.29,397.79,483.21,396.59Zm-6,1.72a1.6,1.6,0,1,1,1.61-1.6A1.6,1.6,0,0,1,477.18,398.31Z" transform="translate(50.38 72.29)" style="fill: #d1c894"/>
      <path d="M215,482.76c0.18-3.56,7-3,12.67-1.86-5.53-1.68-11.85-4.43-10.19-7.87s7.62,0.5,12.11,4.43c-3.49-3.74-7.12-8.52-5.7-11.06C181.43,413.52,153,482.55,215,482.76Zm18-7.35c-1.31-5.63-2.09-12.49,1.72-12.76,4-.29,3.38,6.84,2.22,12.7,1.42-4.66,3.6-9.88,6.31-10.4,24.88-63.54-49.56-53.54-18.36.5C228.06,463.54,231,469.86,232.93,475.41Zm7.4,1.85c4.22-3.95,9.77-8.06,11.91-4.89s-4.24,6.35-9.89,8.28c5.07-1.18,11.12-1.92,12.48.72,67.56-10.17,21.76-69.64-9.44-15.78C247.75,467.72,244,473.09,240.33,477.26Zm-10.59,11c-4.22,3.94-9.77,8.06-11.92,4.89s4.23-6.34,9.88-8.27c-5,1.15-10.9,1.9-12.4-.58-67.09,10.29-21.49,69.44,9.67,15.85C222,498.16,226,492.56,229.74,488.23Zm7.4,1.84c1.31,5.63,2.09,12.49-1.72,12.77-4,.29-3.38-6.84-2.22-12.7-1.52,5-3.9,10.59-6.87,10.44-24.81,63.4,49.37,53.52,18.5-.32C241.75,501.42,238.95,495.38,237.13,490.07Zm18-7c-0.55,3.22-7.17,2.63-12.67,1.55,5.53,1.68,11.87,4.43,10.2,7.88S245,492,240.51,488c3.57,3.82,7.27,8.73,5.58,11.22C288.59,552.41,317.11,483.25,255.1,483Zm-14-.41c-0.08-1.14-2.15-.91-3.84-0.51,1.7-.58,3.64-1.5,3-2.49s-2.31.29-3.58,1.47c1.18-1.35,2.4-3.12,1.33-3.64s-1.86,1.4-2.36,3.06c0.35-1.76.53-3.9-.67-3.81s-0.91,2.14-.52,3.83c-0.58-1.69-1.49-3.63-2.48-3s0.28,2.31,1.47,3.57c-1.35-1.18-3.11-2.4-3.63-1.33s1.39,1.86,3.05,2.36c-1.76-.34-3.89-0.52-3.8.67s2.14,0.91,3.83.52c-1.7.58-3.64,1.49-3,2.48s2.31-.28,3.57-1.46c-1.18,1.35-2.4,3.11-1.32,3.63s1.86-1.4,2.36-3.06c-0.35,1.76-.53,3.9.67,3.81s0.91-2.15.51-3.84c0.58,1.7,1.49,3.64,2.48,3s-0.29-2.32-1.47-3.58c1.35,1.18,3.12,2.41,3.64,1.33s-1.41-1.86-3.07-2.37C239,483.64,241.15,483.83,241.06,482.63Zm-6,1.72a1.6,1.6,0,1,1,1.61-1.6A1.6,1.6,0,0,1,235,484.35Z" transform="translate(50.38 72.29)" style="fill: #d1c894"/>
      <path d="M85.93,589.94c0.18-3.56,7-3,12.67-1.86-5.53-1.68-11.85-4.43-10.19-7.87s7.62,0.5,12.11,4.43c-3.49-3.74-7.12-8.52-5.7-11.06C52.4,520.7,24,589.72,85.93,589.94Zm18-7.35c-1.31-5.63-2.09-12.49,1.72-12.76,4-.29,3.38,6.84,2.22,12.7,1.42-4.66,3.6-9.88,6.31-10.4,24.88-63.54-49.56-53.54-18.36.5C99,570.71,102,577,103.91,582.59Zm7.4,1.85c4.22-3.95,9.77-8.06,11.91-4.89s-4.24,6.35-9.89,8.28c5.07-1.18,11.12-1.92,12.48.72,67.56-10.17,21.76-69.64-9.44-15.78C118.73,574.9,115,580.26,111.31,584.44Zm-10.59,11c-4.22,3.94-9.77,8.06-11.92,4.89S93,594,98.68,592c-5,1.15-10.9,1.9-12.4-.58-67.09,10.29-21.49,69.44,9.67,15.85C93,605.34,96.93,599.74,100.71,595.41Zm7.4,1.84c1.31,5.63,2.09,12.49-1.72,12.77-4,.29-3.38-6.84-2.22-12.7-1.52,5-3.9,10.59-6.87,10.44-24.81,63.4,49.37,53.52,18.5-.32C112.72,608.59,109.92,602.56,108.11,597.25Zm18-7c-0.55,3.22-7.17,2.63-12.67,1.55,5.53,1.68,11.87,4.43,10.2,7.88s-7.62-.5-12.11-4.43c3.57,3.82,7.27,8.73,5.58,11.22C159.56,659.58,188.09,590.42,126.07,590.22Zm-14-.41c-0.08-1.14-2.15-.91-3.84-0.51,1.7-.58,3.64-1.5,3-2.49s-2.31.29-3.58,1.47c1.18-1.35,2.4-3.12,1.33-3.64s-1.86,1.4-2.36,3.06c0.35-1.76.53-3.9-.67-3.81s-0.91,2.14-.52,3.83c-0.58-1.69-1.49-3.63-2.48-3s0.28,2.31,1.47,3.57c-1.35-1.18-3.11-2.4-3.63-1.33s1.39,1.86,3.05,2.36c-1.76-.34-3.89-0.52-3.8.67s2.14,0.91,3.83.52c-1.7.58-3.64,1.49-3,2.48s2.31-.28,3.57-1.46c-1.18,1.35-2.4,3.11-1.32,3.63s1.86-1.4,2.36-3.06c-0.35,1.76-.53,3.9.67,3.81s0.91-2.15.51-3.84c0.58,1.7,1.49,3.64,2.48,3s-0.29-2.32-1.47-3.58c1.35,1.18,3.12,2.41,3.64,1.33s-1.41-1.86-3.07-2.37C110,590.82,112.12,591,112,589.81Zm-6,1.72a1.6,1.6,0,1,1,1.61-1.6A1.6,1.6,0,0,1,106,591.52Z" transform="translate(50.38 72.29)" style="fill: #d1c894"/>
      <path d="M130.49,126.34c0.19-3.71,7.32-3.11,13.23-1.94-5.77-1.76-12.37-4.62-10.63-8.22s8,0.52,12.64,4.63c-3.65-3.9-7.43-8.89-5.95-11.54C95.5,54.08,65.84,126.12,130.49,126.34Zm18.76-7.67c-1.36-5.87-2.19-13,1.8-13.32,4.15-.3,3.52,7.14,2.32,13.25,1.48-4.87,3.75-10.31,6.58-10.86,26-66.31-51.72-55.88-19.16.52C144.17,106.28,147.27,112.88,149.25,118.67ZM157,120.6c4.4-4.12,10.19-8.41,12.43-5.11s-4.42,6.63-10.32,8.64c5.29-1.23,11.6-2,13,.75,70.5-10.61,22.72-72.68-9.86-16.47C164.72,110.65,160.78,116.24,157,120.6ZM145.92,132c-4.41,4.12-10.2,8.41-12.44,5.1s4.42-6.62,10.31-8.63c-5.19,1.2-11.37,2-12.94-.6-70,10.73-22.43,72.47,10.09,16.54C137.89,142.41,142,136.57,145.92,132Zm7.72,1.93c1.36,5.87,2.19,13-1.8,13.32-4.15.3-3.52-7.14-2.32-13.25-1.58,5.19-4.07,11.05-7.17,10.9-25.89,66.17,51.52,55.85,19.31-.33C158.45,145.81,155.53,139.51,153.63,134Zm18.75-7.34c-0.57,3.36-7.49,2.75-13.23,1.61,5.77,1.76,12.39,4.63,10.65,8.22s-7.95-.52-12.64-4.62c3.73,4,7.59,9.11,5.82,11.71C207.34,199,237.11,126.85,172.38,126.64Zm-14.65-.43c-0.09-1.2-2.24-.95-4-0.54,1.77-.6,3.8-1.56,3.1-2.59s-2.41.3-3.73,1.54c1.23-1.41,2.51-3.25,1.39-3.8s-1.94,1.47-2.47,3.2c0.36-1.84.55-4.07-.7-4s-0.95,2.23-.54,4c-0.6-1.77-1.56-3.79-2.59-3.09s0.29,2.41,1.53,3.73c-1.41-1.23-3.25-2.5-3.79-1.38s1.45,1.94,3.18,2.47c-1.83-.36-4.06-0.54-4,0.7s2.24,0.95,4,.54c-1.77.6-3.8,1.56-3.1,2.59s2.41-.29,3.73-1.53c-1.23,1.41-2.5,3.24-1.38,3.79s1.94-1.46,2.47-3.19c-0.36,1.83-.55,4.07.7,4s0.95-2.24.54-4c0.6,1.77,1.56,3.8,2.59,3.1s-0.3-2.42-1.54-3.74c1.41,1.23,3.25,2.52,3.79,1.39s-1.47-1.94-3.2-2.47C155.58,127.26,157.82,127.45,157.73,126.21ZM151.44,128a1.67,1.67,0,1,1,1.68-1.67A1.67,1.67,0,0,1,151.44,128Z" transform="translate(50.38 72.29)" style="fill: #fdfacd"/>
      <path d="M388.49,358.52c0.19-3.71,7.32-3.11,13.23-1.94-5.77-1.76-12.37-4.62-10.63-8.22s8,0.53,12.64,4.63c-3.65-3.9-7.43-8.89-5.95-11.54C353.5,286.25,323.84,358.29,388.49,358.52Zm18.76-7.67c-1.36-5.87-2.19-13,1.8-13.32,4.15-.3,3.53,7.14,2.32,13.25,1.48-4.87,3.75-10.31,6.58-10.86,26-66.31-51.72-55.88-19.16.52C402.17,338.45,405.27,345.05,407.25,350.85Zm7.72,1.93c4.4-4.12,10.19-8.41,12.43-5.11s-4.42,6.63-10.32,8.64c5.29-1.23,11.6-2,13,.75,70.5-10.61,22.71-72.68-9.86-16.47C422.71,342.82,418.78,348.42,415,352.78Zm-11.06,11.45c-4.41,4.12-10.2,8.41-12.44,5.1s4.42-6.62,10.31-8.63c-5.19,1.2-11.37,2-12.94-.61-70,10.73-22.43,72.47,10.09,16.54C395.89,374.59,400,368.74,403.92,364.22Zm7.72,1.92c1.36,5.87,2.19,13-1.8,13.32-4.15.3-3.52-7.14-2.32-13.25-1.58,5.19-4.07,11.05-7.17,10.9-25.89,66.17,51.52,55.85,19.31-.33C416.45,378,413.53,371.69,411.63,366.15Zm18.75-7.34c-0.57,3.36-7.48,2.75-13.23,1.61,5.77,1.76,12.39,4.63,10.65,8.22s-7.95-.52-12.64-4.62c3.73,4,7.59,9.11,5.82,11.71C465.34,431.2,495.11,359,430.38,358.81Zm-14.65-.43c-0.09-1.2-2.24-.95-4-0.54,1.77-.6,3.8-1.56,3.1-2.59s-2.41.3-3.73,1.54c1.23-1.41,2.51-3.25,1.39-3.8s-1.94,1.47-2.47,3.2c0.36-1.83.55-4.07-.7-4s-0.95,2.23-.54,4c-0.6-1.77-1.56-3.79-2.59-3.09s0.29,2.41,1.53,3.73c-1.41-1.23-3.25-2.5-3.79-1.38s1.45,1.94,3.18,2.46c-1.83-.36-4.06-0.54-4,0.7s2.24,0.95,4,.54c-1.77.6-3.8,1.56-3.1,2.59s2.41-.29,3.73-1.53c-1.23,1.41-2.5,3.25-1.38,3.79s1.94-1.46,2.47-3.19c-0.36,1.83-.55,4.07.7,4s0.95-2.24.54-4c0.6,1.77,1.56,3.8,2.59,3.1s-0.3-2.42-1.54-3.74c1.41,1.23,3.25,2.52,3.79,1.39s-1.47-1.94-3.2-2.47C413.58,359.44,415.82,359.63,415.73,358.38Zm-6.29,1.79a1.67,1.67,0,1,1,1.67-1.67A1.68,1.68,0,0,1,409.44,360.17Z" transform="translate(50.38 72.29)" style="fill: #fdfacd"/>
      <path d="M123.08,505.52c0.19-3.71,7.32-3.11,13.23-1.94-5.77-1.76-12.37-4.62-10.63-8.22s8,0.53,12.64,4.63c-3.65-3.9-7.43-8.89-5.95-11.54C88.09,433.25,58.43,505.29,123.08,505.52Zm18.76-7.67c-1.36-5.87-2.19-13,1.8-13.32,4.15-.3,3.53,7.14,2.32,13.25,1.48-4.87,3.75-10.31,6.58-10.86,26-66.31-51.72-55.88-19.16.52C136.76,485.45,139.86,492.05,141.84,497.85Zm7.72,1.93c4.4-4.12,10.19-8.41,12.43-5.11s-4.42,6.63-10.32,8.64c5.29-1.23,11.6-2,13,.75,70.5-10.61,22.71-72.68-9.86-16.47C157.3,489.82,153.37,495.42,149.56,499.78Zm-11.06,11.45c-4.41,4.12-10.2,8.41-12.44,5.1s4.42-6.62,10.31-8.63c-5.19,1.2-11.37,2-12.94-.61-70,10.73-22.43,72.47,10.09,16.54C130.48,521.59,134.56,515.74,138.51,511.22Zm7.72,1.92c1.36,5.87,2.19,13-1.8,13.32-4.15.3-3.52-7.14-2.32-13.25-1.58,5.19-4.07,11.05-7.17,10.9-25.89,66.17,51.52,55.85,19.31-.33C151,525,148.12,518.69,146.22,513.15ZM165,505.81c-0.57,3.36-7.48,2.75-13.23,1.61,5.77,1.76,12.39,4.63,10.65,8.22s-7.95-.52-12.64-4.62c3.73,4,7.59,9.11,5.82,11.71C199.92,578.2,229.7,506,165,505.81Zm-14.65-.43c-0.09-1.2-2.24-.95-4-0.54,1.77-.6,3.8-1.56,3.1-2.59s-2.41.3-3.73,1.54c1.23-1.41,2.51-3.25,1.39-3.8s-1.94,1.47-2.47,3.2c0.36-1.83.55-4.07-.7-4s-0.95,2.23-.54,4c-0.6-1.77-1.56-3.79-2.59-3.09s0.29,2.41,1.53,3.73c-1.41-1.23-3.25-2.5-3.79-1.38s1.45,1.94,3.18,2.46c-1.83-.36-4.06-0.54-4,0.7s2.24,0.95,4,.54c-1.77.6-3.8,1.56-3.1,2.59s2.41-.29,3.73-1.53c-1.23,1.41-2.5,3.25-1.38,3.79s1.94-1.46,2.47-3.19c-0.36,1.83-.55,4.07.7,4s0.95-2.24.54-4c0.6,1.77,1.56,3.8,2.59,3.1s-0.3-2.42-1.54-3.74c1.41,1.23,3.25,2.52,3.79,1.39s-1.47-1.94-3.2-2.47C148.17,506.44,150.41,506.63,150.32,505.38ZM144,507.17a1.67,1.67,0,1,1,1.67-1.67A1.68,1.68,0,0,1,144,507.17Z" transform="translate(50.38 72.29)" style="fill: #fdfacd"/>
      <path d="M-12.93,346.06c0.19-3.71,7.32-3.11,13.23-1.94-5.77-1.76-12.37-4.62-10.63-8.22s8,0.53,12.64,4.63c-3.65-3.9-7.43-8.89-5.95-11.54C-47.92,273.8-77.58,345.84-12.93,346.06Zm18.76-7.67c-1.36-5.87-2.19-13,1.8-13.32,4.15-.3,3.53,7.14,2.32,13.25,1.48-4.87,3.75-10.31,6.58-10.86,26-66.31-51.72-55.88-19.16.52C0.75,326,3.86,332.6,5.83,338.39Zm7.72,1.93c4.4-4.12,10.19-8.41,12.43-5.11s-4.42,6.63-10.32,8.64c5.29-1.23,11.6-2,13,.75,70.5-10.61,22.71-72.68-9.86-16.47C21.3,330.36,17.36,336,13.56,340.32ZM2.5,351.77c-4.41,4.12-10.2,8.41-12.44,5.1s4.42-6.62,10.31-8.63c-5.19,1.2-11.37,2-12.94-.61-70,10.73-22.43,72.47,10.09,16.54C-5.53,362.13-1.45,356.29,2.5,351.77Zm7.72,1.92c1.36,5.87,2.19,13-1.8,13.32-4.15.3-3.52-7.14-2.32-13.25C4.52,359,2,364.82-1.07,364.66c-25.89,66.17,51.52,55.85,19.31-.33C15,365.53,12.11,359.23,10.22,353.69ZM29,346.36c-0.57,3.36-7.48,2.75-13.23,1.61,5.77,1.76,12.39,4.63,10.65,8.22s-7.95-.52-12.64-4.62c3.73,4,7.59,9.11,5.82,11.71C63.92,418.75,93.69,346.57,29,346.36Zm-14.65-.43c-0.09-1.2-2.24-.95-4-0.54,1.77-.6,3.8-1.56,3.1-2.59s-2.41.3-3.73,1.54c1.23-1.41,2.51-3.25,1.39-3.8S9.13,342,8.6,343.73c0.36-1.84.55-4.07-.7-4s-0.95,2.23-.54,4C6.76,342,5.81,340,4.78,340.66s0.29,2.41,1.53,3.73c-1.41-1.23-3.25-2.5-3.79-1.38S4,344.94,5.7,345.47c-1.83-.36-4.06-0.54-4,0.7s2.24,0.95,4,.54c-1.77.6-3.8,1.56-3.1,2.59S5,349,6.36,347.76C5.14,349.17,3.86,351,5,351.55s1.94-1.46,2.47-3.19c-0.36,1.83-.55,4.07.7,4s0.95-2.24.54-4c0.6,1.77,1.56,3.8,2.59,3.1S11,349,9.74,347.7c1.41,1.23,3.25,2.52,3.79,1.39s-1.47-1.94-3.2-2.47C12.16,347,14.41,347.17,14.32,345.93ZM8,347.72A1.67,1.67,0,1,1,9.7,346,1.68,1.68,0,0,1,8,347.72Z" transform="translate(50.38 72.29)" style="fill: #fdfacd"/>
      <path d="M333.21,226.36c0.13-2.57,5.06-2.15,9.15-1.35-4-1.22-8.56-3.2-7.35-5.69s5.5,0.36,8.75,3.2c-2.52-2.7-5.14-6.15-4.11-8C309,176.36,288.49,226.2,333.21,226.36Zm13-5.31c-0.94-4.06-1.51-9,1.24-9.22s2.44,4.94,1.61,9.17c1-3.37,2.6-7.13,4.56-7.51,18-45.87-35.78-38.66-13.26.36C342.68,212.48,344.83,217,346.19,221.05Zm5.34,1.33c3-2.85,7.05-5.82,8.6-3.53s-3.06,4.58-7.14,6c3.66-.85,8-1.39,9,0.52,48.78-7.34,15.71-50.28-6.82-11.39C356.89,215.5,354.17,219.37,351.54,222.38Zm-7.65,7.92c-3,2.85-7.05,5.82-8.6,3.53s3.06-4.58,7.13-6c-3.59.83-7.87,1.37-9-.42-48.44,7.43-15.52,50.14,7,11.44C338.33,237.48,341.15,233.43,343.89,230.3Zm5.34,1.33c0.94,4.06,1.51,9-1.24,9.22s-2.44-4.94-1.6-9.17c-1.09,3.59-2.81,7.65-5,7.54C323.5,285,377.06,277.87,354.77,239,352.56,239.83,350.54,235.47,349.23,231.64Zm13-5.08c-0.4,2.33-5.18,1.9-9.15,1.12,4,1.22,8.57,3.2,7.37,5.69s-5.5-.36-8.74-3.2c2.58,2.76,5.25,6.3,4,8.1C386.38,276.64,407,226.71,362.2,226.56Zm-10.13-.3c-0.06-.83-1.55-0.65-2.77-0.37,1.22-.42,2.63-1.08,2.15-1.79s-1.67.21-2.58,1.06c0.85-1,1.74-2.25,1-2.63s-1.34,1-1.71,2.21c0.25-1.27.38-2.81-.48-2.75s-0.66,1.54-.37,2.76c-0.42-1.22-1.08-2.62-1.79-2.14s0.2,1.67,1.06,2.58c-1-.85-2.25-1.73-2.62-1s1,1.34,2.2,1.71c-1.27-.25-2.81-0.38-2.74.48s1.55,0.66,2.77.37c-1.22.42-2.63,1.08-2.15,1.79s1.67-.2,2.58-1.06c-0.85,1-1.73,2.25-1,2.62s1.34-1,1.71-2.21c-0.25,1.27-.38,2.81.48,2.75s0.65-1.55.37-2.77c0.42,1.22,1.08,2.63,1.79,2.15s-0.21-1.67-1.06-2.59c1,0.85,2.25,1.74,2.62,1s-1-1.35-2.22-1.71C350.57,227,352.13,227.13,352.06,226.26Zm-4.35,1.24a1.16,1.16,0,1,1,1.16-1.16A1.16,1.16,0,0,1,347.71,227.5Z" transform="translate(50.38 72.29)" style="fill: #fdfacd"/>
      <path d="M264.49,417.36c0.13-2.57,5.06-2.15,9.15-1.34-4-1.22-8.56-3.2-7.35-5.69s5.5,0.36,8.75,3.2c-2.52-2.7-5.14-6.15-4.11-8C240.28,367.36,219.76,417.2,264.49,417.36Zm13-5.3c-0.94-4.06-1.51-9,1.24-9.21s2.44,4.94,1.61,9.17c1-3.37,2.6-7.13,4.56-7.51,18-45.87-35.78-38.66-13.26.36C274,403.48,276.1,408,277.47,412.05Zm5.34,1.33c3-2.85,7.05-5.82,8.6-3.53s-3.06,4.58-7.14,6c3.66-.85,8-1.39,9,0.52C342.06,409,309,366.07,286.47,405,288.17,406.5,285.45,410.37,282.81,413.38Zm-7.65,7.92c-3,2.85-7.05,5.82-8.6,3.53s3.06-4.58,7.13-6c-3.59.83-7.87,1.37-9-.42-48.44,7.43-15.52,50.14,7,11.45C269.61,428.48,272.43,424.43,275.16,421.3Zm5.34,1.33c0.94,4.06,1.51,9-1.24,9.22s-2.44-4.94-1.6-9.17c-1.09,3.59-2.81,7.65-5,7.54C254.78,476,308.34,468.87,286,430,283.83,430.83,281.81,426.47,280.5,422.64Zm13-5.08c-0.4,2.33-5.18,1.9-9.15,1.12,4,1.21,8.57,3.2,7.37,5.69s-5.5-.36-8.74-3.2c2.58,2.76,5.25,6.3,4,8.1C317.65,467.64,338.25,417.71,293.47,417.56Zm-10.13-.3c-0.06-.83-1.55-0.65-2.77-0.37,1.22-.42,2.63-1.08,2.15-1.79s-1.67.21-2.58,1.06c0.85-1,1.74-2.25,1-2.63s-1.34,1-1.71,2.21c0.25-1.27.38-2.81-.48-2.75s-0.66,1.54-.37,2.76c-0.42-1.22-1.08-2.62-1.79-2.14s0.2,1.67,1.06,2.58c-1-.85-2.25-1.73-2.62-1s1,1.34,2.2,1.71c-1.27-.25-2.81-0.38-2.74.48s1.55,0.66,2.77.37c-1.22.42-2.63,1.08-2.15,1.79s1.67-.2,2.58-1.06c-0.85,1-1.73,2.25-1,2.62s1.34-1,1.71-2.21c-0.25,1.27-.38,2.81.48,2.75s0.65-1.55.37-2.77c0.42,1.22,1.08,2.63,1.79,2.15s-0.21-1.67-1.06-2.59c1,0.85,2.25,1.74,2.63,1s-1-1.34-2.22-1.71C281.85,418,283.4,418.13,283.34,417.26ZM279,418.5a1.16,1.16,0,1,1,1.16-1.16A1.16,1.16,0,0,1,279,418.5Z" transform="translate(50.38 72.29)" style="fill: #fdfacd"/>
      <path d="M498.49,461.93c0.13-2.57,5.06-2.15,9.15-1.34-4-1.22-8.56-3.2-7.35-5.69s5.5,0.36,8.75,3.2c-2.52-2.7-5.14-6.15-4.11-8C474.28,411.93,453.76,461.77,498.49,461.93Zm13-5.3c-0.94-4.06-1.51-9,1.24-9.21s2.44,4.94,1.61,9.17c1-3.37,2.6-7.13,4.55-7.51,18-45.87-35.78-38.66-13.26.36C508,448,510.1,452.61,511.47,456.62Zm5.34,1.33c3-2.85,7.05-5.82,8.6-3.53s-3.06,4.58-7.14,6c3.66-.85,8-1.39,9,0.52,48.78-7.34,15.71-50.29-6.82-11.39C522.17,451.07,519.44,454.94,516.81,458Zm-7.65,7.92c-3,2.85-7.05,5.82-8.6,3.53s3.05-4.58,7.13-6c-3.59.83-7.87,1.37-9-.42-48.44,7.43-15.52,50.14,7,11.45C503.61,473,506.43,469,509.16,465.88Zm5.34,1.33c0.94,4.06,1.51,9-1.24,9.22s-2.44-4.94-1.6-9.17c-1.1,3.59-2.81,7.65-5,7.54-17.91,45.78,35.64,38.64,13.36-.23C517.83,475.4,515.81,471,514.5,467.21Zm13-5.08c-0.4,2.33-5.18,1.9-9.15,1.12,4,1.21,8.57,3.2,7.37,5.69s-5.5-.36-8.74-3.2c2.58,2.76,5.25,6.3,4,8.1C551.65,512.21,572.25,462.28,527.47,462.13Zm-10.13-.3c-0.06-.83-1.55-0.65-2.77-0.37,1.22-.42,2.63-1.08,2.15-1.79s-1.67.21-2.58,1.06c0.85-1,1.74-2.25,1-2.63s-1.34,1-1.71,2.21c0.25-1.27.38-2.81-.48-2.75s-0.66,1.54-.37,2.76c-0.42-1.22-1.08-2.62-1.79-2.14s0.2,1.67,1.06,2.58c-1-.85-2.25-1.73-2.62-1s1,1.34,2.2,1.71c-1.27-.25-2.81-0.38-2.74.48s1.55,0.66,2.77.37c-1.22.42-2.63,1.08-2.15,1.79s1.67-.2,2.58-1.06c-0.85,1-1.73,2.25-1,2.62s1.34-1,1.71-2.21c-0.25,1.27-.38,2.81.48,2.75s0.65-1.55.37-2.77c0.42,1.22,1.08,2.63,1.79,2.15s-0.21-1.67-1.06-2.59c1,0.85,2.25,1.74,2.62,1s-1-1.34-2.22-1.71C515.85,462.56,517.4,462.7,517.34,461.83ZM513,463.07a1.16,1.16,0,1,1,1.16-1.16A1.16,1.16,0,0,1,513,463.07Z" transform="translate(50.38 72.29)" style="fill: #fdfacd"/>
      <path d="M545.16,223.41c0.22-4.22,8.32-3.53,15-2.21-6.56-2-14.07-5.26-12.08-9.35,2.06-4.25,9,.6,14.37,5.26C558.34,212.68,554,207,555.73,204,505.38,141.26,471.66,223.16,545.16,223.41Zm21.34-8.72c-1.55-6.68-2.48-14.82,2-15.14,4.72-.34,4,8.12,2.64,15.07,1.68-5.53,4.27-11.72,7.49-12.34,29.53-75.39-58.81-63.53-21.78.59C560.71,200.61,564.25,208.11,566.5,214.7Zm8.78,2.19c5-4.68,11.59-9.56,14.14-5.8,2.66,3.91-5,7.53-11.73,9.82,6-1.4,13.19-2.28,14.81.86,80.16-12.07,25.83-82.64-11.21-18.73C584.08,205.57,579.6,211.93,575.27,216.89Zm-12.57,13c-5,4.68-11.59,9.56-14.14,5.8-2.65-3.91,5-7.53,11.72-9.81-5.9,1.37-12.93,2.25-14.72-.69C466,237.41,520.07,307.6,557,244,553.58,241.69,558.21,235,562.7,229.9Zm8.78,2.19c1.55,6.68,2.48,14.82-2,15.15-4.71.34-4-8.12-2.63-15.06-1.8,5.91-4.62,12.57-8.16,12.39-29.43,75.23,58.58,63.5,22-.38C577,245.55,573.63,238.39,571.48,232.09Zm21.32-8.34c-0.65,3.83-8.51,3.12-15,1.84,6.56,2,14.09,5.26,12.11,9.35-2.06,4.25-9-.59-14.37-5.25,4.24,4.54,8.63,10.36,6.62,13.31C632.53,306.06,666.38,224,592.79,223.75Zm-16.66-.49c-0.1-1.36-2.54-1.08-4.55-.61,2-.69,4.32-1.77,3.53-2.95s-2.74.34-4.25,1.75c1.4-1.6,2.85-3.7,1.58-4.32s-2.2,1.67-2.8,3.63c0.41-2.09.63-4.62-.79-4.52s-1.08,2.54-.62,4.54c-0.69-2-1.77-4.31-2.94-3.52s0.33,2.74,1.74,4.24c-1.6-1.4-3.69-2.85-4.31-1.57s1.65,2.2,3.62,2.8c-2.08-.41-4.61-0.62-4.51.79s2.55,1.08,4.55.61c-2,.69-4.32,1.77-3.53,2.95s2.74-.33,4.24-1.74c-1.4,1.6-2.85,3.69-1.57,4.31s2.2-1.66,2.8-3.63c-0.41,2.09-.62,4.62.79,4.52s1.08-2.55.61-4.55c0.69,2,1.77,4.32,2.95,3.53s-0.34-2.75-1.75-4.25c1.6,1.4,3.69,2.86,4.31,1.58s-1.67-2.21-3.64-2.81C573.69,224.46,576.24,224.68,576.14,223.26Zm-7.15,2a1.9,1.9,0,1,1,1.9-1.9A1.91,1.91,0,0,1,569,225.3Z" transform="translate(50.38 72.29)" style="fill: #d1752e"/>
      <path d="M402.22,131.85c0.28-5.48,10.8-4.59,19.53-2.87-8.51-2.59-18.26-6.83-15.69-12.13,2.68-5.53,11.74.77,18.67,6.83-5.38-5.76-11-13.13-8.78-17C350.56,25.17,306.77,131.52,402.22,131.85Zm27.7-11.32c-2-8.67-3.23-19.24,2.65-19.67,6.12-.44,5.21,10.54,3.43,19.57,2.19-7.18,5.54-15.22,9.72-16,38.34-97.9-76.37-82.5-28.29.76C422.41,102.23,427,112,429.92,120.54Zm11.4,2.85c6.5-6.08,15-12.42,18.36-7.54,3.45,5.09-6.53,9.78-15.24,12.76,7.81-1.81,17.13-3,19.23,1.11C567.76,114,497.21,22.4,449.12,105.39,452.75,108.68,446.94,116.95,441.32,123.38ZM425,140.28c-6.5,6.08-15.05,12.42-18.36,7.53-3.45-5.08,6.52-9.77,15.22-12.75-7.66,1.78-16.79,2.92-19.11-.89-103.38,15.85-33.12,107,14.9,24.42C413.15,155.58,419.17,147,425,140.28Zm11.4,2.84c2,8.67,3.23,19.24-2.66,19.67-6.12.44-5.2-10.54-3.42-19.56-2.34,7.67-6,16.32-10.59,16.09-38.22,97.7,76.07,82.46,28.5-.49C443.5,160.6,439.19,151.3,436.39,143.12Zm27.68-10.83c-0.84,5-11,4.05-19.53,2.38,8.52,2.59,18.29,6.83,15.72,12.14-2.68,5.53-11.73-.77-18.66-6.82,5.51,5.89,11.2,13.45,8.6,17.29C515.68,239.17,559.63,132.6,464.07,132.29Zm-21.62-.64c-0.13-1.76-3.31-1.4-5.91-.79,2.61-.89,5.61-2.3,4.58-3.83s-3.56.44-5.51,2.27c1.81-2.08,3.7-4.8,2-5.6s-2.86,2.16-3.64,4.72c0.54-2.71.81-6-1-5.87s-1.4,3.29-.8,5.9c-0.89-2.61-2.3-5.6-3.82-4.57s0.44,3.56,2.26,5.51c-2.08-1.81-4.79-3.7-5.59-2s2.15,2.86,4.7,3.64c-2.71-.53-6-0.8-5.86,1s3.3,1.4,5.91.8c-2.61.89-5.61,2.3-4.58,3.82s3.55-.43,5.51-2.25c-1.81,2.08-3.7,4.79-2,5.6s2.86-2.16,3.64-4.72c-0.54,2.71-.81,6,1,5.87s1.4-3.31.79-5.91c0.89,2.61,2.3,5.62,3.83,4.58s-0.44-3.57-2.27-5.52c2.08,1.82,4.8,3.71,5.6,2.06s-2.17-2.87-4.73-3.65C439.26,133.21,442.58,133.5,442.45,131.65Zm-9.29,2.65a2.47,2.47,0,1,1,2.47-2.47A2.47,2.47,0,0,1,433.16,134.3Z" transform="translate(50.38 72.29)" style="fill: #fdfacd"/>
      <path d="M159,297.66c0.25-4.87,9.59-4.07,17.33-2.55-7.56-2.3-16.21-6.06-13.93-10.77,2.38-4.9,10.42.69,16.57,6.06-4.78-5.12-9.73-11.65-7.79-15.12C113.13,203,74.26,297.37,159,297.66Zm24.59-10c-1.79-7.7-2.86-17.08,2.35-17.46,5.43-.39,4.62,9.36,3,17.37,1.94-6.38,4.92-13.51,8.63-14.23,34-86.89-67.78-73.23-25.11.68C176.91,271.37,181,280,183.57,287.62Zm10.12,2.53c5.77-5.4,13.36-11,16.29-6.69,3.06,4.51-5.8,8.68-13.52,11.32,6.93-1.61,15.2-2.63,17.07,1,92.39-13.91,29.77-95.25-12.91-21.58C203.84,277.09,198.68,284.43,193.69,290.14Zm-14.49,15c-5.77,5.4-13.36,11-16.3,6.69-3.06-4.51,5.79-8.68,13.51-11.31-6.8,1.58-14.9,2.59-17-.79-91.76,14.06-29.39,95,13.23,21.68C168.68,318.73,174,311.06,179.2,305.14Zm10.11,2.52c1.79,7.7,2.86,17.08-2.36,17.46-5.43.39-4.62-9.36-3-17.36-2.07,6.81-5.33,14.49-9.4,14.28-33.93,86.71,67.51,73.19,25.3-.43C195.63,323.18,191.79,314.93,189.32,307.66Zm24.57-9.61c-0.75,4.41-9.81,3.6-17.33,2.11,7.56,2.3,16.23,6.06,14,10.77-2.38,4.9-10.41-.68-16.56-6.05,4.89,5.23,9.94,11.94,7.63,15.34C259.69,392.92,298.7,298.33,213.88,298.05Zm-19.19-.57c-0.12-1.57-2.94-1.24-5.25-.7,2.32-.79,5-2,4.06-3.4s-3.16.39-4.89,2c1.61-1.84,3.29-4.26,1.82-5s-2.54,1.92-3.23,4.19c0.48-2.41.72-5.33-.91-5.21s-1.24,2.92-.71,5.23c-0.79-2.32-2-5-3.39-4.05s0.39,3.16,2,4.89c-1.85-1.61-4.25-3.28-5-1.81s1.91,2.54,4.17,3.23c-2.4-.47-5.32-0.71-5.2.91s2.93,1.24,5.24.71c-2.32.79-5,2-4.06,3.39s3.15-.38,4.89-2c-1.61,1.84-3.28,4.25-1.81,5s2.54-1.92,3.23-4.19c-0.47,2.4-.72,5.33.91,5.21s1.24-2.93.7-5.25c0.79,2.32,2,5,3.4,4.07s-0.39-3.17-2-4.9c1.84,1.61,4.26,3.3,5,1.82s-1.93-2.55-4.2-3.24C191.86,298.87,194.81,299.12,194.69,297.49Zm-8.24,2.35a2.19,2.19,0,1,1,2.19-2.19A2.19,2.19,0,0,1,186.44,299.83Z" transform="translate(50.38 72.29)" style="fill: #fdfacd"/>
      <path d="M284.12,589.94c0.25-4.87,9.59-4.07,17.33-2.55-7.56-2.3-16.21-6.06-13.93-10.77,2.38-4.9,10.42.69,16.57,6.06-4.78-5.12-9.73-11.65-7.79-15.12C238.27,495.25,199.4,589.65,284.12,589.94Zm24.59-10c-1.79-7.7-2.86-17.08,2.35-17.46,5.43-.39,4.62,9.36,3,17.37,1.94-6.38,4.92-13.51,8.63-14.23,34-86.89-67.78-73.23-25.11.68C302,563.65,306.11,572.3,308.71,579.9Zm10.12,2.53c5.77-5.39,13.36-11,16.29-6.69,3.06,4.51-5.8,8.68-13.52,11.32,6.93-1.61,15.2-2.63,17.07,1,92.39-13.91,29.77-95.25-12.92-21.58C329,569.37,323.81,576.71,318.82,582.42Zm-14.49,15c-5.77,5.39-13.36,11-16.3,6.69-3.06-4.51,5.79-8.67,13.51-11.31-6.8,1.58-14.9,2.59-17-.79-91.76,14.07-29.39,95,13.23,21.68C293.82,611,299.16,603.34,304.33,597.42Zm10.12,2.52c1.79,7.7,2.86,17.08-2.36,17.46-5.43.39-4.62-9.36-3-17.36-2.07,6.81-5.33,14.49-9.4,14.28-33.93,86.71,67.51,73.19,25.3-.43C320.76,615.46,316.93,607.21,314.45,599.95ZM339,590.33c-0.75,4.41-9.81,3.6-17.33,2.11,7.56,2.3,16.24,6.06,14,10.77-2.38,4.9-10.41-.68-16.56-6.05,4.89,5.23,9.94,11.94,7.63,15.34C384.82,685.2,423.84,590.61,339,590.33Zm-19.19-.57c-0.12-1.57-2.94-1.24-5.25-.7,2.32-.79,5-2,4.06-3.4s-3.16.39-4.89,2c1.61-1.84,3.29-4.26,1.82-5s-2.54,1.92-3.23,4.19c0.48-2.41.72-5.33-.91-5.21s-1.24,2.92-.71,5.23c-0.79-2.32-2-5-3.39-4.05s0.39,3.16,2,4.89c-1.85-1.61-4.25-3.28-5-1.81s1.91,2.54,4.17,3.23c-2.4-.47-5.32-0.71-5.2.91s2.93,1.24,5.24.71c-2.32.79-5,2-4.06,3.39s3.15-.38,4.89-2c-1.61,1.84-3.28,4.25-1.81,5s2.54-1.92,3.23-4.19c-0.47,2.4-.72,5.33.91,5.21s1.24-2.94.7-5.25c0.79,2.32,2,5,3.4,4.07s-0.39-3.17-2-4.9c1.84,1.61,4.26,3.3,5,1.82s-1.93-2.55-4.2-3.24C317,591.15,319.94,591.4,319.82,589.77Zm-8.24,2.35a2.19,2.19,0,1,1,2.19-2.19A2.19,2.19,0,0,1,311.58,592.11Z" transform="translate(50.38 72.29)" style="fill: #fdfacd"/>
      <path d="M170.13,6.65c0.23-4.55,9-3.81,16.2-2.38-7.06-2.15-15.15-5.67-13-10.07,2.22-4.58,9.74.64,15.49,5.67-4.47-4.78-9.1-10.89-7.29-14.14C127.27-81.87,90.93,6.38,170.13,6.65Zm23-9.39c-1.67-7.2-2.68-16,2.2-16.32,5.08-.37,4.32,8.75,2.84,16.24,1.81-6,4.6-12.63,8.07-13.3,31.82-81.23-63.36-68.46-23.47.63C186.89-17.93,190.69-9.84,193.12-2.74Zm9.46,2.36c5.4-5,12.49-10.3,15.23-6.26,2.86,4.22-5.42,8.12-12.64,10.58,6.48-1.5,14.21-2.46,16,.92,86.37-13,27.83-89-12.07-20.18C212.06-12.58,207.24-5.72,202.58-.38ZM189,13.64c-5.4,5-12.49,10.3-15.24,6.25-2.86-4.21,5.41-8.11,12.63-10.58-6.36,1.47-13.93,2.42-15.86-.74-85.78,13.15-27.48,88.78,12.37,20.26C179.2,26.34,184.19,19.18,189,13.64ZM198.49,16c1.67,7.2,2.68,16-2.2,16.32-5.08.37-4.32-8.75-2.84-16.23-1.94,6.36-5,13.54-8.79,13.35-31.72,81.07,63.12,68.42,23.65-.41C204.39,30.5,200.8,22.79,198.49,16Zm23-9c-0.7,4.12-9.17,3.36-16.2,2,7.07,2.15,15.18,5.67,13,10.07-2.22,4.58-9.74-.64-15.48-5.66,4.57,4.89,9.3,11.16,7.13,14.35C264.27,95.7,300.75,7.27,221.45,7Zm-17.94-.53c-0.11-1.46-2.74-1.16-4.91-.66,2.17-.74,4.66-1.91,3.8-3.18s-3,.37-4.58,1.88c1.51-1.72,3.08-4,1.7-4.65s-2.37,1.8-3,3.92c0.44-2.25.67-5-.85-4.87s-1.16,2.73-.66,4.89c-0.74-2.17-1.91-4.65-3.17-3.79s0.36,3,1.87,4.57c-1.72-1.51-4-3.07-4.64-1.7s1.78,2.37,3.9,3c-2.25-.44-5-0.67-4.86.85s2.74,1.16,4.9.66c-2.17.74-4.66,1.91-3.8,3.17s2.95-.36,4.57-1.87c-1.5,1.72-3.07,4-1.69,4.64s2.38-1.79,3-3.91c-0.44,2.25-.67,5,0.85,4.87s1.16-2.74.66-4.9c0.74,2.17,1.91,4.66,3.18,3.8s-0.37-3-1.88-4.58c1.72,1.51,4,3.08,4.65,1.71s-1.8-2.38-3.93-3C200.87,7.78,203.62,8,203.51,6.48Zm-7.71,2.2a2.05,2.05,0,1,1,2.05-2.05A2.05,2.05,0,0,1,195.8,8.68Z" transform="translate(50.38 72.29)" style="fill: #d1752e"/>
      <path d="M328.37,96.36c0.23-4.55,9-3.81,16.2-2.38-7.06-2.15-15.15-5.67-13-10.07,2.22-4.58,9.74.64,15.49,5.67-4.47-4.78-9.1-10.89-7.29-14.14C285.51,7.83,249.17,96.08,328.37,96.36Zm23-9.39c-1.67-7.2-2.68-16,2.2-16.32,5.08-.37,4.32,8.75,2.84,16.24,1.81-6,4.6-12.63,8.07-13.3C396.29-7.65,301.1,5.12,341,74.21,345.13,71.78,348.93,79.87,351.36,87Zm9.46,2.36c5.39-5,12.49-10.3,15.23-6.26,2.86,4.22-5.42,8.12-12.64,10.58,6.48-1.5,14.21-2.46,16,.92,86.37-13,27.83-89-12.07-20.18C370.3,77.13,365.48,84,360.82,89.33Zm-13.55,14c-5.4,5-12.49,10.3-15.24,6.25-2.86-4.21,5.41-8.11,12.63-10.58-6.36,1.47-13.93,2.42-15.86-.74-85.78,13.15-27.48,88.78,12.37,20.26C337.44,116,342.43,108.89,347.27,103.35Zm9.46,2.36c1.67,7.2,2.68,16-2.2,16.32-5.08.37-4.32-8.75-2.84-16.23-1.94,6.36-5,13.54-8.79,13.35-31.72,81.07,63.12,68.42,23.65-.41C362.63,120.21,359,112.5,356.72,105.71Zm23-9c-0.7,4.12-9.17,3.36-16.2,2,7.07,2.15,15.18,5.67,13,10.07-2.22,4.58-9.74-.64-15.48-5.66,4.57,4.89,9.3,11.16,7.13,14.35C422.51,185.4,459,97,379.69,96.72Zm-17.94-.53c-0.11-1.46-2.74-1.16-4.9-.66,2.17-.74,4.66-1.91,3.8-3.18s-3,.37-4.57,1.88c1.51-1.72,3.07-4,1.7-4.65s-2.37,1.8-3,3.92c0.44-2.25.67-5-.85-4.87s-1.16,2.73-.66,4.89c-0.74-2.17-1.91-4.65-3.17-3.79s0.36,3,1.87,4.57c-1.72-1.51-4-3.07-4.64-1.7s1.78,2.37,3.9,3c-2.25-.44-5-0.67-4.86.85s2.74,1.16,4.9.66c-2.17.74-4.66,1.91-3.8,3.17s2.95-.36,4.57-1.87c-1.5,1.72-3.07,4-1.69,4.64s2.37-1.79,3-3.91c-0.44,2.25-.67,5,0.85,4.87s1.16-2.74.66-4.9c0.74,2.17,1.91,4.66,3.18,3.8s-0.37-3-1.88-4.58c1.72,1.51,4,3.08,4.65,1.71s-1.8-2.38-3.93-3C359.11,97.49,361.86,97.72,361.75,96.19ZM354,98.39a2.05,2.05,0,1,1,2.05-2.05A2.05,2.05,0,0,1,354,98.39Z" transform="translate(50.38 72.29)" style="fill: #d1752e"/>
      <path d="M531,570c0.4-7.91,15.59-6.62,28.19-4.14-12.29-3.74-26.36-9.85-22.65-17.52,3.87-8,16.95,1.12,26.95,9.86-7.77-8.32-15.83-18.95-12.67-24.59C456.46,416,393.25,569.48,531,570Zm40-16.34c-2.91-12.52-4.66-27.78,3.83-28.39,8.84-.64,7.51,15.22,4.95,28.25,3.16-10.37,8-22,14-23.14C649.18,389,483.6,411.24,553,531.43,560.18,527.2,566.8,541.27,571,553.62Zm16.46,4.11c9.38-8.77,21.72-17.92,26.5-10.88,5,7.34-9.43,14.12-22,18.41,11.27-2.61,24.73-4.28,27.76,1.61,150.26-22.62,48.41-154.9-21-35.1C604,536.5,595.59,548.44,587.48,557.72Zm-23.57,24.4c-9.39,8.77-21.73,17.92-26.51,10.88-5-7.33,9.41-14.11,22-18.4-11.06,2.56-24.24,4.22-27.58-1.29-149.22,22.87-47.8,154.46,21.51,35.25C546.81,604.21,555.5,591.75,563.91,582.12Zm16.45,4.1c2.91,12.52,4.66,27.78-3.83,28.39-8.84.64-7.51-15.21-4.94-28.24-3.37,11.07-8.67,23.56-15.29,23.22-55.17,141,109.8,119,41.15-.71C590.63,611.46,584.39,598,580.36,586.22Zm40-15.63c-1.22,7.17-16,5.85-28.19,3.44,12.3,3.74,26.4,9.86,22.69,17.52-3.87,8-16.94-1.11-26.94-9.84,8,8.51,16.17,19.42,12.41,25C694.81,724.87,758.26,571,620.32,570.59Zm-31.22-.92c-0.19-2.55-4.77-2-8.53-1.14,3.77-1.29,8.1-3.32,6.61-5.53s-5.14.64-8,3.28c2.62-3,5.35-6.93,3-8.09s-4.13,3.12-5.26,6.81c0.77-3.91,1.17-8.67-1.48-8.48s-2,4.75-1.15,8.51c-1.29-3.77-3.32-8.08-5.52-6.59s0.63,5.13,3.26,7.95c-3-2.62-6.92-5.34-8.08-3s3.1,4.13,6.79,5.25c-3.91-.77-8.65-1.16-8.45,1.48s4.77,2,8.53,1.15c-3.78,1.29-8.1,3.32-6.61,5.52s5.13-.63,7.95-3.25c-2.62,3-5.33,6.91-2.94,8.08s4.13-3.12,5.25-6.81c-0.77,3.91-1.17,8.67,1.48,8.47s2-4.77,1.14-8.53c1.29,3.77,3.32,8.11,5.53,6.61s-0.64-5.15-3.28-8c3,2.62,6.93,5.36,8.09,3s-3.14-4.14-6.83-5.26C584.5,571.92,589.29,572.33,589.1,569.67Zm-13.41,3.82a3.57,3.57,0,1,1,3.57-3.57A3.57,3.57,0,0,1,575.69,573.49Z" transform="translate(50.38 72.29)" style="fill: #d1752e"/>
      <path d="M373.31,277.82c0.15-3,6-2.53,10.77-1.58-4.7-1.43-10.07-3.77-8.66-6.69s6.48,0.43,10.3,3.77c-3-3.18-6-7.24-4.84-9.4C344.81,219,320.65,277.64,373.31,277.82Zm15.28-6.24c-1.11-4.79-1.78-10.62,1.46-10.85s2.87,5.82,1.89,10.79c1.21-4,3.06-8.4,5.36-8.84,21.15-54-42.13-45.51-15.6.42C384.45,261.48,387,266.86,388.59,271.58Zm6.29,1.57c3.59-3.35,8.3-6.85,10.13-4.16s-3.6,5.4-8.41,7c4.31-1,9.45-1.63,10.61.61,57.42-8.64,18.5-59.2-8-13.41C401.18,265,398,269.6,394.88,273.15Zm-9,9.32c-3.59,3.35-8.3,6.85-10.13,4.16s3.6-5.39,8.4-7c-4.23,1-9.26,1.61-10.54-.49-57,8.74-18.27,59,8.22,13.47C379.34,290.91,382.66,286.15,385.87,282.47Zm6.29,1.57c1.11,4.78,1.78,10.62-1.46,10.85s-2.87-5.81-1.89-10.79c-1.29,4.23-3.31,9-5.84,8.88-21.09,53.89,42,45.49,15.72-.27C396.08,293.68,393.7,288.55,392.16,284Zm15.27-6c-0.47,2.74-6.1,2.24-10.77,1.31,4.7,1.43,10.09,3.77,8.67,6.69s-6.47-.42-10.29-3.76c3,3.25,6.18,7.42,4.74,9.54C435.9,337,460.14,278.23,407.43,278.06Zm-11.93-.35c-0.07-1-1.82-.77-3.26-0.44,1.44-.49,3.09-1.27,2.52-2.11s-2,.24-3,1.25c1-1.15,2-2.65,1.13-3.09s-1.58,1.19-2,2.6c0.29-1.49.45-3.31-.57-3.24s-0.77,1.82-.44,3.25c-0.49-1.44-1.27-3.09-2.11-2.52s0.24,2,1.25,3c-1.15-1-2.64-2-3.08-1.13s1.18,1.58,2.59,2c-1.49-.29-3.3-0.44-3.23.57s1.82,0.77,3.26.44c-1.44.49-3.1,1.27-2.53,2.11s2-.24,3-1.24c-1,1.15-2,2.64-1.12,3.09s1.58-1.19,2-2.6c-0.29,1.49-.45,3.31.57,3.24s0.77-1.83.44-3.26c0.49,1.44,1.27,3.1,2.11,2.53s-0.25-2-1.25-3c1.15,1,2.65,2,3.09,1.13s-1.2-1.58-2.61-2C393.74,278.57,395.57,278.73,395.5,277.71Zm-5.12,1.46a1.36,1.36,0,1,1,1.37-1.36A1.36,1.36,0,0,1,390.37,279.17Z" transform="translate(50.38 72.29)" style="fill: #d1752e"/>
      <path d="M418.9,458.45c0.11-2.2,4.34-1.84,7.84-1.15-3.42-1-7.34-2.74-6.3-4.87s4.72,0.31,7.5,2.74c-2.16-2.31-4.4-5.27-3.53-6.84C398.15,415.59,380.56,458.31,418.9,458.45ZM430,453.9c-0.81-3.49-1.3-7.73,1.07-7.9s2.09,4.24,1.38,7.86c0.88-2.89,2.23-6.11,3.91-6.44,15.4-39.33-30.68-33.14-11.36.31C427,446.55,428.86,450.46,430,453.9Zm4.58,1.14c2.61-2.44,6-5,7.37-3s-2.62,3.93-6.12,5.12c3.14-.73,6.88-1.19,7.73.45,41.82-6.29,13.47-43.11-5.85-9.77C439.2,449.14,436.87,452.46,434.61,455Zm-6.56,6.79c-2.61,2.44-6,5-7.38,3s2.62-3.93,6.12-5.12c-3.08.71-6.75,1.17-7.68-.36-41.53,6.37-13.3,43,6,9.81C423.29,468,425.71,464.51,428.05,461.83Zm4.58,1.14c0.81,3.48,1.3,7.73-1.07,7.9s-2.09-4.23-1.38-7.86c-0.94,3.08-2.41,6.56-4.25,6.46-15.36,39.25,30.56,33.13,11.45-.2C435.49,470,433.75,466.26,432.63,463Zm11.12-4.35c-0.34,2-4.44,1.63-7.84,1,3.42,1,7.35,2.74,6.31,4.88s-4.71-.31-7.5-2.74c2.21,2.37,4.5,5.41,3.45,6.95C464.48,501.56,482.14,458.75,443.75,458.62Zm-8.69-.26c-0.05-.71-1.33-0.56-2.37-0.32,1-.36,2.25-0.92,1.84-1.54s-1.43.18-2.21,0.91c0.73-.84,1.49-1.93.82-2.25s-1.15.87-1.46,1.9c0.21-1.09.33-2.41-.41-2.36s-0.56,1.32-.32,2.37c-0.36-1-.92-2.25-1.54-1.83s0.17,1.43.91,2.21c-0.83-.73-1.92-1.49-2.25-0.82s0.86,1.15,1.89,1.46c-1.09-.21-2.41-0.32-2.35.41s1.33,0.56,2.37.32c-1.05.36-2.25,0.92-1.84,1.54s1.43-.17,2.21-0.91c-0.73.83-1.48,1.92-.82,2.25s1.15-.87,1.46-1.9c-0.21,1.09-.33,2.41.41,2.36s0.56-1.33.32-2.37c0.36,1,.92,2.26,1.54,1.84s-0.18-1.43-.91-2.22c0.84,0.73,1.93,1.49,2.25.83s-0.87-1.15-1.9-1.47C433.78,459,435.11,459.11,435.06,458.37Zm-3.73,1.06a1,1,0,1,1,1-1A1,1,0,0,1,431.33,459.43Z" transform="translate(50.38 72.29)" style="fill: #d1752e"/>
      <path d="M55.19,431.94c0.15-2.93,5.77-2.45,10.43-1.53-4.55-1.39-9.76-3.65-8.39-6.48s6.27,0.41,10,3.65c-2.88-3.08-5.86-7-4.69-9.1C27.59,374.93,4.19,431.76,55.19,431.94Zm14.8-6c-1.08-4.64-1.72-10.28,1.42-10.51s2.78,5.63,1.83,10.46c1.17-3.84,3-8.13,5.19-8.57,20.49-52.31-40.8-44.08-15.12.41C66,416.11,68.43,421.32,70,425.89Zm6.09,1.52c3.48-3.25,8-6.63,9.81-4s-3.49,5.23-8.14,6.82c4.17-1,9.15-1.58,10.28.59,55.62-8.37,17.92-57.34-7.78-13C82.19,419.55,79.08,424,76.08,427.41Zm-8.72,9c-3.48,3.25-8,6.63-9.81,4s3.48-5.22,8.13-6.81c-4.09.95-9,1.56-10.21-.48-55.24,8.47-17.69,57.17,8,13C61,444.61,64.24,440,67.36,436.44ZM73.45,438c1.08,4.63,1.72,10.28-1.42,10.51S69.25,442.83,70.2,438c-1.25,4.1-3.21,8.72-5.66,8.6-20.42,52.2,40.64,44.06,15.23-.26C77.25,447.3,74.94,442.33,73.45,438Zm14.79-5.79c-0.45,2.65-5.91,2.17-10.43,1.27,4.55,1.39,9.77,3.65,8.4,6.49s-6.27-.41-10-3.65c2.94,3.15,6,7.19,4.59,9.24C115.81,489.28,139.3,432.33,88.24,432.17Zm-11.56-.34c-0.07-.94-1.77-0.75-3.16-0.42,1.4-.48,3-1.23,2.45-2s-1.9.24-2.95,1.21c1-1.11,2-2.56,1.1-3s-1.53,1.16-1.95,2.52c0.29-1.45.43-3.21-.55-3.14s-0.75,1.76-.43,3.15c-0.48-1.4-1.23-3-2-2.44s0.23,1.9,1.21,2.94c-1.11-1-2.56-2-3-1.09s1.15,1.53,2.51,1.94c-1.45-.28-3.2-0.43-3.13.55s1.76,0.75,3.16.43c-1.4.48-3,1.23-2.45,2s1.9-.23,2.94-1.21c-1,1.11-2,2.56-1.09,3s1.53-1.15,1.94-2.52c-0.28,1.45-.43,3.21.55,3.14s0.75-1.77.42-3.16c0.48,1.4,1.23,3,2,2.45s-0.24-1.91-1.21-2.95c1.11,1,2.57,2,3,1.1s-1.16-1.53-2.53-2C75,432.66,76.75,432.81,76.68,431.83Zm-5,1.41A1.32,1.32,0,1,1,73,431.92,1.32,1.32,0,0,1,71.72,433.24Z" transform="translate(50.38 72.29)" style="fill: #d1752e"/>
      <path d="M529.17,57.32c0.15-2.93,5.77-2.45,10.43-1.53-4.55-1.39-9.76-3.65-8.39-6.48s6.27,0.41,10,3.65c-2.88-3.08-5.86-7-4.69-9.1C501.57,0.31,478.17,57.14,529.17,57.32Zm14.8-6c-1.08-4.64-1.72-10.28,1.42-10.51s2.78,5.63,1.83,10.46c1.17-3.84,3-8.13,5.19-8.57,20.49-52.31-40.8-44.08-15.12.41C540,41.49,542.41,46.7,544,51.27Zm6.09,1.52c3.48-3.25,8-6.63,9.81-4s-3.49,5.23-8.14,6.82c4.17-1,9.15-1.58,10.28.59,55.62-8.37,17.92-57.34-7.78-13C556.17,44.94,553.07,49.35,550.06,52.79Zm-8.72,9c-3.48,3.25-8,6.63-9.81,4S535,60.62,539.66,59c-4.09.95-9,1.56-10.21-.48-55.24,8.47-17.69,57.17,8,13C535,70,538.22,65.39,541.34,61.82Zm6.09,1.52C548.5,68,549.15,73.62,546,73.85s-2.78-5.63-1.83-10.45c-1.25,4.1-3.21,8.72-5.66,8.6-20.42,52.2,40.65,44.06,15.23-.26C551.23,72.68,548.92,67.71,547.43,63.34Zm14.79-5.79c-0.45,2.65-5.9,2.17-10.43,1.27,4.55,1.39,9.77,3.65,8.4,6.49s-6.27-.41-10-3.65c2.94,3.15,6,7.19,4.59,9.24C589.79,114.66,613.28,57.72,562.22,57.55Zm-11.55-.34c-0.07-.94-1.77-0.75-3.16-0.42,1.4-.48,3-1.23,2.45-2S548,55,547,56c1-1.11,2-2.56,1.1-3s-1.53,1.16-1.95,2.52c0.29-1.45.43-3.21-.55-3.14s-0.75,1.76-.43,3.15c-0.48-1.4-1.23-3-2-2.44s0.23,1.9,1.21,2.94c-1.11-1-2.56-2-3-1.09s1.15,1.53,2.51,1.94c-1.45-.28-3.2-0.43-3.13.55s1.76,0.75,3.16.43c-1.4.48-3,1.23-2.45,2s1.9-.23,2.94-1.21c-1,1.11-2,2.56-1.09,3s1.53-1.15,1.94-2.52c-0.28,1.45-.43,3.21.55,3.14s0.75-1.77.42-3.16c0.48,1.4,1.23,3,2,2.45S548,59.65,547,58.61c1.11,1,2.56,2,3,1.1s-1.16-1.53-2.53-2C549,58,550.73,58.2,550.66,57.21Zm-5,1.41A1.32,1.32,0,1,1,547,57.3,1.32,1.32,0,0,1,545.7,58.63Z" transform="translate(50.38 72.29)" style="fill: #d1752e"/>
      <path d="M104.37,274c0.11-2.2,4.34-1.84,7.84-1.15-3.42-1-7.34-2.74-6.3-4.87s4.72,0.31,7.5,2.74c-2.16-2.31-4.4-5.27-3.53-6.84C83.62,231.18,66,273.91,104.37,274Zm11.13-4.55c-0.81-3.49-1.3-7.73,1.07-7.9s2.09,4.24,1.38,7.86c0.88-2.89,2.23-6.11,3.91-6.44,15.4-39.33-30.68-33.14-11.36.31C112.48,262.14,114.33,266.06,115.5,269.5Zm4.58,1.14c2.61-2.44,6-5,7.37-3s-2.62,3.93-6.12,5.12c3.14-.73,6.88-1.19,7.73.45,41.82-6.29,13.47-43.11-5.85-9.77C124.67,264.73,122.34,268.05,120.08,270.64Zm-6.56,6.79c-2.61,2.44-6,5-7.38,3s2.62-3.93,6.12-5.12c-3.08.71-6.75,1.17-7.68-.36-41.53,6.37-13.3,43,6,9.81C108.76,283.57,111.18,280.11,113.52,277.43Zm4.58,1.14c0.81,3.48,1.3,7.73-1.07,7.9s-2.09-4.23-1.38-7.86c-0.94,3.08-2.41,6.56-4.25,6.46C96,324.32,142,318.2,122.85,284.88,121,285.59,119.22,281.86,118.1,278.57Zm11.12-4.35c-0.34,2-4.44,1.63-7.84,1,3.42,1,7.35,2.74,6.31,4.88s-4.71-.31-7.5-2.74c2.21,2.37,4.5,5.41,3.45,6.95C149.95,317.15,167.61,274.34,129.22,274.22Zm-8.69-.26c-0.05-.71-1.33-0.56-2.37-0.32,1-.36,2.25-0.92,1.84-1.54s-1.43.18-2.21,0.91c0.73-.83,1.49-1.93.82-2.25s-1.15.87-1.46,1.9c0.21-1.09.33-2.41-.41-2.36s-0.56,1.32-.32,2.37c-0.36-1-.92-2.25-1.54-1.84s0.17,1.43.91,2.21c-0.84-.73-1.92-1.49-2.25-0.82s0.86,1.15,1.89,1.46c-1.09-.21-2.41-0.32-2.35.41s1.33,0.56,2.37.32c-1.05.36-2.25,0.92-1.84,1.54s1.43-.17,2.21-0.91c-0.73.83-1.48,1.92-.82,2.25s1.15-.87,1.46-1.9c-0.21,1.09-.33,2.41.41,2.36s0.56-1.33.32-2.37c0.36,1,.92,2.26,1.54,1.84s-0.18-1.43-.91-2.22c0.83,0.73,1.93,1.49,2.25.83s-0.87-1.15-1.9-1.47C119.25,274.59,120.58,274.7,120.53,274ZM116.8,275a1,1,0,1,1,1-1A1,1,0,0,1,116.8,275Z" transform="translate(50.38 72.29)" style="fill: #d1752e"/>
      <path d="M14.77,52.34c0.26-5,9.92-4.22,17.94-2.64-7.82-2.38-16.78-6.27-14.42-11.15,2.46-5.08,10.78.71,17.15,6.27-4.95-5.29-10.07-12.06-8.06-15.65C-32.68-45.66-72.91,52,14.77,52.34Zm25.45-10.4c-1.85-8-3-17.67,2.44-18.07,5.62-.41,4.78,9.68,3.15,18,2-6.6,5.09-14,8.93-14.73,35.22-89.93-70.15-75.78-26,.7C33.32,25.13,37.53,34.08,40.22,41.94Zm10.47,2.62c6-5.58,13.82-11.41,16.86-6.93,3.17,4.67-6,9-14,11.72,7.17-1.66,15.73-2.72,17.66,1C166.84,36,102-48.2,57.85,28,61.19,31.05,55.85,38.64,50.69,44.55Zm-15,15.52c-6,5.58-13.83,11.4-16.87,6.92-3.16-4.66,6-9,14-11.71-7,1.63-15.43,2.68-17.55-.82C-79.7,69-15.16,152.76,28.95,76.91,24.81,74.13,30.34,66.21,35.69,60.08Zm10.47,2.61c1.85,8,3,17.68-2.44,18.07-5.62.41-4.78-9.68-3.15-18-2.15,7-5.52,15-9.73,14.78-35.11,89.74,69.87,75.74,26.19-.45C52.69,78.75,48.73,70.2,46.16,62.69Zm25.43-9.95c-0.78,4.56-10.15,3.72-17.94,2.19,7.83,2.38,16.8,6.27,14.44,11.15-2.46,5.07-10.78-.71-17.14-6.26,5.06,5.41,10.29,12.36,7.9,15.88C119,150.92,159.36,53,71.58,52.74Zm-19.86-.59c-0.12-1.62-3-1.28-5.43-.73,2.4-.82,5.16-2.12,4.21-3.52s-3.27.41-5.06,2.08c1.67-1.91,3.4-4.41,1.88-5.15s-2.63,2-3.35,4.34c0.49-2.49.75-5.52-.94-5.4s-1.29,3-.73,5.42c-0.82-2.4-2.11-5.14-3.51-4.2s0.4,3.27,2.07,5.06c-1.91-1.67-4.4-3.4-5.14-1.88s2,2.63,4.32,3.34c-2.48-.49-5.5-0.74-5.38.94s3,1.29,5.43.73c-2.4.82-5.15,2.11-4.2,3.51s3.26-.4,5.06-2.07c-1.67,1.91-3.39,4.4-1.87,5.14s2.63-2,3.34-4.33c-0.49,2.49-.74,5.51.94,5.39s1.28-3,.73-5.43c0.82,2.4,2.11,5.16,3.52,4.21s-0.41-3.28-2.09-5.07c1.91,1.67,4.41,3.41,5.15,1.89s-2-2.64-4.35-3.35C48.8,53.59,51.84,53.85,51.72,52.15Zm-8.53,2.43a2.27,2.27,0,1,1,2.27-2.27A2.27,2.27,0,0,1,43.19,54.58Z" transform="translate(50.38 72.29)" style="fill: #f8e000"/>
      <path d="M195.83,171.45c0.18-3.56,7-3,12.67-1.86-5.52-1.68-11.85-4.43-10.19-7.88s7.62,0.5,12.11,4.43c-3.5-3.74-7.12-8.52-5.7-11.06C162.3,102.21,133.88,171.23,195.83,171.45Zm18-7.35c-1.31-5.63-2.09-12.49,1.72-12.76,4-.29,3.38,6.84,2.22,12.7,1.42-4.66,3.6-9.88,6.31-10.4,24.89-63.53-49.56-53.54-18.36.5C208.93,152.22,211.91,158.55,213.8,164.1Zm7.4,1.85c4.22-3.95,9.77-8.06,11.91-4.89s-4.24,6.35-9.89,8.28c5.07-1.18,11.12-1.92,12.48.72,67.55-10.17,21.77-69.64-9.44-15.78C228.62,156.41,224.85,161.77,221.2,165.95Zm-10.6,11c-4.22,3.94-9.77,8.06-11.92,4.89s4.23-6.34,9.88-8.27c-5,1.15-10.9,1.9-12.4-.58-67.09,10.28-21.49,69.44,9.67,15.85C202.92,186.85,206.82,181.25,210.61,176.92Zm7.4,1.84c1.31,5.63,2.09,12.49-1.72,12.77-4,.29-3.38-6.84-2.22-12.7-1.52,5-3.9,10.59-6.87,10.44-24.81,63.4,49.37,53.51,18.5-.32C222.62,190.11,219.82,184.07,218,178.76Zm18-7c-0.55,3.22-7.17,2.63-12.67,1.55,5.53,1.68,11.87,4.43,10.2,7.88s-7.62-.5-12.11-4.43c3.58,3.83,7.27,8.73,5.58,11.22C269.46,241.09,298,171.93,236,171.73Zm-14-.41c-0.08-1.15-2.15-.91-3.84-0.51,1.7-.58,3.64-1.49,3-2.49s-2.31.29-3.58,1.47c1.18-1.35,2.41-3.11,1.33-3.64s-1.86,1.4-2.36,3.06c0.35-1.76.53-3.9-.67-3.81s-0.91,2.14-.52,3.83c-0.58-1.69-1.49-3.63-2.48-3s0.28,2.31,1.47,3.57c-1.35-1.18-3.11-2.4-3.63-1.33s1.39,1.86,3,2.36c-1.76-.35-3.89-0.52-3.8.67s2.14,0.91,3.83.52c-1.7.58-3.64,1.49-3,2.48s2.31-.28,3.57-1.46c-1.18,1.35-2.4,3.11-1.32,3.63s1.86-1.4,2.36-3.06c-0.35,1.76-.53,3.9.67,3.81s0.91-2.15.52-3.84c0.58,1.7,1.49,3.65,2.48,3s-0.29-2.31-1.47-3.58c1.35,1.18,3.12,2.41,3.64,1.33s-1.41-1.86-3.07-2.37C219.87,172.33,222,172.51,221.93,171.32Zm-6,1.72a1.6,1.6,0,1,1,1.61-1.6A1.61,1.61,0,0,1,215.9,173Z" transform="translate(50.38 72.29)" style="fill: #f8e000"/>
      <path d="M15.7,235.93c0.18-3.56,7-3,12.67-1.86-5.52-1.68-11.85-4.43-10.18-7.88s7.62,0.5,12.11,4.43c-3.5-3.74-7.12-8.52-5.7-11.06C-17.83,166.69-46.25,235.71,15.7,235.93Zm18-7.35c-1.31-5.63-2.09-12.49,1.72-12.76,4-.29,3.38,6.84,2.22,12.7,1.42-4.66,3.6-9.88,6.31-10.4,24.88-63.53-49.56-53.54-18.36.5C28.8,216.7,31.78,223,33.68,228.58Zm7.4,1.85c4.22-3.95,9.77-8.06,11.91-4.89s-4.24,6.35-9.89,8.28c5.07-1.18,11.12-1.92,12.48.72,67.55-10.17,21.76-69.64-9.44-15.78C48.49,220.89,44.72,226.25,41.07,230.43Zm-10.6,11c-4.22,3.94-9.77,8.06-11.92,4.89s4.23-6.34,9.88-8.27c-5,1.15-10.9,1.9-12.4-.58-67.09,10.28-21.49,69.44,9.67,15.85C22.79,251.33,26.69,245.73,30.48,241.4Zm7.4,1.84c1.31,5.63,2.09,12.49-1.72,12.77-4,.29-3.38-6.84-2.22-12.7-1.52,5-3.9,10.59-6.87,10.44-24.81,63.4,49.37,53.52,18.5-.32C42.49,254.59,39.69,248.55,37.87,243.24Zm18-7c-0.55,3.22-7.17,2.63-12.67,1.55,5.53,1.68,11.87,4.43,10.2,7.88s-7.62-.5-12.11-4.43c3.57,3.83,7.27,8.73,5.58,11.22C89.33,305.57,117.86,236.41,55.84,236.21Zm-14-.41c-0.08-1.15-2.15-.91-3.84-0.51,1.7-.58,3.64-1.49,3-2.49s-2.31.29-3.58,1.47c1.18-1.35,2.4-3.11,1.33-3.64s-1.86,1.4-2.36,3.06c0.35-1.76.53-3.9-.67-3.81s-0.91,2.14-.52,3.83c-0.58-1.69-1.49-3.63-2.48-3s0.28,2.31,1.46,3.57c-1.35-1.18-3.11-2.4-3.63-1.33s1.39,1.86,3,2.36c-1.75-.35-3.89-0.52-3.8.67s2.14,0.91,3.83.52c-1.7.58-3.64,1.49-3,2.48s2.31-.28,3.57-1.46c-1.18,1.35-2.4,3.11-1.32,3.63s1.86-1.4,2.36-3.06c-0.35,1.76-.53,3.9.67,3.81s0.91-2.15.52-3.84c0.58,1.7,1.49,3.65,2.48,3s-0.29-2.31-1.47-3.58c1.35,1.18,3.12,2.41,3.64,1.33S39.64,237,38,236.46C39.74,236.81,41.89,237,41.8,235.8Zm-6,1.72a1.6,1.6,0,1,1,1.61-1.6A1.61,1.61,0,0,1,35.77,237.51Z" transform="translate(50.38 72.29)" style="fill: #f8e000"/>
      <path d="M3.43,446.91c0.13-2.57,5.06-2.15,9.15-1.34-4-1.22-8.56-3.2-7.35-5.69s5.5,0.36,8.75,3.2c-2.52-2.7-5.14-6.15-4.11-8C-20.77,396.91-41.29,446.75,3.43,446.91Zm13-5.3c-0.94-4.06-1.51-9,1.24-9.21s2.44,4.94,1.61,9.17c1-3.37,2.6-7.13,4.56-7.51,18-45.87-35.78-38.66-13.26.36C12.9,433,15,437.59,16.42,441.6Zm5.34,1.33c3-2.85,7.05-5.82,8.6-3.53s-3.06,4.58-7.14,6c3.66-.85,8-1.39,9,0.52,48.78-7.34,15.71-50.29-6.82-11.39C27.11,436,24.39,439.92,21.76,442.94Zm-7.65,7.92c-3,2.85-7.05,5.82-8.6,3.53s3.06-4.58,7.13-6c-3.59.83-7.87,1.37-9-.42-48.44,7.43-15.52,50.14,7,11.45C8.56,458,11.38,454,14.11,450.86Zm5.34,1.33c0.94,4.06,1.51,9-1.24,9.22s-2.44-4.94-1.6-9.17c-1.09,3.59-2.81,7.65-5,7.54-17.91,45.78,35.64,38.64,13.36-.23C22.78,460.38,20.76,456,19.45,452.19Zm13-5.08c-0.4,2.33-5.18,1.9-9.15,1.12,4,1.21,8.57,3.2,7.37,5.69s-5.5-.36-8.74-3.2c2.58,2.76,5.25,6.3,4,8.1C56.6,497.19,77.2,447.26,32.42,447.11Zm-10.13-.3c-0.06-.83-1.55-0.65-2.77-0.37,1.22-.42,2.63-1.08,2.15-1.79s-1.67.21-2.58,1.06c0.85-1,1.74-2.25,1-2.63s-1.34,1-1.71,2.21c0.25-1.27.38-2.81-.48-2.75s-0.66,1.54-.37,2.76c-0.42-1.22-1.08-2.62-1.79-2.14s0.2,1.67,1.06,2.58c-1-.85-2.25-1.73-2.62-1s1,1.34,2.2,1.7c-1.27-.25-2.81-0.38-2.74.48s1.55,0.66,2.77.37c-1.22.42-2.63,1.08-2.15,1.79s1.66-.2,2.58-1.06c-0.85,1-1.73,2.25-1,2.62s1.34-1,1.71-2.21c-0.25,1.27-.38,2.81.48,2.75s0.65-1.55.37-2.77c0.42,1.22,1.08,2.63,1.79,2.15S20,449,19.11,448c1,0.85,2.25,1.74,2.63,1s-1-1.34-2.22-1.71C20.79,447.54,22.35,447.68,22.28,446.81Zm-4.35,1.24a1.16,1.16,0,1,1,1.16-1.16A1.16,1.16,0,0,1,17.93,448.05Z" transform="translate(50.38 72.29)" style="fill: #fdfacd"/>
      <path d="M276.5,16.24c0.13-2.57,5.06-2.15,9.15-1.34-4-1.22-8.56-3.2-7.35-5.69s5.5,0.36,8.75,3.2c-2.52-2.7-5.14-6.15-4.11-8C252.3-33.75,231.78,16.09,276.5,16.24Zm13-5.3c-0.94-4.06-1.51-9,1.24-9.21s2.44,4.94,1.61,9.17c1-3.37,2.6-7.13,4.55-7.51,18-45.87-35.78-38.66-13.26.36C286,2.36,288.12,6.93,289.49,10.93Zm5.34,1.33c3-2.85,7.05-5.82,8.6-3.53s-3.06,4.58-7.14,6c3.66-.85,8-1.39,9,0.52C354.08,7.89,321-35,298.48,3.84,300.18,5.38,297.46,9.25,294.83,12.27Zm-7.65,7.92c-3,2.85-7.05,5.82-8.6,3.53s3.05-4.58,7.13-6c-3.59.83-7.87,1.37-9-.42-48.44,7.43-15.52,50.14,7,11.45C281.62,27.36,284.44,23.31,287.18,20.19Zm5.34,1.33c0.94,4.06,1.51,9-1.24,9.22s-2.44-4.94-1.6-9.17c-1.1,3.59-2.81,7.65-5,7.54-17.91,45.78,35.64,38.64,13.36-.23C295.85,29.71,293.83,25.35,292.52,21.52Zm13-5.08c-0.4,2.33-5.18,1.9-9.15,1.12,4,1.21,8.57,3.2,7.37,5.69s-5.5-.36-8.74-3.2c2.58,2.76,5.25,6.3,4,8.1C329.67,66.53,350.27,16.59,305.49,16.44Zm-10.13-.3c-0.06-.83-1.55-0.65-2.77-0.37,1.22-.42,2.63-1.08,2.15-1.79s-1.67.21-2.58,1.06c0.85-1,1.74-2.25,1-2.63s-1.34,1-1.71,2.21c0.25-1.27.38-2.81-.48-2.75s-0.66,1.54-.37,2.76c-0.42-1.22-1.08-2.62-1.79-2.14s0.2,1.67,1.06,2.58c-1-.85-2.25-1.73-2.62-1s1,1.34,2.2,1.71c-1.27-.25-2.81-0.38-2.74.48s1.55,0.66,2.77.37c-1.22.42-2.63,1.08-2.15,1.79s1.67-.2,2.58-1.06c-0.85,1-1.73,2.25-1,2.62s1.34-1,1.71-2.21c-0.25,1.27-.38,2.81.48,2.75s0.65-1.55.37-2.77c0.42,1.22,1.08,2.63,1.79,2.15s-0.21-1.67-1.06-2.59c1,0.85,2.25,1.74,2.63,1s-1-1.34-2.22-1.71C293.86,16.88,295.42,17,295.35,16.15ZM291,17.39a1.16,1.16,0,1,1,1.16-1.16A1.16,1.16,0,0,1,291,17.39Z" transform="translate(50.38 72.29)" style="fill: #fdfacd"/>
      <path d="M322.56,371c0.13-2.47,4.87-2.07,8.8-1.29-3.84-1.17-8.23-3.08-7.07-5.47s5.29,0.35,8.41,3.08c-2.43-2.6-4.94-5.91-4-7.68C299.28,322.89,279.55,370.81,322.56,371Zm12.48-5.1c-0.91-3.91-1.45-8.67,1.2-8.86s2.34,4.75,1.54,8.81c1-3.24,2.5-6.86,4.38-7.22,17.28-44.11-34.41-37.17-12.75.34C331.65,357.62,333.72,362,335,365.86Zm5.14,1.28c2.93-2.74,6.78-5.59,8.27-3.4s-2.94,4.41-6.87,5.75c3.52-.82,7.72-1.33,8.66.5,46.9-7.06,15.11-48.35-6.56-11C345.32,360.52,342.71,364.24,340.17,367.14Zm-7.36,7.61c-2.93,2.74-6.78,5.59-8.27,3.4s2.94-4.4,6.86-5.74c-3.45.8-7.57,1.32-8.61-.4-46.58,7.14-14.92,48.21,6.71,11C327.48,381.65,330.19,377.76,332.82,374.76ZM338,376c0.91,3.91,1.45,8.67-1.2,8.86s-2.34-4.75-1.54-8.81c-1.05,3.46-2.71,7.35-4.77,7.25-17.22,44,34.27,37.15,12.84-.22C341.16,383.91,339.21,379.72,338,376Zm12.47-4.88c-0.38,2.24-5,1.83-8.8,1.07,3.84,1.17,8.24,3.08,7.08,5.47s-5.29-.35-8.41-3.07c2.48,2.66,5,6.06,3.87,7.79C373.67,419.31,393.48,371.3,350.42,371.16Zm-9.74-.29c-0.06-.8-1.49-0.63-2.66-0.36,1.18-.4,2.53-1,2.06-1.72s-1.61.2-2.48,1c0.82-.94,1.67-2.16.92-2.53s-1.29,1-1.64,2.13c0.24-1.22.37-2.71-.46-2.65s-0.63,1.48-.36,2.66c-0.4-1.18-1-2.52-1.72-2.06s0.2,1.6,1,2.48c-0.94-.82-2.16-1.67-2.52-0.92s1,1.29,2.12,1.64c-1.22-.24-2.7-0.36-2.64.46s1.49,0.63,2.66.36c-1.18.4-2.53,1-2.06,1.72s1.6-.2,2.48-1c-0.82.94-1.67,2.16-.92,2.52s1.29-1,1.64-2.12c-0.24,1.22-.36,2.7.46,2.64s0.63-1.49.36-2.66c0.4,1.18,1,2.53,1.73,2.06s-0.2-1.61-1-2.49c0.94,0.82,2.16,1.67,2.52.92s-1-1.29-2.13-1.64C339.25,371.57,340.74,371.7,340.68,370.87Zm-4.18,1.19a1.11,1.11,0,1,1,1.11-1.11A1.11,1.11,0,0,1,336.5,372.06Z" transform="translate(50.38 72.29)" style="fill: #f8e000"/>
      <path d="M181.86,569.93c0.13-2.47,4.87-2.07,8.8-1.29-3.84-1.17-8.23-3.08-7.07-5.47s5.29,0.35,8.41,3.08c-2.43-2.6-4.94-5.91-4-7.68C158.59,521.87,138.86,569.79,181.86,569.93Zm12.48-5.1c-0.91-3.91-1.45-8.67,1.2-8.86s2.34,4.75,1.54,8.81c1-3.24,2.5-6.86,4.38-7.22,17.28-44.11-34.41-37.17-12.75.34C191,556.59,193,561,194.34,564.83Zm5.14,1.28c2.93-2.74,6.78-5.59,8.27-3.4s-2.94,4.41-6.87,5.75c3.52-.82,7.72-1.33,8.66.5,46.9-7.06,15.11-48.35-6.56-11C204.63,559.49,202,563.22,199.48,566.12Zm-7.36,7.61c-2.93,2.74-6.78,5.59-8.27,3.4s2.94-4.4,6.86-5.74c-3.45.8-7.57,1.32-8.61-.4-46.58,7.14-14.92,48.21,6.71,11C186.79,580.62,189.5,576.74,192.12,573.73Zm5.13,1.28c0.91,3.91,1.45,8.67-1.2,8.86s-2.34-4.75-1.54-8.81c-1.05,3.46-2.71,7.35-4.77,7.25-17.22,44,34.27,37.15,12.84-.22C200.46,582.89,198.52,578.7,197.26,575Zm12.47-4.88c-0.38,2.24-5,1.83-8.8,1.07,3.84,1.17,8.24,3.08,7.08,5.47s-5.29-.35-8.41-3.07c2.48,2.66,5,6.06,3.87,7.79C233,618.28,252.78,570.27,209.73,570.13Zm-9.74-.29c-0.06-.8-1.49-0.63-2.66-0.36,1.18-.4,2.53-1,2.06-1.72s-1.61.2-2.48,1c0.82-.94,1.67-2.16.92-2.53s-1.29,1-1.64,2.13c0.24-1.22.37-2.71-.46-2.65s-0.63,1.48-.36,2.66c-0.4-1.18-1-2.52-1.72-2.06s0.2,1.6,1,2.48c-0.94-.82-2.16-1.67-2.52-0.92s1,1.29,2.12,1.64c-1.22-.24-2.7-0.36-2.64.46s1.49,0.63,2.66.36c-1.18.4-2.53,1-2.06,1.72s1.6-.2,2.48-1c-0.82.94-1.67,2.16-.92,2.52s1.29-1,1.64-2.12c-0.24,1.22-.36,2.7.46,2.64s0.63-1.49.36-2.66c0.4,1.18,1,2.53,1.73,2.06s-0.2-1.61-1-2.49c0.94,0.82,2.16,1.67,2.52.92s-1-1.29-2.13-1.64C198.55,570.55,200,570.67,200,569.84ZM195.8,571a1.11,1.11,0,1,1,1.11-1.11A1.11,1.11,0,0,1,195.8,571Z" transform="translate(50.38 72.29)" style="fill: #f8e000"/>
      <path d="M437.26,589.93c0.13-2.47,4.87-2.07,8.8-1.29-3.84-1.17-8.23-3.08-7.07-5.47s5.29,0.35,8.41,3.08c-2.43-2.6-4.94-5.91-4-7.68C414,541.87,394.26,589.78,437.26,589.93Zm12.48-5.1c-0.91-3.91-1.45-8.67,1.2-8.86s2.34,4.75,1.54,8.81c1-3.24,2.5-6.86,4.38-7.22,17.28-44.11-34.41-37.17-12.75.34C446.36,576.59,448.43,581,449.75,584.83Zm5.14,1.28c2.93-2.74,6.78-5.59,8.27-3.4s-2.94,4.41-6.87,5.75c3.52-.82,7.72-1.33,8.66.5,46.9-7.06,15.11-48.35-6.56-11C460,579.49,457.42,583.22,454.88,586.12Zm-7.36,7.61c-2.93,2.74-6.78,5.59-8.27,3.4s2.94-4.4,6.86-5.74c-3.45.8-7.57,1.32-8.61-.4-46.58,7.14-14.92,48.21,6.71,11C442.19,600.62,444.9,596.73,447.53,593.73Zm5.13,1.28c0.91,3.91,1.45,8.67-1.2,8.86s-2.34-4.75-1.54-8.81c-1.05,3.46-2.71,7.35-4.77,7.25-17.22,44,34.27,37.15,12.84-.22C455.87,602.88,453.92,598.7,452.66,595Zm12.47-4.88c-0.38,2.24-5,1.83-8.8,1.07,3.84,1.17,8.24,3.08,7.08,5.47s-5.29-.35-8.41-3.07c2.48,2.66,5,6.06,3.87,7.79C488.38,638.28,508.19,590.27,465.13,590.13Zm-9.74-.29c-0.06-.8-1.49-0.63-2.66-0.36,1.18-.4,2.53-1,2.06-1.72s-1.61.2-2.48,1c0.82-.94,1.67-2.16.92-2.53s-1.29,1-1.64,2.13c0.24-1.22.37-2.71-.46-2.65s-0.63,1.48-.36,2.66c-0.4-1.18-1-2.52-1.72-2.06s0.2,1.6,1,2.48c-0.94-.82-2.16-1.67-2.52-0.92s1,1.29,2.12,1.64c-1.22-.24-2.7-0.36-2.64.46s1.49,0.63,2.66.36c-1.18.4-2.53,1-2.06,1.72s1.6-.2,2.48-1c-0.82.94-1.67,2.16-.92,2.52s1.29-1,1.64-2.12c-0.24,1.22-.36,2.7.46,2.64s0.63-1.49.36-2.66c0.4,1.18,1,2.53,1.73,2.06s-0.2-1.61-1-2.49c0.94,0.82,2.16,1.67,2.52.92s-1-1.29-2.13-1.64C454,590.55,455.45,590.67,455.39,589.84ZM451.2,591a1.11,1.11,0,1,1,1.11-1.11A1.11,1.11,0,0,1,451.2,591Z" transform="translate(50.38 72.29)" style="fill: #f8e000"/>
      <path d="M570.31,119.94c0.13-2.47,4.87-2.07,8.8-1.29-3.84-1.17-8.23-3.08-7.07-5.47s5.29,0.35,8.41,3.08c-2.43-2.6-4.94-5.91-4-7.68C547,71.88,527.3,119.8,570.31,119.94Zm12.48-5.1c-0.91-3.91-1.45-8.67,1.2-8.86s2.34,4.75,1.54,8.81c1-3.24,2.5-6.86,4.38-7.22,17.28-44.11-34.41-37.17-12.75.34C579.41,106.6,581.47,111,582.79,114.84Zm5.14,1.28c2.93-2.74,6.78-5.59,8.27-3.4s-2.94,4.41-6.87,5.75c3.52-.82,7.72-1.33,8.66.5,46.9-7.06,15.11-48.35-6.56-11C593.08,109.5,590.46,113.23,587.93,116.13Zm-7.36,7.61c-2.93,2.74-6.78,5.59-8.27,3.4s2.94-4.4,6.86-5.74c-3.45.8-7.57,1.32-8.61-.4-46.58,7.14-14.92,48.21,6.71,11C575.23,130.63,577.94,126.75,580.57,123.74Zm5.13,1.28c0.91,3.91,1.45,8.67-1.2,8.86s-2.34-4.75-1.54-8.81c-1.05,3.46-2.71,7.35-4.77,7.25-17.22,44,34.27,37.15,12.84-.22C588.91,132.9,587,128.71,585.71,125Zm12.47-4.88c-0.38,2.24-5,1.83-8.8,1.07,3.84,1.17,8.24,3.08,7.08,5.47s-5.29-.35-8.41-3.07c2.48,2.66,5,6.06,3.87,7.79C621.43,168.29,641.23,120.28,598.18,120.14Zm-9.74-.29c-0.06-.8-1.49-0.63-2.66-0.36,1.18-.4,2.53-1,2.06-1.72s-1.61.2-2.48,1c0.82-.94,1.67-2.16.92-2.53s-1.29,1-1.64,2.13c0.24-1.22.37-2.71-.46-2.65s-0.63,1.48-.36,2.66c-0.4-1.18-1-2.52-1.72-2.06s0.2,1.6,1,2.48c-0.94-.82-2.16-1.67-2.52-0.92s1,1.29,2.12,1.64c-1.22-.24-2.7-0.36-2.64.46s1.49,0.63,2.66.36c-1.18.4-2.53,1-2.06,1.72s1.6-.2,2.48-1c-0.82.94-1.66,2.16-.92,2.52s1.29-1,1.64-2.12c-0.24,1.22-.36,2.7.46,2.64s0.63-1.49.36-2.66c0.4,1.18,1,2.53,1.73,2.06s-0.2-1.61-1-2.49c0.94,0.82,2.16,1.67,2.52.92s-1-1.29-2.13-1.64C587,120.56,588.49,120.68,588.43,119.85ZM584.25,121a1.11,1.11,0,1,1,1.11-1.11A1.11,1.11,0,0,1,584.25,121Z" transform="translate(50.38 72.29)" style="fill: #f8e000"/>
      <path d="M394.4,12.29c0.13-2.47,4.87-2.07,8.8-1.29-3.84-1.17-8.23-3.08-7.07-5.47s5.29,0.35,8.41,3.08c-2.43-2.6-4.94-5.91-4-7.68C371.13-35.78,351.4,12.14,394.4,12.29Zm12.48-5.1c-0.91-3.91-1.45-8.67,1.2-8.86s2.34,4.75,1.54,8.81c1-3.24,2.5-6.86,4.38-7.22,17.28-44.11-34.41-37.17-12.75.34C403.5-1.06,405.57,3.34,406.88,7.19ZM412,8.47c2.93-2.74,6.78-5.59,8.27-3.4s-2.94,4.41-6.87,5.75c3.52-.82,7.72-1.33,8.66.5C469,4.27,437.2-37,415.53.37,417.17,1.85,414.55,5.57,412,8.47Zm-7.36,7.61c-2.93,2.74-6.78,5.59-8.27,3.4s2.94-4.4,6.86-5.74c-3.45.8-7.57,1.32-8.61-.4-46.58,7.14-14.92,48.21,6.71,11C399.33,23,402,19.09,404.66,16.09Zm5.13,1.28c0.91,3.91,1.45,8.67-1.2,8.86s-2.34-4.75-1.54-8.81c-1.05,3.46-2.71,7.35-4.77,7.25-17.22,44,34.27,37.15,12.84-.22C413,25.24,411.06,21.05,409.8,17.37Zm12.47-4.88c-0.38,2.24-5,1.83-8.8,1.07,3.84,1.17,8.24,3.08,7.08,5.47s-5.29-.35-8.41-3.07c2.48,2.66,5,6.06,3.87,7.79C445.52,60.64,465.32,12.63,422.27,12.49Zm-9.74-.29c-0.06-.8-1.49-0.63-2.66-0.36,1.18-.4,2.53-1,2.06-1.72s-1.61.2-2.48,1c0.82-.94,1.67-2.16.92-2.53s-1.29,1-1.64,2.13c0.24-1.22.37-2.71-.46-2.65s-0.63,1.48-.36,2.66c-0.4-1.18-1-2.52-1.72-2.06s0.2,1.6,1,2.48c-0.94-.82-2.16-1.67-2.52-0.92s1,1.29,2.12,1.64c-1.22-.24-2.7-0.36-2.64.46s1.49,0.63,2.66.36c-1.18.4-2.53,1-2.06,1.72s1.6-.2,2.48-1c-0.82.94-1.67,2.16-.92,2.52s1.29-1,1.64-2.12c-0.24,1.22-.36,2.7.46,2.64s0.63-1.49.36-2.66c0.4,1.18,1,2.53,1.73,2.06s-0.2-1.61-1-2.49c0.94,0.82,2.16,1.67,2.52.92s-1-1.29-2.13-1.64C411.09,12.9,412.59,13,412.53,12.2Zm-4.18,1.19a1.11,1.11,0,1,1,1.11-1.11A1.11,1.11,0,0,1,408.34,13.39Z" transform="translate(50.38 72.29)" style="fill: #f8e000"/>
      <g>
        <circle cx="537.24" cy="91.69" r="38.73" style="fill: #c1dbd5"/>
        <circle cx="537.23" cy="91.7" r="33.99" style="fill: #594e41"/>
        <circle cx="537.23" cy="91.69" r="20.6" style="fill: #fdfacd"/>
      </g>
      <g>
        <circle cx="634.63" cy="88.52" r="38.75" style="fill: #c1dbd5"/>
        <circle cx="634.63" cy="88.52" r="34.01" style="fill: #fdfacd"/>
        <circle cx="634.63" cy="88.52" r="20.61" style="fill: #c1dbd5"/>
      </g>
      <g>
        <circle cx="438.5" cy="646.33" r="38.75" style="fill: #c1dbd5"/>
        <circle cx="438.5" cy="646.33" r="34.01" style="fill: #fdfacd"/>
        <circle cx="438.5" cy="646.33" r="20.61" style="fill: #c1dbd5"/>
      </g>
      <g>
        <circle cx="309.28" cy="432.19" r="38.75" style="fill: #c1dbd5"/>
        <circle cx="309.28" cy="432.19" r="34.01" style="fill: #fdfacd"/>
        <circle cx="309.28" cy="432.19" r="20.61" style="fill: #c1dbd5"/>
      </g>
      <g>
        <circle cx="50.38" cy="206.65" r="38.75" style="fill: #c1dbd5"/>
        <circle cx="50.38" cy="206.65" r="34.01" style="fill: #fdfacd"/>
        <circle cx="50.38" cy="206.65" r="20.61" style="fill: #c1dbd5"/>
      </g>
      <g>
        <circle cx="50.38" cy="667.57" r="49.12" style="fill: #c1dbd5"/>
        <circle cx="50.38" cy="667.57" r="43.11" style="fill: #fdfacd"/>
        <circle cx="50.38" cy="667.57" r="26.13" style="fill: #c1dbd5"/>
      </g>
      <g>
        <circle cx="158.11" cy="72.3" r="49.12" style="fill: #c1dbd5"/>
        <circle cx="158.11" cy="72.3" r="43.11" style="fill: #fdfacd"/>
        <circle cx="158.11" cy="72.3" r="26.13" style="fill: #c1dbd5"/>
      </g>
    </g>
  </g>
  <g>
    <text transform="translate(248.07 711.13)" style="font-size: 22px;fill: #252223;font-family: Myriad Pro">h</text>
    <text transform="translate(260.2 711.13)" style="font-size: 22px;fill: #252223;font-family: Myriad Pro">ttp://</text>
    <text transform="translate(306.92 711.13)" style="font-size: 22px;fill: #252223;font-family: Myriad Pro">v</text>
    <text transform="translate(317.28 711.13)" style="font-size: 22px;fill: #252223;font-family: Myriad Pro">e</text>
    <text transform="translate(328.31 711.13)" style="font-size: 22px;fill: #252223;font-family: Myriad Pro">c</text>
    <text transform="translate(338.45 711.13)" style="font-size: 22px;fill: #252223;font-family: Myriad Pro">t</text>
    <text transform="translate(345.6 711.13)" style="font-size: 22px;fill: #252223;font-family: Myriad Pro">o2000.</text>
    <text transform="translate(407.37 711.13)" style="font-size: 22px;fill: #252223;font-family: Myriad Pro">c</text>
    <text transform="translate(417.09 711.13)" style="font-size: 22px;fill: #252223;font-family: Myriad Pro">om</text>
  </g>
</svg>
